*
%FSTAX45Y45*%
%MOMM*%
G04 A1 - las_cross_hole *
%AMA1lth_1-3_scpt*
1,1,0.025400,0.000000,1.257300*
1,1,0.025400,0.000000,-1.257300*
20,1,0.025400,0.000000,1.257300,0.000000,-1.257300,0.0*
1,1,0.025400,1.257300,0.000000*
1,1,0.025400,-1.257300,0.000000*
20,1,0.025400,1.257300,0.000000,-1.257300,0.000000,0.0*
1,1,0.025400,-0.719842,0.797335*
1,1,0.025400,-0.719842,0.317930*
20,1,0.025400,-0.719842,0.797335,-0.719842,0.317930,0.0*
1,1,0.025400,-0.719842,0.317930*
1,1,0.025400,-0.400237,0.317930*
20,1,0.025400,-0.719842,0.317930,-0.400238,0.317930,0.0*
4,1,4,
-0.250000,-0.250000,
-0.250000,0.250000,
0.250000,0.250000,
0.250000,-0.250000,
-0.250000,-0.250000,
0.0000*
1,1,0.400000,0.000000,0.000000*
%
%ADD10C,0.160000*%
%ADD11C,0.150000*%
%ADD12A1lth_1-3_scpt*%
%ADD13C,0.400000*%
%IPPOS*%
%LNlth_1-3_scpt.gbr*%
%LPD*%
G75*
G54D10*
X-000378Y00594768D03*
G54D10*
Y00588268D03*
G54D10*
Y00581768D03*
G54D10*
Y00575268D03*
G54D10*
Y00568768D03*
G54D10*
Y00562268D03*
G54D10*
Y00555768D03*
G54D10*
Y00549268D03*
G54D10*
Y00542768D03*
G54D10*
Y00536268D03*
G54D10*
X-000326Y00591518D03*
G54D10*
Y00585018D03*
G54D10*
Y00578518D03*
G54D10*
Y00572018D03*
G54D10*
Y00565518D03*
G54D10*
Y00559018D03*
G54D10*
Y00552518D03*
G54D10*
Y00546018D03*
G54D10*
Y00539518D03*
G54D10*
Y00533018D03*
G54D10*
X-000274Y00594768D03*
G54D10*
Y00588268D03*
G54D10*
Y00581768D03*
G54D10*
Y00575268D03*
G54D10*
Y00568768D03*
G54D10*
Y00562268D03*
G54D10*
Y00555768D03*
G54D10*
Y00549268D03*
G54D10*
Y00542768D03*
G54D10*
Y00536268D03*
G54D10*
X-000222Y00591518D03*
G54D10*
Y00585018D03*
G54D10*
Y00578518D03*
G54D10*
Y00572018D03*
G54D10*
Y00565518D03*
G54D10*
Y00559018D03*
G54D10*
Y00552518D03*
G54D10*
Y00546018D03*
G54D10*
Y00539518D03*
G54D10*
Y00533018D03*
G54D10*
X-000378Y01717768D03*
G54D10*
Y01711268D03*
G54D10*
Y01704768D03*
G54D10*
Y01698268D03*
G54D10*
Y01691768D03*
G54D10*
Y01685268D03*
G54D10*
Y01678768D03*
G54D10*
Y01672268D03*
G54D10*
Y01665768D03*
G54D10*
Y01659268D03*
G54D10*
X-000326Y01714518D03*
G54D10*
Y01708018D03*
G54D10*
Y01701518D03*
G54D10*
Y01695018D03*
G54D10*
Y01688518D03*
G54D10*
Y01682018D03*
G54D10*
Y01675518D03*
G54D10*
Y01669018D03*
G54D10*
Y01662518D03*
G54D10*
Y01656018D03*
G54D10*
X-000274Y01717768D03*
G54D10*
Y01711268D03*
G54D10*
Y01704768D03*
G54D10*
Y01698268D03*
G54D10*
Y01691768D03*
G54D10*
Y01685268D03*
G54D10*
Y01678768D03*
G54D10*
Y01672268D03*
G54D10*
Y01665768D03*
G54D10*
Y01659268D03*
G54D10*
X-000222Y01714518D03*
G54D10*
Y01708018D03*
G54D10*
Y01701518D03*
G54D10*
Y01695018D03*
G54D10*
Y01688518D03*
G54D10*
Y01682018D03*
G54D10*
Y01675518D03*
G54D10*
Y01669018D03*
G54D10*
Y01662518D03*
G54D10*
Y01656018D03*
G54D10*
X004222Y00594768D03*
G54D10*
Y00588268D03*
G54D10*
Y00581768D03*
G54D10*
Y00575268D03*
G54D10*
Y00568768D03*
G54D10*
Y00562268D03*
G54D10*
Y00555768D03*
G54D10*
Y00549268D03*
G54D10*
Y00542768D03*
G54D10*
Y00536268D03*
G54D10*
X004274Y00591518D03*
G54D10*
Y00585018D03*
G54D10*
Y00578518D03*
G54D10*
Y00572018D03*
G54D10*
Y00565518D03*
G54D10*
Y00559018D03*
G54D10*
Y00552518D03*
G54D10*
Y00546018D03*
G54D10*
Y00539518D03*
G54D10*
Y00533018D03*
G54D10*
X004326Y00594768D03*
G54D10*
Y00588268D03*
G54D10*
Y00581768D03*
G54D10*
Y00575268D03*
G54D10*
Y00568768D03*
G54D10*
Y00562268D03*
G54D10*
Y00555768D03*
G54D10*
Y00549268D03*
G54D10*
Y00542768D03*
G54D10*
Y00536268D03*
G54D10*
X004378Y00591518D03*
G54D10*
Y00585018D03*
G54D10*
Y00578518D03*
G54D10*
Y00572018D03*
G54D10*
Y00565518D03*
G54D10*
Y00559018D03*
G54D10*
Y00552518D03*
G54D10*
Y00546018D03*
G54D10*
Y00539518D03*
G54D10*
Y00533018D03*
G54D10*
X004222Y01717768D03*
G54D10*
Y01711268D03*
G54D10*
Y01704768D03*
G54D10*
Y01698268D03*
G54D10*
Y01691768D03*
G54D10*
Y01685268D03*
G54D10*
Y01678768D03*
G54D10*
Y01672268D03*
G54D10*
Y01665768D03*
G54D10*
Y01659268D03*
G54D10*
X004274Y01714518D03*
G54D10*
Y01708018D03*
G54D10*
Y01701518D03*
G54D10*
Y01695018D03*
G54D10*
Y01688518D03*
G54D10*
Y01682018D03*
G54D10*
Y01675518D03*
G54D10*
Y01669018D03*
G54D10*
Y01662518D03*
G54D10*
Y01656018D03*
G54D10*
X004326Y01717768D03*
G54D10*
Y01711268D03*
G54D10*
Y01704768D03*
G54D10*
Y01698268D03*
G54D10*
Y01691768D03*
G54D10*
Y01685268D03*
G54D10*
Y01678768D03*
G54D10*
Y01672268D03*
G54D10*
Y01665768D03*
G54D10*
Y01659268D03*
G54D10*
X004378Y01714518D03*
G54D10*
Y01708018D03*
G54D10*
Y01701518D03*
G54D10*
Y01695018D03*
G54D10*
Y01688518D03*
G54D10*
Y01682018D03*
G54D10*
Y01675518D03*
G54D10*
Y01669018D03*
G54D10*
Y01662518D03*
G54D10*
Y01656018D03*
G54D10*
X008822Y00594768D03*
G54D10*
Y00588268D03*
G54D10*
Y00581768D03*
G54D10*
Y00575268D03*
G54D10*
Y00568768D03*
G54D10*
Y00562268D03*
G54D10*
Y00555768D03*
G54D10*
Y00549268D03*
G54D10*
Y00542768D03*
G54D10*
Y00536268D03*
G54D10*
X008874Y00591518D03*
G54D10*
Y00585018D03*
G54D10*
Y00578518D03*
G54D10*
Y00572018D03*
G54D10*
Y00565518D03*
G54D10*
Y00559018D03*
G54D10*
Y00552518D03*
G54D10*
Y00546018D03*
G54D10*
Y00539518D03*
G54D10*
Y00533018D03*
G54D10*
X008926Y00594768D03*
G54D10*
Y00588268D03*
G54D10*
Y00581768D03*
G54D10*
Y00575268D03*
G54D10*
Y00568768D03*
G54D10*
Y00562268D03*
G54D10*
Y00555768D03*
G54D10*
Y00549268D03*
G54D10*
Y00542768D03*
G54D10*
Y00536268D03*
G54D10*
X008978Y00591518D03*
G54D10*
Y00585018D03*
G54D10*
Y00578518D03*
G54D10*
Y00572018D03*
G54D10*
Y00565518D03*
G54D10*
Y00559018D03*
G54D10*
Y00552518D03*
G54D10*
Y00546018D03*
G54D10*
Y00539518D03*
G54D10*
Y00533018D03*
G54D10*
X008822Y01717768D03*
G54D10*
Y01711268D03*
G54D10*
Y01704768D03*
G54D10*
Y01698268D03*
G54D10*
Y01691768D03*
G54D10*
Y01685268D03*
G54D10*
Y01678768D03*
G54D10*
Y01672268D03*
G54D10*
Y01665768D03*
G54D10*
Y01659268D03*
G54D10*
X008874Y01714518D03*
G54D10*
Y01708018D03*
G54D10*
Y01701518D03*
G54D10*
Y01695018D03*
G54D10*
Y01688518D03*
G54D10*
Y01682018D03*
G54D10*
Y01675518D03*
G54D10*
Y01669018D03*
G54D10*
Y01662518D03*
G54D10*
Y01656018D03*
G54D10*
X008926Y01717768D03*
G54D10*
Y01711268D03*
G54D10*
Y01704768D03*
G54D10*
Y01698268D03*
G54D10*
Y01691768D03*
G54D10*
Y01685268D03*
G54D10*
Y01678768D03*
G54D10*
Y01672268D03*
G54D10*
Y01665768D03*
G54D10*
Y01659268D03*
G54D10*
X008978Y01714518D03*
G54D10*
Y01708018D03*
G54D10*
Y01701518D03*
G54D10*
Y01695018D03*
G54D10*
Y01688518D03*
G54D10*
Y01682018D03*
G54D10*
Y01675518D03*
G54D10*
Y01669018D03*
G54D10*
Y01662518D03*
G54D10*
Y01656018D03*
G54D10*
X-00147Y00174032D03*
G54D10*
Y00180532D03*
G54D10*
Y00187032D03*
G54D10*
Y00193532D03*
G54D10*
Y00200032D03*
G54D10*
Y00206532D03*
G54D10*
Y00213032D03*
G54D10*
Y00219532D03*
G54D10*
Y00226032D03*
G54D10*
Y00232532D03*
G54D10*
X-001522Y00177282D03*
G54D10*
Y00183782D03*
G54D10*
Y00190282D03*
G54D10*
Y00196782D03*
G54D10*
Y00203282D03*
G54D10*
Y00209782D03*
G54D10*
Y00216282D03*
G54D10*
Y00222782D03*
G54D10*
Y00229282D03*
G54D10*
Y00235782D03*
G54D10*
X-001574Y00174032D03*
G54D10*
Y00180532D03*
G54D10*
Y00187032D03*
G54D10*
Y00193532D03*
G54D10*
Y00200032D03*
G54D10*
Y00206532D03*
G54D10*
Y00213032D03*
G54D10*
Y00219532D03*
G54D10*
Y00226032D03*
G54D10*
Y00232532D03*
G54D10*
X-001626Y00177282D03*
G54D10*
Y00183782D03*
G54D10*
Y00190282D03*
G54D10*
Y00196782D03*
G54D10*
Y00203282D03*
G54D10*
Y00209782D03*
G54D10*
Y00216282D03*
G54D10*
Y00222782D03*
G54D10*
Y00229282D03*
G54D10*
Y00235782D03*
G54D10*
X-00147Y01297032D03*
G54D10*
Y01303532D03*
G54D10*
Y01310032D03*
G54D10*
Y01316532D03*
G54D10*
Y01323032D03*
G54D10*
Y01329532D03*
G54D10*
Y01336032D03*
G54D10*
Y01342532D03*
G54D10*
Y01349032D03*
G54D10*
Y01355532D03*
G54D10*
X-001522Y01300282D03*
G54D10*
Y01306782D03*
G54D10*
Y01313282D03*
G54D10*
Y01319782D03*
G54D10*
Y01326282D03*
G54D10*
Y01332782D03*
G54D10*
Y01339282D03*
G54D10*
Y01345782D03*
G54D10*
Y01352282D03*
G54D10*
Y01358782D03*
G54D10*
X-001574Y01297032D03*
G54D10*
Y01303532D03*
G54D10*
Y01310032D03*
G54D10*
Y01316532D03*
G54D10*
Y01323032D03*
G54D10*
Y01329532D03*
G54D10*
Y01336032D03*
G54D10*
Y01342532D03*
G54D10*
Y01349032D03*
G54D10*
Y01355532D03*
G54D10*
X-001626Y01300282D03*
G54D10*
Y01306782D03*
G54D10*
Y01313282D03*
G54D10*
Y01319782D03*
G54D10*
Y01326282D03*
G54D10*
Y01332782D03*
G54D10*
Y01339282D03*
G54D10*
Y01345782D03*
G54D10*
Y01352282D03*
G54D10*
Y01358782D03*
G54D10*
X00313Y00174032D03*
G54D10*
Y00180532D03*
G54D10*
Y00187032D03*
G54D10*
Y00193532D03*
G54D10*
Y00200032D03*
G54D10*
Y00206532D03*
G54D10*
Y00213032D03*
G54D10*
Y00219532D03*
G54D10*
Y00226032D03*
G54D10*
Y00232532D03*
G54D10*
X003078Y00177282D03*
G54D10*
Y00183782D03*
G54D10*
Y00190282D03*
G54D10*
Y00196782D03*
G54D10*
Y00203282D03*
G54D10*
Y00209782D03*
G54D10*
Y00216282D03*
G54D10*
Y00222782D03*
G54D10*
Y00229282D03*
G54D10*
Y00235782D03*
G54D10*
X003026Y00174032D03*
G54D10*
Y00180532D03*
G54D10*
Y00187032D03*
G54D10*
Y00193532D03*
G54D10*
Y00200032D03*
G54D10*
Y00206532D03*
G54D10*
Y00213032D03*
G54D10*
Y00219532D03*
G54D10*
Y00226032D03*
G54D10*
Y00232532D03*
G54D10*
X002974Y00177282D03*
G54D10*
Y00183782D03*
G54D10*
Y00190282D03*
G54D10*
Y00196782D03*
G54D10*
Y00203282D03*
G54D10*
Y00209782D03*
G54D10*
Y00216282D03*
G54D10*
Y00222782D03*
G54D10*
Y00229282D03*
G54D10*
Y00235782D03*
G54D10*
X00313Y01297032D03*
G54D10*
Y01303532D03*
G54D10*
Y01310032D03*
G54D10*
Y01316532D03*
G54D10*
Y01323032D03*
G54D10*
Y01329532D03*
G54D10*
Y01336032D03*
G54D10*
Y01342532D03*
G54D10*
Y01349032D03*
G54D10*
Y01355532D03*
G54D10*
X003078Y01300282D03*
G54D10*
Y01306782D03*
G54D10*
Y01313282D03*
G54D10*
Y01319782D03*
G54D10*
Y01326282D03*
G54D10*
Y01332782D03*
G54D10*
Y01339282D03*
G54D10*
Y01345782D03*
G54D10*
Y01352282D03*
G54D10*
Y01358782D03*
G54D10*
X003026Y01297032D03*
G54D10*
Y01303532D03*
G54D10*
Y01310032D03*
G54D10*
Y01316532D03*
G54D10*
Y01323032D03*
G54D10*
Y01329532D03*
G54D10*
Y01336032D03*
G54D10*
Y01342532D03*
G54D10*
Y01349032D03*
G54D10*
Y01355532D03*
G54D10*
X002974Y01300282D03*
G54D10*
Y01306782D03*
G54D10*
Y01313282D03*
G54D10*
Y01319782D03*
G54D10*
Y01326282D03*
G54D10*
Y01332782D03*
G54D10*
Y01339282D03*
G54D10*
Y01345782D03*
G54D10*
Y01352282D03*
G54D10*
Y01358782D03*
G54D10*
X00773Y00174032D03*
G54D10*
Y00180532D03*
G54D10*
Y00187032D03*
G54D10*
Y00193532D03*
G54D10*
Y00200032D03*
G54D10*
Y00206532D03*
G54D10*
Y00213032D03*
G54D10*
Y00219532D03*
G54D10*
Y00226032D03*
G54D10*
Y00232532D03*
G54D10*
X007678Y00177282D03*
G54D10*
Y00183782D03*
G54D10*
Y00190282D03*
G54D10*
Y00196782D03*
G54D10*
Y00203282D03*
G54D10*
Y00209782D03*
G54D10*
Y00216282D03*
G54D10*
Y00222782D03*
G54D10*
Y00229282D03*
G54D10*
Y00235782D03*
G54D10*
X007626Y00174032D03*
G54D10*
Y00180532D03*
G54D10*
Y00187032D03*
G54D10*
Y00193532D03*
G54D10*
Y00200032D03*
G54D10*
Y00206532D03*
G54D10*
Y00213032D03*
G54D10*
Y00219532D03*
G54D10*
Y00226032D03*
G54D10*
Y00232532D03*
G54D10*
X007574Y00177282D03*
G54D10*
Y00183782D03*
G54D10*
Y00190282D03*
G54D10*
Y00196782D03*
G54D10*
Y00203282D03*
G54D10*
Y00209782D03*
G54D10*
Y00216282D03*
G54D10*
Y00222782D03*
G54D10*
Y00229282D03*
G54D10*
Y00235782D03*
G54D10*
X00773Y01297032D03*
G54D10*
Y01303532D03*
G54D10*
Y01310032D03*
G54D10*
Y01316532D03*
G54D10*
Y01323032D03*
G54D10*
Y01329532D03*
G54D10*
Y01336032D03*
G54D10*
Y01342532D03*
G54D10*
Y01349032D03*
G54D10*
Y01355532D03*
G54D10*
X007678Y01300282D03*
G54D10*
Y01306782D03*
G54D10*
Y01313282D03*
G54D10*
Y01319782D03*
G54D10*
Y01326282D03*
G54D10*
Y01332782D03*
G54D10*
Y01339282D03*
G54D10*
Y01345782D03*
G54D10*
Y01352282D03*
G54D10*
Y01358782D03*
G54D10*
X007626Y01297032D03*
G54D10*
Y01303532D03*
G54D10*
Y01310032D03*
G54D10*
Y01316532D03*
G54D10*
Y01323032D03*
G54D10*
Y01329532D03*
G54D10*
Y01336032D03*
G54D10*
Y01342532D03*
G54D10*
Y01349032D03*
G54D10*
Y01355532D03*
G54D10*
X007574Y01300282D03*
G54D10*
Y01306782D03*
G54D10*
Y01313282D03*
G54D10*
Y01319782D03*
G54D10*
Y01326282D03*
G54D10*
Y01332782D03*
G54D10*
Y01339282D03*
G54D10*
Y01345782D03*
G54D10*
Y01352282D03*
G54D10*
Y01358782D03*
G54D10*
X000872Y00429968D03*
G54D10*
Y00423468D03*
G54D10*
Y00416968D03*
G54D10*
Y00410468D03*
G54D10*
Y00403968D03*
G54D10*
Y00397468D03*
G54D10*
Y00390968D03*
G54D10*
Y00384468D03*
G54D10*
Y00377968D03*
G54D10*
Y00371468D03*
G54D10*
X000924Y00426718D03*
G54D10*
Y00420218D03*
G54D10*
Y00413718D03*
G54D10*
Y00407218D03*
G54D10*
Y00400718D03*
G54D10*
Y00394218D03*
G54D10*
Y00387718D03*
G54D10*
Y00381218D03*
G54D10*
Y00374718D03*
G54D10*
Y00368218D03*
G54D10*
X000976Y00429968D03*
G54D10*
Y00423468D03*
G54D10*
Y00416968D03*
G54D10*
Y00410468D03*
G54D10*
Y00403968D03*
G54D10*
Y00397468D03*
G54D10*
Y00390968D03*
G54D10*
Y00384468D03*
G54D10*
Y00377968D03*
G54D10*
Y00371468D03*
G54D10*
X001028Y00426718D03*
G54D10*
Y00420218D03*
G54D10*
Y00413718D03*
G54D10*
Y00407218D03*
G54D10*
Y00400718D03*
G54D10*
Y00394218D03*
G54D10*
Y00387718D03*
G54D10*
Y00381218D03*
G54D10*
Y00374718D03*
G54D10*
Y00368218D03*
G54D10*
X000872Y01552968D03*
G54D10*
Y01546468D03*
G54D10*
Y01539968D03*
G54D10*
Y01533468D03*
G54D10*
Y01526968D03*
G54D10*
Y01520468D03*
G54D10*
Y01513968D03*
G54D10*
Y01507468D03*
G54D10*
Y01500968D03*
G54D10*
Y01494468D03*
G54D10*
X000924Y01549718D03*
G54D10*
Y01543218D03*
G54D10*
Y01536718D03*
G54D10*
Y01530218D03*
G54D10*
Y01523718D03*
G54D10*
Y01517218D03*
G54D10*
Y01510718D03*
G54D10*
Y01504218D03*
G54D10*
Y01497718D03*
G54D10*
Y01491218D03*
G54D10*
X000976Y01552968D03*
G54D10*
Y01546468D03*
G54D10*
Y01539968D03*
G54D10*
Y01533468D03*
G54D10*
Y01526968D03*
G54D10*
Y01520468D03*
G54D10*
Y01513968D03*
G54D10*
Y01507468D03*
G54D10*
Y01500968D03*
G54D10*
Y01494468D03*
G54D10*
X001028Y01549718D03*
G54D10*
Y01543218D03*
G54D10*
Y01536718D03*
G54D10*
Y01530218D03*
G54D10*
Y01523718D03*
G54D10*
Y01517218D03*
G54D10*
Y01510718D03*
G54D10*
Y01504218D03*
G54D10*
Y01497718D03*
G54D10*
Y01491218D03*
G54D10*
X005472Y00429968D03*
G54D10*
Y00423468D03*
G54D10*
Y00416968D03*
G54D10*
Y00410468D03*
G54D10*
Y00403968D03*
G54D10*
Y00397468D03*
G54D10*
Y00390968D03*
G54D10*
Y00384468D03*
G54D10*
Y00377968D03*
G54D10*
Y00371468D03*
G54D10*
X005524Y00426718D03*
G54D10*
Y00420218D03*
G54D10*
Y00413718D03*
G54D10*
Y00407218D03*
G54D10*
Y00400718D03*
G54D10*
Y00394218D03*
G54D10*
Y00387718D03*
G54D10*
Y00381218D03*
G54D10*
Y00374718D03*
G54D10*
Y00368218D03*
G54D10*
X005576Y00429968D03*
G54D10*
Y00423468D03*
G54D10*
Y00416968D03*
G54D10*
Y00410468D03*
G54D10*
Y00403968D03*
G54D10*
Y00397468D03*
G54D10*
Y00390968D03*
G54D10*
Y00384468D03*
G54D10*
Y00377968D03*
G54D10*
Y00371468D03*
G54D10*
X005628Y00426718D03*
G54D10*
Y00420218D03*
G54D10*
Y00413718D03*
G54D10*
Y00407218D03*
G54D10*
Y00400718D03*
G54D10*
Y00394218D03*
G54D10*
Y00387718D03*
G54D10*
Y00381218D03*
G54D10*
Y00374718D03*
G54D10*
Y00368218D03*
G54D10*
X005472Y01552968D03*
G54D10*
Y01546468D03*
G54D10*
Y01539968D03*
G54D10*
Y01533468D03*
G54D10*
Y01526968D03*
G54D10*
Y01520468D03*
G54D10*
Y01513968D03*
G54D10*
Y01507468D03*
G54D10*
Y01500968D03*
G54D10*
Y01494468D03*
G54D10*
X005524Y01549718D03*
G54D10*
Y01543218D03*
G54D10*
Y01536718D03*
G54D10*
Y01530218D03*
G54D10*
Y01523718D03*
G54D10*
Y01517218D03*
G54D10*
Y01510718D03*
G54D10*
Y01504218D03*
G54D10*
Y01497718D03*
G54D10*
Y01491218D03*
G54D10*
X005576Y01552968D03*
G54D10*
Y01546468D03*
G54D10*
Y01539968D03*
G54D10*
Y01533468D03*
G54D10*
Y01526968D03*
G54D10*
Y01520468D03*
G54D10*
Y01513968D03*
G54D10*
Y01507468D03*
G54D10*
Y01500968D03*
G54D10*
Y01494468D03*
G54D10*
X005628Y01549718D03*
G54D10*
Y01543218D03*
G54D10*
Y01536718D03*
G54D10*
Y01530218D03*
G54D10*
Y01523718D03*
G54D10*
Y01517218D03*
G54D10*
Y01510718D03*
G54D10*
Y01504218D03*
G54D10*
Y01497718D03*
G54D10*
Y01491218D03*
G54D10*
X010072Y00429968D03*
G54D10*
Y00423468D03*
G54D10*
Y00416968D03*
G54D10*
Y00410468D03*
G54D10*
Y00403968D03*
G54D10*
Y00397468D03*
G54D10*
Y00390968D03*
G54D10*
Y00384468D03*
G54D10*
Y00377968D03*
G54D10*
Y00371468D03*
G54D10*
X010124Y00426718D03*
G54D10*
Y00420218D03*
G54D10*
Y00413718D03*
G54D10*
Y00407218D03*
G54D10*
Y00400718D03*
G54D10*
Y00394218D03*
G54D10*
Y00387718D03*
G54D10*
Y00381218D03*
G54D10*
Y00374718D03*
G54D10*
Y00368218D03*
G54D10*
X010176Y00429968D03*
G54D10*
Y00423468D03*
G54D10*
Y00416968D03*
G54D10*
Y00410468D03*
G54D10*
Y00403968D03*
G54D10*
Y00397468D03*
G54D10*
Y00390968D03*
G54D10*
Y00384468D03*
G54D10*
Y00377968D03*
G54D10*
Y00371468D03*
G54D10*
X010228Y00426718D03*
G54D10*
Y00420218D03*
G54D10*
Y00413718D03*
G54D10*
Y00407218D03*
G54D10*
Y00400718D03*
G54D10*
Y00394218D03*
G54D10*
Y00387718D03*
G54D10*
Y00381218D03*
G54D10*
Y00374718D03*
G54D10*
Y00368218D03*
G54D10*
X010072Y01552968D03*
G54D10*
Y01546468D03*
G54D10*
Y01539968D03*
G54D10*
Y01533468D03*
G54D10*
Y01526968D03*
G54D10*
Y01520468D03*
G54D10*
Y01513968D03*
G54D10*
Y01507468D03*
G54D10*
Y01500968D03*
G54D10*
Y01494468D03*
G54D10*
X010124Y01549718D03*
G54D10*
Y01543218D03*
G54D10*
Y01536718D03*
G54D10*
Y01530218D03*
G54D10*
Y01523718D03*
G54D10*
Y01517218D03*
G54D10*
Y01510718D03*
G54D10*
Y01504218D03*
G54D10*
Y01497718D03*
G54D10*
Y01491218D03*
G54D10*
X010176Y01552968D03*
G54D10*
Y01546468D03*
G54D10*
Y01539968D03*
G54D10*
Y01533468D03*
G54D10*
Y01526968D03*
G54D10*
Y01520468D03*
G54D10*
Y01513968D03*
G54D10*
Y01507468D03*
G54D10*
Y01500968D03*
G54D10*
Y01494468D03*
G54D10*
X010228Y01549718D03*
G54D10*
Y01543218D03*
G54D10*
Y01536718D03*
G54D10*
Y01530218D03*
G54D10*
Y01523718D03*
G54D10*
Y01517218D03*
G54D10*
Y01510718D03*
G54D10*
Y01504218D03*
G54D10*
Y01497718D03*
G54D10*
Y01491218D03*
G54D10*
X-00272Y00338832D03*
G54D10*
Y00345332D03*
G54D10*
Y00351832D03*
G54D10*
Y00358332D03*
G54D10*
Y00364832D03*
G54D10*
Y00371332D03*
G54D10*
Y00377832D03*
G54D10*
Y00384332D03*
G54D10*
Y00390832D03*
G54D10*
Y00397332D03*
G54D10*
X-002772Y00342082D03*
G54D10*
Y00348582D03*
G54D10*
Y00355082D03*
G54D10*
Y00361582D03*
G54D10*
Y00368082D03*
G54D10*
Y00374582D03*
G54D10*
Y00381082D03*
G54D10*
Y00387582D03*
G54D10*
Y00394082D03*
G54D10*
Y00400582D03*
G54D10*
X-002824Y00338832D03*
G54D10*
Y00345332D03*
G54D10*
Y00351832D03*
G54D10*
Y00358332D03*
G54D10*
Y00364832D03*
G54D10*
Y00371332D03*
G54D10*
Y00377832D03*
G54D10*
Y00384332D03*
G54D10*
Y00390832D03*
G54D10*
Y00397332D03*
G54D10*
X-002876Y00342082D03*
G54D10*
Y00348582D03*
G54D10*
Y00355082D03*
G54D10*
Y00361582D03*
G54D10*
Y00368082D03*
G54D10*
Y00374582D03*
G54D10*
Y00381082D03*
G54D10*
Y00387582D03*
G54D10*
Y00394082D03*
G54D10*
Y00400582D03*
G54D10*
X-00272Y01461832D03*
G54D10*
Y01468332D03*
G54D10*
Y01474832D03*
G54D10*
Y01481332D03*
G54D10*
Y01487832D03*
G54D10*
Y01494332D03*
G54D10*
Y01500832D03*
G54D10*
Y01507332D03*
G54D10*
Y01513832D03*
G54D10*
Y01520332D03*
G54D10*
X-002772Y01465082D03*
G54D10*
Y01471582D03*
G54D10*
Y01478082D03*
G54D10*
Y01484582D03*
G54D10*
Y01491082D03*
G54D10*
Y01497582D03*
G54D10*
Y01504082D03*
G54D10*
Y01510582D03*
G54D10*
Y01517082D03*
G54D10*
Y01523582D03*
G54D10*
X-002824Y01461832D03*
G54D10*
Y01468332D03*
G54D10*
Y01474832D03*
G54D10*
Y01481332D03*
G54D10*
Y01487832D03*
G54D10*
Y01494332D03*
G54D10*
Y01500832D03*
G54D10*
Y01507332D03*
G54D10*
Y01513832D03*
G54D10*
Y01520332D03*
G54D10*
X-002876Y01465082D03*
G54D10*
Y01471582D03*
G54D10*
Y01478082D03*
G54D10*
Y01484582D03*
G54D10*
Y01491082D03*
G54D10*
Y01497582D03*
G54D10*
Y01504082D03*
G54D10*
Y01510582D03*
G54D10*
Y01517082D03*
G54D10*
Y01523582D03*
G54D10*
X00188Y00338832D03*
G54D10*
Y00345332D03*
G54D10*
Y00351832D03*
G54D10*
Y00358332D03*
G54D10*
Y00364832D03*
G54D10*
Y00371332D03*
G54D10*
Y00377832D03*
G54D10*
Y00384332D03*
G54D10*
Y00390832D03*
G54D10*
Y00397332D03*
G54D10*
X001828Y00342082D03*
G54D10*
Y00348582D03*
G54D10*
Y00355082D03*
G54D10*
Y00361582D03*
G54D10*
Y00368082D03*
G54D10*
Y00374582D03*
G54D10*
Y00381082D03*
G54D10*
Y00387582D03*
G54D10*
Y00394082D03*
G54D10*
Y00400582D03*
G54D10*
X001776Y00338832D03*
G54D10*
Y00345332D03*
G54D10*
Y00351832D03*
G54D10*
Y00358332D03*
G54D10*
Y00364832D03*
G54D10*
Y00371332D03*
G54D10*
Y00377832D03*
G54D10*
Y00384332D03*
G54D10*
Y00390832D03*
G54D10*
Y00397332D03*
G54D10*
X001724Y00342082D03*
G54D10*
Y00348582D03*
G54D10*
Y00355082D03*
G54D10*
Y00361582D03*
G54D10*
Y00368082D03*
G54D10*
Y00374582D03*
G54D10*
Y00381082D03*
G54D10*
Y00387582D03*
G54D10*
Y00394082D03*
G54D10*
Y00400582D03*
G54D10*
X00188Y01461832D03*
G54D10*
Y01468332D03*
G54D10*
Y01474832D03*
G54D10*
Y01481332D03*
G54D10*
Y01487832D03*
G54D10*
Y01494332D03*
G54D10*
Y01500832D03*
G54D10*
Y01507332D03*
G54D10*
Y01513832D03*
G54D10*
Y01520332D03*
G54D10*
X001828Y01465082D03*
G54D10*
Y01471582D03*
G54D10*
Y01478082D03*
G54D10*
Y01484582D03*
G54D10*
Y01491082D03*
G54D10*
Y01497582D03*
G54D10*
Y01504082D03*
G54D10*
Y01510582D03*
G54D10*
Y01517082D03*
G54D10*
Y01523582D03*
G54D10*
X001776Y01461832D03*
G54D10*
Y01468332D03*
G54D10*
Y01474832D03*
G54D10*
Y01481332D03*
G54D10*
Y01487832D03*
G54D10*
Y01494332D03*
G54D10*
Y01500832D03*
G54D10*
Y01507332D03*
G54D10*
Y01513832D03*
G54D10*
Y01520332D03*
G54D10*
X001724Y01465082D03*
G54D10*
Y01471582D03*
G54D10*
Y01478082D03*
G54D10*
Y01484582D03*
G54D10*
Y01491082D03*
G54D10*
Y01497582D03*
G54D10*
Y01504082D03*
G54D10*
Y01510582D03*
G54D10*
Y01517082D03*
G54D10*
Y01523582D03*
G54D10*
X00648Y00338832D03*
G54D10*
Y00345332D03*
G54D10*
Y00351832D03*
G54D10*
Y00358332D03*
G54D10*
Y00364832D03*
G54D10*
Y00371332D03*
G54D10*
Y00377832D03*
G54D10*
Y00384332D03*
G54D10*
Y00390832D03*
G54D10*
Y00397332D03*
G54D10*
X006428Y00342082D03*
G54D10*
Y00348582D03*
G54D10*
Y00355082D03*
G54D10*
Y00361582D03*
G54D10*
Y00368082D03*
G54D10*
Y00374582D03*
G54D10*
Y00381082D03*
G54D10*
Y00387582D03*
G54D10*
Y00394082D03*
G54D10*
Y00400582D03*
G54D10*
X006376Y00338832D03*
G54D10*
Y00345332D03*
G54D10*
Y00351832D03*
G54D10*
Y00358332D03*
G54D10*
Y00364832D03*
G54D10*
Y00371332D03*
G54D10*
Y00377832D03*
G54D10*
Y00384332D03*
G54D10*
Y00390832D03*
G54D10*
Y00397332D03*
G54D10*
X006324Y00342082D03*
G54D10*
Y00348582D03*
G54D10*
Y00355082D03*
G54D10*
Y00361582D03*
G54D10*
Y00368082D03*
G54D10*
Y00374582D03*
G54D10*
Y00381082D03*
G54D10*
Y00387582D03*
G54D10*
Y00394082D03*
G54D10*
Y00400582D03*
G54D10*
X00648Y01461832D03*
G54D10*
Y01468332D03*
G54D10*
Y01474832D03*
G54D10*
Y01481332D03*
G54D10*
Y01487832D03*
G54D10*
Y01494332D03*
G54D10*
Y01500832D03*
G54D10*
Y01507332D03*
G54D10*
Y01513832D03*
G54D10*
Y01520332D03*
G54D10*
X006428Y01465082D03*
G54D10*
Y01471582D03*
G54D10*
Y01478082D03*
G54D10*
Y01484582D03*
G54D10*
Y01491082D03*
G54D10*
Y01497582D03*
G54D10*
Y01504082D03*
G54D10*
Y01510582D03*
G54D10*
Y01517082D03*
G54D10*
Y01523582D03*
G54D10*
X006376Y01461832D03*
G54D10*
Y01468332D03*
G54D10*
Y01474832D03*
G54D10*
Y01481332D03*
G54D10*
Y01487832D03*
G54D10*
Y01494332D03*
G54D10*
Y01500832D03*
G54D10*
Y01507332D03*
G54D10*
Y01513832D03*
G54D10*
Y01520332D03*
G54D10*
X006324Y01465082D03*
G54D10*
Y01471582D03*
G54D10*
Y01478082D03*
G54D10*
Y01484582D03*
G54D10*
Y01491082D03*
G54D10*
Y01497582D03*
G54D10*
Y01504082D03*
G54D10*
Y01510582D03*
G54D10*
Y01517082D03*
G54D10*
Y01523582D03*
G54D11*
X010323946Y017349652D03*
Y017549652D03*
Y017749652D03*
Y017949652D03*
X000259182Y020943037D03*
X000459182D03*
X000659182D03*
X000859182D03*
X007092818Y-002025037D03*
X006892818D03*
X006692818D03*
X006492818D03*
X000364115Y02104837D03*
X000484115D03*
X000604115D03*
X000724115D03*
X010192114Y017749825D03*
Y017869825D03*
Y017989825D03*
Y018109825D03*
X006987884Y-00213037D03*
X006867884D03*
X006747884D03*
X006627884D03*
X-002840114Y001168175D03*
Y001048175D03*
Y000928175D03*
Y000808175D03*
G54D12*
X-00307743Y02074219D03*
X-00173962Y-0017414D03*
X00025133Y01195988D03*
X00710067Y00695812D03*
X010252932Y019237245D03*
X01042943Y-00182419D03*
G54D13*
X010008169Y020114572D03*
X-002201249Y021058607D03*
X009553249Y-002140607D03*
X-00207646Y-001798226D03*
G54D11*
X-002971946Y001568348D03*
Y001368348D03*
Y001168348D03*
Y000968348D03*
G54D10*
X013422Y00594768D03*
G54D10*
Y00588268D03*
G54D10*
Y00581768D03*
G54D10*
Y00575268D03*
G54D10*
Y00568768D03*
G54D10*
Y00562268D03*
G54D10*
Y00555768D03*
G54D10*
Y00549268D03*
G54D10*
Y00542768D03*
G54D10*
Y00536268D03*
G54D10*
X013474Y00591518D03*
G54D10*
Y00585018D03*
G54D10*
Y00578518D03*
G54D10*
Y00572018D03*
G54D10*
Y00565518D03*
G54D10*
Y00559018D03*
G54D10*
Y00552518D03*
G54D10*
Y00546018D03*
G54D10*
Y00539518D03*
G54D10*
Y00533018D03*
G54D10*
X013526Y00594768D03*
G54D10*
Y00588268D03*
G54D10*
Y00581768D03*
G54D10*
Y00575268D03*
G54D10*
Y00568768D03*
G54D10*
Y00562268D03*
G54D10*
Y00555768D03*
G54D10*
Y00549268D03*
G54D10*
Y00542768D03*
G54D10*
Y00536268D03*
G54D10*
X013578Y00591518D03*
G54D10*
Y00585018D03*
G54D10*
Y00578518D03*
G54D10*
Y00572018D03*
G54D10*
Y00565518D03*
G54D10*
Y00559018D03*
G54D10*
Y00552518D03*
G54D10*
Y00546018D03*
G54D10*
Y00539518D03*
G54D10*
Y00533018D03*
G54D10*
X013422Y01717768D03*
G54D10*
Y01711268D03*
G54D10*
Y01704768D03*
G54D10*
Y01698268D03*
G54D10*
Y01691768D03*
G54D10*
Y01685268D03*
G54D10*
Y01678768D03*
G54D10*
Y01672268D03*
G54D10*
Y01665768D03*
G54D10*
Y01659268D03*
G54D10*
X013474Y01714518D03*
G54D10*
Y01708018D03*
G54D10*
Y01701518D03*
G54D10*
Y01695018D03*
G54D10*
Y01688518D03*
G54D10*
Y01682018D03*
G54D10*
Y01675518D03*
G54D10*
Y01669018D03*
G54D10*
Y01662518D03*
G54D10*
Y01656018D03*
G54D10*
X013526Y01717768D03*
G54D10*
Y01711268D03*
G54D10*
Y01704768D03*
G54D10*
Y01698268D03*
G54D10*
Y01691768D03*
G54D10*
Y01685268D03*
G54D10*
Y01678768D03*
G54D10*
Y01672268D03*
G54D10*
Y01665768D03*
G54D10*
Y01659268D03*
G54D10*
X013578Y01714518D03*
G54D10*
Y01708018D03*
G54D10*
Y01701518D03*
G54D10*
Y01695018D03*
G54D10*
Y01688518D03*
G54D10*
Y01682018D03*
G54D10*
Y01675518D03*
G54D10*
Y01669018D03*
G54D10*
Y01662518D03*
G54D10*
Y01656018D03*
G54D10*
X018022Y00594768D03*
G54D10*
Y00588268D03*
G54D10*
Y00581768D03*
G54D10*
Y00575268D03*
G54D10*
Y00568768D03*
G54D10*
Y00562268D03*
G54D10*
Y00555768D03*
G54D10*
Y00549268D03*
G54D10*
Y00542768D03*
G54D10*
Y00536268D03*
G54D10*
X018074Y00591518D03*
G54D10*
Y00585018D03*
G54D10*
Y00578518D03*
G54D10*
Y00572018D03*
G54D10*
Y00565518D03*
G54D10*
Y00559018D03*
G54D10*
Y00552518D03*
G54D10*
Y00546018D03*
G54D10*
Y00539518D03*
G54D10*
Y00533018D03*
G54D10*
X018126Y00594768D03*
G54D10*
Y00588268D03*
G54D10*
Y00581768D03*
G54D10*
Y00575268D03*
G54D10*
Y00568768D03*
G54D10*
Y00562268D03*
G54D10*
Y00555768D03*
G54D10*
Y00549268D03*
G54D10*
Y00542768D03*
G54D10*
Y00536268D03*
G54D10*
X018178Y00591518D03*
G54D10*
Y00585018D03*
G54D10*
Y00578518D03*
G54D10*
Y00572018D03*
G54D10*
Y00565518D03*
G54D10*
Y00559018D03*
G54D10*
Y00552518D03*
G54D10*
Y00546018D03*
G54D10*
Y00539518D03*
G54D10*
Y00533018D03*
G54D10*
X018022Y01717768D03*
G54D10*
Y01711268D03*
G54D10*
Y01704768D03*
G54D10*
Y01698268D03*
G54D10*
Y01691768D03*
G54D10*
Y01685268D03*
G54D10*
Y01678768D03*
G54D10*
Y01672268D03*
G54D10*
Y01665768D03*
G54D10*
Y01659268D03*
G54D10*
X018074Y01714518D03*
G54D10*
Y01708018D03*
G54D10*
Y01701518D03*
G54D10*
Y01695018D03*
G54D10*
Y01688518D03*
G54D10*
Y01682018D03*
G54D10*
Y01675518D03*
G54D10*
Y01669018D03*
G54D10*
Y01662518D03*
G54D10*
Y01656018D03*
G54D10*
X018126Y01717768D03*
G54D10*
Y01711268D03*
G54D10*
Y01704768D03*
G54D10*
Y01698268D03*
G54D10*
Y01691768D03*
G54D10*
Y01685268D03*
G54D10*
Y01678768D03*
G54D10*
Y01672268D03*
G54D10*
Y01665768D03*
G54D10*
Y01659268D03*
G54D10*
X018178Y01714518D03*
G54D10*
Y01708018D03*
G54D10*
Y01701518D03*
G54D10*
Y01695018D03*
G54D10*
Y01688518D03*
G54D10*
Y01682018D03*
G54D10*
Y01675518D03*
G54D10*
Y01669018D03*
G54D10*
Y01662518D03*
G54D10*
Y01656018D03*
G54D10*
X022622Y00594768D03*
G54D10*
Y00588268D03*
G54D10*
Y00581768D03*
G54D10*
Y00575268D03*
G54D10*
Y00568768D03*
G54D10*
Y00562268D03*
G54D10*
Y00555768D03*
G54D10*
Y00549268D03*
G54D10*
Y00542768D03*
G54D10*
Y00536268D03*
G54D10*
X022674Y00591518D03*
G54D10*
Y00585018D03*
G54D10*
Y00578518D03*
G54D10*
Y00572018D03*
G54D10*
Y00565518D03*
G54D10*
Y00559018D03*
G54D10*
Y00552518D03*
G54D10*
Y00546018D03*
G54D10*
Y00539518D03*
G54D10*
Y00533018D03*
G54D10*
X022726Y00594768D03*
G54D10*
Y00588268D03*
G54D10*
Y00581768D03*
G54D10*
Y00575268D03*
G54D10*
Y00568768D03*
G54D10*
Y00562268D03*
G54D10*
Y00555768D03*
G54D10*
Y00549268D03*
G54D10*
Y00542768D03*
G54D10*
Y00536268D03*
G54D10*
X022778Y00591518D03*
G54D10*
Y00585018D03*
G54D10*
Y00578518D03*
G54D10*
Y00572018D03*
G54D10*
Y00565518D03*
G54D10*
Y00559018D03*
G54D10*
Y00552518D03*
G54D10*
Y00546018D03*
G54D10*
Y00539518D03*
G54D10*
Y00533018D03*
G54D10*
X022622Y01717768D03*
G54D10*
Y01711268D03*
G54D10*
Y01704768D03*
G54D10*
Y01698268D03*
G54D10*
Y01691768D03*
G54D10*
Y01685268D03*
G54D10*
Y01678768D03*
G54D10*
Y01672268D03*
G54D10*
Y01665768D03*
G54D10*
Y01659268D03*
G54D10*
X022674Y01714518D03*
G54D10*
Y01708018D03*
G54D10*
Y01701518D03*
G54D10*
Y01695018D03*
G54D10*
Y01688518D03*
G54D10*
Y01682018D03*
G54D10*
Y01675518D03*
G54D10*
Y01669018D03*
G54D10*
Y01662518D03*
G54D10*
Y01656018D03*
G54D10*
X022726Y01717768D03*
G54D10*
Y01711268D03*
G54D10*
Y01704768D03*
G54D10*
Y01698268D03*
G54D10*
Y01691768D03*
G54D10*
Y01685268D03*
G54D10*
Y01678768D03*
G54D10*
Y01672268D03*
G54D10*
Y01665768D03*
G54D10*
Y01659268D03*
G54D10*
X022778Y01714518D03*
G54D10*
Y01708018D03*
G54D10*
Y01701518D03*
G54D10*
Y01695018D03*
G54D10*
Y01688518D03*
G54D10*
Y01682018D03*
G54D10*
Y01675518D03*
G54D10*
Y01669018D03*
G54D10*
Y01662518D03*
G54D10*
Y01656018D03*
G54D10*
X01233Y00174032D03*
G54D10*
Y00180532D03*
G54D10*
Y00187032D03*
G54D10*
Y00193532D03*
G54D10*
Y00200032D03*
G54D10*
Y00206532D03*
G54D10*
Y00213032D03*
G54D10*
Y00219532D03*
G54D10*
Y00226032D03*
G54D10*
Y00232532D03*
G54D10*
X012278Y00177282D03*
G54D10*
Y00183782D03*
G54D10*
Y00190282D03*
G54D10*
Y00196782D03*
G54D10*
Y00203282D03*
G54D10*
Y00209782D03*
G54D10*
Y00216282D03*
G54D10*
Y00222782D03*
G54D10*
Y00229282D03*
G54D10*
Y00235782D03*
G54D10*
X012226Y00174032D03*
G54D10*
Y00180532D03*
G54D10*
Y00187032D03*
G54D10*
Y00193532D03*
G54D10*
Y00200032D03*
G54D10*
Y00206532D03*
G54D10*
Y00213032D03*
G54D10*
Y00219532D03*
G54D10*
Y00226032D03*
G54D10*
Y00232532D03*
G54D10*
X012174Y00177282D03*
G54D10*
Y00183782D03*
G54D10*
Y00190282D03*
G54D10*
Y00196782D03*
G54D10*
Y00203282D03*
G54D10*
Y00209782D03*
G54D10*
Y00216282D03*
G54D10*
Y00222782D03*
G54D10*
Y00229282D03*
G54D10*
Y00235782D03*
G54D10*
X01233Y01297032D03*
G54D10*
Y01303532D03*
G54D10*
Y01310032D03*
G54D10*
Y01316532D03*
G54D10*
Y01323032D03*
G54D10*
Y01329532D03*
G54D10*
Y01336032D03*
G54D10*
Y01342532D03*
G54D10*
Y01349032D03*
G54D10*
Y01355532D03*
G54D10*
X012278Y01300282D03*
G54D10*
Y01306782D03*
G54D10*
Y01313282D03*
G54D10*
Y01319782D03*
G54D10*
Y01326282D03*
G54D10*
Y01332782D03*
G54D10*
Y01339282D03*
G54D10*
Y01345782D03*
G54D10*
Y01352282D03*
G54D10*
Y01358782D03*
G54D10*
X012226Y01297032D03*
G54D10*
Y01303532D03*
G54D10*
Y01310032D03*
G54D10*
Y01316532D03*
G54D10*
Y01323032D03*
G54D10*
Y01329532D03*
G54D10*
Y01336032D03*
G54D10*
Y01342532D03*
G54D10*
Y01349032D03*
G54D10*
Y01355532D03*
G54D10*
X012174Y01300282D03*
G54D10*
Y01306782D03*
G54D10*
Y01313282D03*
G54D10*
Y01319782D03*
G54D10*
Y01326282D03*
G54D10*
Y01332782D03*
G54D10*
Y01339282D03*
G54D10*
Y01345782D03*
G54D10*
Y01352282D03*
G54D10*
Y01358782D03*
G54D10*
X01693Y00174032D03*
G54D10*
Y00180532D03*
G54D10*
Y00187032D03*
G54D10*
Y00193532D03*
G54D10*
Y00200032D03*
G54D10*
Y00206532D03*
G54D10*
Y00213032D03*
G54D10*
Y00219532D03*
G54D10*
Y00226032D03*
G54D10*
Y00232532D03*
G54D10*
X016878Y00177282D03*
G54D10*
Y00183782D03*
G54D10*
Y00190282D03*
G54D10*
Y00196782D03*
G54D10*
Y00203282D03*
G54D10*
Y00209782D03*
G54D10*
Y00216282D03*
G54D10*
Y00222782D03*
G54D10*
Y00229282D03*
G54D10*
Y00235782D03*
G54D10*
X016826Y00174032D03*
G54D10*
Y00180532D03*
G54D10*
Y00187032D03*
G54D10*
Y00193532D03*
G54D10*
Y00200032D03*
G54D10*
Y00206532D03*
G54D10*
Y00213032D03*
G54D10*
Y00219532D03*
G54D10*
Y00226032D03*
G54D10*
Y00232532D03*
G54D10*
X016774Y00177282D03*
G54D10*
Y00183782D03*
G54D10*
Y00190282D03*
G54D10*
Y00196782D03*
G54D10*
Y00203282D03*
G54D10*
Y00209782D03*
G54D10*
Y00216282D03*
G54D10*
Y00222782D03*
G54D10*
Y00229282D03*
G54D10*
Y00235782D03*
G54D10*
X01693Y01297032D03*
G54D10*
Y01303532D03*
G54D10*
Y01310032D03*
G54D10*
Y01316532D03*
G54D10*
Y01323032D03*
G54D10*
Y01329532D03*
G54D10*
Y01336032D03*
G54D10*
Y01342532D03*
G54D10*
Y01349032D03*
G54D10*
Y01355532D03*
G54D10*
X016878Y01300282D03*
G54D10*
Y01306782D03*
G54D10*
Y01313282D03*
G54D10*
Y01319782D03*
G54D10*
Y01326282D03*
G54D10*
Y01332782D03*
G54D10*
Y01339282D03*
G54D10*
Y01345782D03*
G54D10*
Y01352282D03*
G54D10*
Y01358782D03*
G54D10*
X016826Y01297032D03*
G54D10*
Y01303532D03*
G54D10*
Y01310032D03*
G54D10*
Y01316532D03*
G54D10*
Y01323032D03*
G54D10*
Y01329532D03*
G54D10*
Y01336032D03*
G54D10*
Y01342532D03*
G54D10*
Y01349032D03*
G54D10*
Y01355532D03*
G54D10*
X016774Y01300282D03*
G54D10*
Y01306782D03*
G54D10*
Y01313282D03*
G54D10*
Y01319782D03*
G54D10*
Y01326282D03*
G54D10*
Y01332782D03*
G54D10*
Y01339282D03*
G54D10*
Y01345782D03*
G54D10*
Y01352282D03*
G54D10*
Y01358782D03*
G54D10*
X02153Y00174032D03*
G54D10*
Y00180532D03*
G54D10*
Y00187032D03*
G54D10*
Y00193532D03*
G54D10*
Y00200032D03*
G54D10*
Y00206532D03*
G54D10*
Y00213032D03*
G54D10*
Y00219532D03*
G54D10*
Y00226032D03*
G54D10*
Y00232532D03*
G54D10*
X021478Y00177282D03*
G54D10*
Y00183782D03*
G54D10*
Y00190282D03*
G54D10*
Y00196782D03*
G54D10*
Y00203282D03*
G54D10*
Y00209782D03*
G54D10*
Y00216282D03*
G54D10*
Y00222782D03*
G54D10*
Y00229282D03*
G54D10*
Y00235782D03*
G54D10*
X021426Y00174032D03*
G54D10*
Y00180532D03*
G54D10*
Y00187032D03*
G54D10*
Y00193532D03*
G54D10*
Y00200032D03*
G54D10*
Y00206532D03*
G54D10*
Y00213032D03*
G54D10*
Y00219532D03*
G54D10*
Y00226032D03*
G54D10*
Y00232532D03*
G54D10*
X021374Y00177282D03*
G54D10*
Y00183782D03*
G54D10*
Y00190282D03*
G54D10*
Y00196782D03*
G54D10*
Y00203282D03*
G54D10*
Y00209782D03*
G54D10*
Y00216282D03*
G54D10*
Y00222782D03*
G54D10*
Y00229282D03*
G54D10*
Y00235782D03*
G54D10*
X02153Y01297032D03*
G54D10*
Y01303532D03*
G54D10*
Y01310032D03*
G54D10*
Y01316532D03*
G54D10*
Y01323032D03*
G54D10*
Y01329532D03*
G54D10*
Y01336032D03*
G54D10*
Y01342532D03*
G54D10*
Y01349032D03*
G54D10*
Y01355532D03*
G54D10*
X021478Y01300282D03*
G54D10*
Y01306782D03*
G54D10*
Y01313282D03*
G54D10*
Y01319782D03*
G54D10*
Y01326282D03*
G54D10*
Y01332782D03*
G54D10*
Y01339282D03*
G54D10*
Y01345782D03*
G54D10*
Y01352282D03*
G54D10*
Y01358782D03*
G54D10*
X021426Y01297032D03*
G54D10*
Y01303532D03*
G54D10*
Y01310032D03*
G54D10*
Y01316532D03*
G54D10*
Y01323032D03*
G54D10*
Y01329532D03*
G54D10*
Y01336032D03*
G54D10*
Y01342532D03*
G54D10*
Y01349032D03*
G54D10*
Y01355532D03*
G54D10*
X021374Y01300282D03*
G54D10*
Y01306782D03*
G54D10*
Y01313282D03*
G54D10*
Y01319782D03*
G54D10*
Y01326282D03*
G54D10*
Y01332782D03*
G54D10*
Y01339282D03*
G54D10*
Y01345782D03*
G54D10*
Y01352282D03*
G54D10*
Y01358782D03*
G54D10*
X014672Y00429968D03*
G54D10*
Y00423468D03*
G54D10*
Y00416968D03*
G54D10*
Y00410468D03*
G54D10*
Y00403968D03*
G54D10*
Y00397468D03*
G54D10*
Y00390968D03*
G54D10*
Y00384468D03*
G54D10*
Y00377968D03*
G54D10*
Y00371468D03*
G54D10*
X014724Y00426718D03*
G54D10*
Y00420218D03*
G54D10*
Y00413718D03*
G54D10*
Y00407218D03*
G54D10*
Y00400718D03*
G54D10*
Y00394218D03*
G54D10*
Y00387718D03*
G54D10*
Y00381218D03*
G54D10*
Y00374718D03*
G54D10*
Y00368218D03*
G54D10*
X014776Y00429968D03*
G54D10*
Y00423468D03*
G54D10*
Y00416968D03*
G54D10*
Y00410468D03*
G54D10*
Y00403968D03*
G54D10*
Y00397468D03*
G54D10*
Y00390968D03*
G54D10*
Y00384468D03*
G54D10*
Y00377968D03*
G54D10*
Y00371468D03*
G54D10*
X014828Y00426718D03*
G54D10*
Y00420218D03*
G54D10*
Y00413718D03*
G54D10*
Y00407218D03*
G54D10*
Y00400718D03*
G54D10*
Y00394218D03*
G54D10*
Y00387718D03*
G54D10*
Y00381218D03*
G54D10*
Y00374718D03*
G54D10*
Y00368218D03*
G54D10*
X014672Y01552968D03*
G54D10*
Y01546468D03*
G54D10*
Y01539968D03*
G54D10*
Y01533468D03*
G54D10*
Y01526968D03*
G54D10*
Y01520468D03*
G54D10*
Y01513968D03*
G54D10*
Y01507468D03*
G54D10*
Y01500968D03*
G54D10*
Y01494468D03*
G54D10*
X014724Y01549718D03*
G54D10*
Y01543218D03*
G54D10*
Y01536718D03*
G54D10*
Y01530218D03*
G54D10*
Y01523718D03*
G54D10*
Y01517218D03*
G54D10*
Y01510718D03*
G54D10*
Y01504218D03*
G54D10*
Y01497718D03*
G54D10*
Y01491218D03*
G54D10*
X014776Y01552968D03*
G54D10*
Y01546468D03*
G54D10*
Y01539968D03*
G54D10*
Y01533468D03*
G54D10*
Y01526968D03*
G54D10*
Y01520468D03*
G54D10*
Y01513968D03*
G54D10*
Y01507468D03*
G54D10*
Y01500968D03*
G54D10*
Y01494468D03*
G54D10*
X014828Y01549718D03*
G54D10*
Y01543218D03*
G54D10*
Y01536718D03*
G54D10*
Y01530218D03*
G54D10*
Y01523718D03*
G54D10*
Y01517218D03*
G54D10*
Y01510718D03*
G54D10*
Y01504218D03*
G54D10*
Y01497718D03*
G54D10*
Y01491218D03*
G54D10*
X019272Y00429968D03*
G54D10*
Y00423468D03*
G54D10*
Y00416968D03*
G54D10*
Y00410468D03*
G54D10*
Y00403968D03*
G54D10*
Y00397468D03*
G54D10*
Y00390968D03*
G54D10*
Y00384468D03*
G54D10*
Y00377968D03*
G54D10*
Y00371468D03*
G54D10*
X019324Y00426718D03*
G54D10*
Y00420218D03*
G54D10*
Y00413718D03*
G54D10*
Y00407218D03*
G54D10*
Y00400718D03*
G54D10*
Y00394218D03*
G54D10*
Y00387718D03*
G54D10*
Y00381218D03*
G54D10*
Y00374718D03*
G54D10*
Y00368218D03*
G54D10*
X019376Y00429968D03*
G54D10*
Y00423468D03*
G54D10*
Y00416968D03*
G54D10*
Y00410468D03*
G54D10*
Y00403968D03*
G54D10*
Y00397468D03*
G54D10*
Y00390968D03*
G54D10*
Y00384468D03*
G54D10*
Y00377968D03*
G54D10*
Y00371468D03*
G54D10*
X019428Y00426718D03*
G54D10*
Y00420218D03*
G54D10*
Y00413718D03*
G54D10*
Y00407218D03*
G54D10*
Y00400718D03*
G54D10*
Y00394218D03*
G54D10*
Y00387718D03*
G54D10*
Y00381218D03*
G54D10*
Y00374718D03*
G54D10*
Y00368218D03*
G54D10*
X019272Y01552968D03*
G54D10*
Y01546468D03*
G54D10*
Y01539968D03*
G54D10*
Y01533468D03*
G54D10*
Y01526968D03*
G54D10*
Y01520468D03*
G54D10*
Y01513968D03*
G54D10*
Y01507468D03*
G54D10*
Y01500968D03*
G54D10*
Y01494468D03*
G54D10*
X019324Y01549718D03*
G54D10*
Y01543218D03*
G54D10*
Y01536718D03*
G54D10*
Y01530218D03*
G54D10*
Y01523718D03*
G54D10*
Y01517218D03*
G54D10*
Y01510718D03*
G54D10*
Y01504218D03*
G54D10*
Y01497718D03*
G54D10*
Y01491218D03*
G54D10*
X019376Y01552968D03*
G54D10*
Y01546468D03*
G54D10*
Y01539968D03*
G54D10*
Y01533468D03*
G54D10*
Y01526968D03*
G54D10*
Y01520468D03*
G54D10*
Y01513968D03*
G54D10*
Y01507468D03*
G54D10*
Y01500968D03*
G54D10*
Y01494468D03*
G54D10*
X019428Y01549718D03*
G54D10*
Y01543218D03*
G54D10*
Y01536718D03*
G54D10*
Y01530218D03*
G54D10*
Y01523718D03*
G54D10*
Y01517218D03*
G54D10*
Y01510718D03*
G54D10*
Y01504218D03*
G54D10*
Y01497718D03*
G54D10*
Y01491218D03*
G54D10*
X023872Y00429968D03*
G54D10*
Y00423468D03*
G54D10*
Y00416968D03*
G54D10*
Y00410468D03*
G54D10*
Y00403968D03*
G54D10*
Y00397468D03*
G54D10*
Y00390968D03*
G54D10*
Y00384468D03*
G54D10*
Y00377968D03*
G54D10*
Y00371468D03*
G54D10*
X023924Y00426718D03*
G54D10*
Y00420218D03*
G54D10*
Y00413718D03*
G54D10*
Y00407218D03*
G54D10*
Y00400718D03*
G54D10*
Y00394218D03*
G54D10*
Y00387718D03*
G54D10*
Y00381218D03*
G54D10*
Y00374718D03*
G54D10*
Y00368218D03*
G54D10*
X023976Y00429968D03*
G54D10*
Y00423468D03*
G54D10*
Y00416968D03*
G54D10*
Y00410468D03*
G54D10*
Y00403968D03*
G54D10*
Y00397468D03*
G54D10*
Y00390968D03*
G54D10*
Y00384468D03*
G54D10*
Y00377968D03*
G54D10*
Y00371468D03*
G54D10*
X024028Y00426718D03*
G54D10*
Y00420218D03*
G54D10*
Y00413718D03*
G54D10*
Y00407218D03*
G54D10*
Y00400718D03*
G54D10*
Y00394218D03*
G54D10*
Y00387718D03*
G54D10*
Y00381218D03*
G54D10*
Y00374718D03*
G54D10*
Y00368218D03*
G54D10*
X023872Y01552968D03*
G54D10*
Y01546468D03*
G54D10*
Y01539968D03*
G54D10*
Y01533468D03*
G54D10*
Y01526968D03*
G54D10*
Y01520468D03*
G54D10*
Y01513968D03*
G54D10*
Y01507468D03*
G54D10*
Y01500968D03*
G54D10*
Y01494468D03*
G54D10*
X023924Y01549718D03*
G54D10*
Y01543218D03*
G54D10*
Y01536718D03*
G54D10*
Y01530218D03*
G54D10*
Y01523718D03*
G54D10*
Y01517218D03*
G54D10*
Y01510718D03*
G54D10*
Y01504218D03*
G54D10*
Y01497718D03*
G54D10*
Y01491218D03*
G54D10*
X023976Y01552968D03*
G54D10*
Y01546468D03*
G54D10*
Y01539968D03*
G54D10*
Y01533468D03*
G54D10*
Y01526968D03*
G54D10*
Y01520468D03*
G54D10*
Y01513968D03*
G54D10*
Y01507468D03*
G54D10*
Y01500968D03*
G54D10*
Y01494468D03*
G54D10*
X024028Y01549718D03*
G54D10*
Y01543218D03*
G54D10*
Y01536718D03*
G54D10*
Y01530218D03*
G54D10*
Y01523718D03*
G54D10*
Y01517218D03*
G54D10*
Y01510718D03*
G54D10*
Y01504218D03*
G54D10*
Y01497718D03*
G54D10*
Y01491218D03*
G54D10*
X01108Y00338832D03*
G54D10*
Y00345332D03*
G54D10*
Y00351832D03*
G54D10*
Y00358332D03*
G54D10*
Y00364832D03*
G54D10*
Y00371332D03*
G54D10*
Y00377832D03*
G54D10*
Y00384332D03*
G54D10*
Y00390832D03*
G54D10*
Y00397332D03*
G54D10*
X011028Y00342082D03*
G54D10*
Y00348582D03*
G54D10*
Y00355082D03*
G54D10*
Y00361582D03*
G54D10*
Y00368082D03*
G54D10*
Y00374582D03*
G54D10*
Y00381082D03*
G54D10*
Y00387582D03*
G54D10*
Y00394082D03*
G54D10*
Y00400582D03*
G54D10*
X010976Y00338832D03*
G54D10*
Y00345332D03*
G54D10*
Y00351832D03*
G54D10*
Y00358332D03*
G54D10*
Y00364832D03*
G54D10*
Y00371332D03*
G54D10*
Y00377832D03*
G54D10*
Y00384332D03*
G54D10*
Y00390832D03*
G54D10*
Y00397332D03*
G54D10*
X010924Y00342082D03*
G54D10*
Y00348582D03*
G54D10*
Y00355082D03*
G54D10*
Y00361582D03*
G54D10*
Y00368082D03*
G54D10*
Y00374582D03*
G54D10*
Y00381082D03*
G54D10*
Y00387582D03*
G54D10*
Y00394082D03*
G54D10*
Y00400582D03*
G54D10*
X01108Y01461832D03*
G54D10*
Y01468332D03*
G54D10*
Y01474832D03*
G54D10*
Y01481332D03*
G54D10*
Y01487832D03*
G54D10*
Y01494332D03*
G54D10*
Y01500832D03*
G54D10*
Y01507332D03*
G54D10*
Y01513832D03*
G54D10*
Y01520332D03*
G54D10*
X011028Y01465082D03*
G54D10*
Y01471582D03*
G54D10*
Y01478082D03*
G54D10*
Y01484582D03*
G54D10*
Y01491082D03*
G54D10*
Y01497582D03*
G54D10*
Y01504082D03*
G54D10*
Y01510582D03*
G54D10*
Y01517082D03*
G54D10*
Y01523582D03*
G54D10*
X010976Y01461832D03*
G54D10*
Y01468332D03*
G54D10*
Y01474832D03*
G54D10*
Y01481332D03*
G54D10*
Y01487832D03*
G54D10*
Y01494332D03*
G54D10*
Y01500832D03*
G54D10*
Y01507332D03*
G54D10*
Y01513832D03*
G54D10*
Y01520332D03*
G54D10*
X010924Y01465082D03*
G54D10*
Y01471582D03*
G54D10*
Y01478082D03*
G54D10*
Y01484582D03*
G54D10*
Y01491082D03*
G54D10*
Y01497582D03*
G54D10*
Y01504082D03*
G54D10*
Y01510582D03*
G54D10*
Y01517082D03*
G54D10*
Y01523582D03*
G54D10*
X01568Y00338832D03*
G54D10*
Y00345332D03*
G54D10*
Y00351832D03*
G54D10*
Y00358332D03*
G54D10*
Y00364832D03*
G54D10*
Y00371332D03*
G54D10*
Y00377832D03*
G54D10*
Y00384332D03*
G54D10*
Y00390832D03*
G54D10*
Y00397332D03*
G54D10*
X015628Y00342082D03*
G54D10*
Y00348582D03*
G54D10*
Y00355082D03*
G54D10*
Y00361582D03*
G54D10*
Y00368082D03*
G54D10*
Y00374582D03*
G54D10*
Y00381082D03*
G54D10*
Y00387582D03*
G54D10*
Y00394082D03*
G54D10*
Y00400582D03*
G54D10*
X015576Y00338832D03*
G54D10*
Y00345332D03*
G54D10*
Y00351832D03*
G54D10*
Y00358332D03*
G54D10*
Y00364832D03*
G54D10*
Y00371332D03*
G54D10*
Y00377832D03*
G54D10*
Y00384332D03*
G54D10*
Y00390832D03*
G54D10*
Y00397332D03*
G54D10*
X015524Y00342082D03*
G54D10*
Y00348582D03*
G54D10*
Y00355082D03*
G54D10*
Y00361582D03*
G54D10*
Y00368082D03*
G54D10*
Y00374582D03*
G54D10*
Y00381082D03*
G54D10*
Y00387582D03*
G54D10*
Y00394082D03*
G54D10*
Y00400582D03*
G54D10*
X01568Y01461832D03*
G54D10*
Y01468332D03*
G54D10*
Y01474832D03*
G54D10*
Y01481332D03*
G54D10*
Y01487832D03*
G54D10*
Y01494332D03*
G54D10*
Y01500832D03*
G54D10*
Y01507332D03*
G54D10*
Y01513832D03*
G54D10*
Y01520332D03*
G54D10*
X015628Y01465082D03*
G54D10*
Y01471582D03*
G54D10*
Y01478082D03*
G54D10*
Y01484582D03*
G54D10*
Y01491082D03*
G54D10*
Y01497582D03*
G54D10*
Y01504082D03*
G54D10*
Y01510582D03*
G54D10*
Y01517082D03*
G54D10*
Y01523582D03*
G54D10*
X015576Y01461832D03*
G54D10*
Y01468332D03*
G54D10*
Y01474832D03*
G54D10*
Y01481332D03*
G54D10*
Y01487832D03*
G54D10*
Y01494332D03*
G54D10*
Y01500832D03*
G54D10*
Y01507332D03*
G54D10*
Y01513832D03*
G54D10*
Y01520332D03*
G54D10*
X015524Y01465082D03*
G54D10*
Y01471582D03*
G54D10*
Y01478082D03*
G54D10*
Y01484582D03*
G54D10*
Y01491082D03*
G54D10*
Y01497582D03*
G54D10*
Y01504082D03*
G54D10*
Y01510582D03*
G54D10*
Y01517082D03*
G54D10*
Y01523582D03*
G54D10*
X02028Y00338832D03*
G54D10*
Y00345332D03*
G54D10*
Y00351832D03*
G54D10*
Y00358332D03*
G54D10*
Y00364832D03*
G54D10*
Y00371332D03*
G54D10*
Y00377832D03*
G54D10*
Y00384332D03*
G54D10*
Y00390832D03*
G54D10*
Y00397332D03*
G54D10*
X020228Y00342082D03*
G54D10*
Y00348582D03*
G54D10*
Y00355082D03*
G54D10*
Y00361582D03*
G54D10*
Y00368082D03*
G54D10*
Y00374582D03*
G54D10*
Y00381082D03*
G54D10*
Y00387582D03*
G54D10*
Y00394082D03*
G54D10*
Y00400582D03*
G54D10*
X020176Y00338832D03*
G54D10*
Y00345332D03*
G54D10*
Y00351832D03*
G54D10*
Y00358332D03*
G54D10*
Y00364832D03*
G54D10*
Y00371332D03*
G54D10*
Y00377832D03*
G54D10*
Y00384332D03*
G54D10*
Y00390832D03*
G54D10*
Y00397332D03*
G54D10*
X020124Y00342082D03*
G54D10*
Y00348582D03*
G54D10*
Y00355082D03*
G54D10*
Y00361582D03*
G54D10*
Y00368082D03*
G54D10*
Y00374582D03*
G54D10*
Y00381082D03*
G54D10*
Y00387582D03*
G54D10*
Y00394082D03*
G54D10*
Y00400582D03*
G54D10*
X02028Y01461832D03*
G54D10*
Y01468332D03*
G54D10*
Y01474832D03*
G54D10*
Y01481332D03*
G54D10*
Y01487832D03*
G54D10*
Y01494332D03*
G54D10*
Y01500832D03*
G54D10*
Y01507332D03*
G54D10*
Y01513832D03*
G54D10*
Y01520332D03*
G54D10*
X020228Y01465082D03*
G54D10*
Y01471582D03*
G54D10*
Y01478082D03*
G54D10*
Y01484582D03*
G54D10*
Y01491082D03*
G54D10*
Y01497582D03*
G54D10*
Y01504082D03*
G54D10*
Y01510582D03*
G54D10*
Y01517082D03*
G54D10*
Y01523582D03*
G54D10*
X020176Y01461832D03*
G54D10*
Y01468332D03*
G54D10*
Y01474832D03*
G54D10*
Y01481332D03*
G54D10*
Y01487832D03*
G54D10*
Y01494332D03*
G54D10*
Y01500832D03*
G54D10*
Y01507332D03*
G54D10*
Y01513832D03*
G54D10*
Y01520332D03*
G54D10*
X020124Y01465082D03*
G54D10*
Y01471582D03*
G54D10*
Y01478082D03*
G54D10*
Y01484582D03*
G54D10*
Y01491082D03*
G54D10*
Y01497582D03*
G54D10*
Y01504082D03*
G54D10*
Y01510582D03*
G54D10*
Y01517082D03*
G54D10*
Y01523582D03*
G54D11*
X024123946Y017349652D03*
Y017549652D03*
Y017749652D03*
Y017949652D03*
X014059182Y020943037D03*
X014259182D03*
X014459182D03*
X014659182D03*
X020892818Y-002025037D03*
X020692818D03*
X020492818D03*
X020292818D03*
X014164115Y02104837D03*
X014284115D03*
X014404115D03*
X014524115D03*
X023992114Y017749825D03*
Y017869825D03*
Y017989825D03*
Y018109825D03*
X020787884Y-00213037D03*
X020667884D03*
X020547884D03*
X020427884D03*
X010959886Y001168175D03*
Y001048175D03*
Y000928175D03*
Y000808175D03*
G54D12*
X01072257Y02074219D03*
X01206038Y-0017414D03*
X01405133Y01195988D03*
X02090067Y00695812D03*
X024052932Y019237245D03*
X02422943Y-00182419D03*
G54D13*
X023808169Y020114572D03*
X011598751Y021058607D03*
X023353249Y-002140607D03*
X01172354Y-001798226D03*
G54D11*
X010828054Y001568348D03*
Y001368348D03*
Y001168348D03*
Y000968348D03*
X005866747Y020701914D03*
X005060573Y020239966D03*
M02*
