*
%FSTAX45Y45*%
%MOMM*%
%IPPOS*%
%LNsusb_scpt.gbr*%
%LPD*%
G75*
G36*
X-0001Y00002D02*
X-00236683D01*
G02X-00244683Y0001IJ00008D01*
G01Y00129731D01*
G02X-00236683Y00137731I00008JD01*
G01X-0001D01*
G02X-00002Y00129731IJ-00008D01*
G01Y0001D01*
G02X-0001Y00002I-00008JD01*
G37*
G36*
Y01125D02*
G01X-00236683D01*
G02X-00244683Y01133IJ00008D01*
G01Y01252731D01*
G02X-00236683Y01260731I00008JD01*
G01X-0001D01*
G02X-00002Y01252731IJ-00008D01*
G01Y01133D01*
G02X-0001Y01125I-00008JD01*
G37*
G36*
X0045Y00002D02*
G01X00223317D01*
G02X00215317Y0001IJ00008D01*
G01Y00129731D01*
G02X00223317Y00137731I00008JD01*
G01X0045D01*
G02X00458Y00129731IJ-00008D01*
G01Y0001D01*
G02X0045Y00002I-00008JD01*
G37*
G36*
Y01125D02*
G01X00223317D01*
G02X00215317Y01133IJ00008D01*
G01Y01252731D01*
G02X00223317Y01260731I00008JD01*
G01X0045D01*
G02X00458Y01252731IJ-00008D01*
G01Y01133D01*
G02X0045Y01125I-00008JD01*
G37*
G36*
X0091Y00002D02*
G01X00683317D01*
G02X00675317Y0001IJ00008D01*
G01Y00129731D01*
G02X00683317Y00137731I00008JD01*
G01X0091D01*
G02X00918Y00129731IJ-00008D01*
G01Y0001D01*
G02X0091Y00002I-00008JD01*
G37*
G36*
Y01125D02*
G01X00683317D01*
G02X00675317Y01133IJ00008D01*
G01Y01252731D01*
G02X00683317Y01260731I00008JD01*
G01X0091D01*
G02X00918Y01252731IJ-00008D01*
G01Y01133D01*
G02X0091Y01125I-00008JD01*
G37*
G36*
X-001748Y007668D02*
G01X00051883D01*
G02X00059883Y007588IJ-00008D01*
G01Y00639069D01*
G02X00051883Y00631069I-00008JD01*
G01X-001748D01*
G02X-001828Y00639069IJ00008D01*
G01Y007588D01*
G02X-001748Y007668I00008JD01*
G37*
G36*
Y018898D02*
G01X00051883D01*
G02X00059883Y018818IJ-00008D01*
G01Y01762069D01*
G02X00051883Y01754069I-00008JD01*
G01X-001748D01*
G02X-001828Y01762069IJ00008D01*
G01Y018818D01*
G02X-001748Y018898I00008JD01*
G37*
G36*
X002852Y007668D02*
G01X00511883D01*
G02X00519883Y007588IJ-00008D01*
G01Y00639069D01*
G02X00511883Y00631069I-00008JD01*
G01X002852D01*
G02X002772Y00639069IJ00008D01*
G01Y007588D01*
G02X002852Y007668I00008JD01*
G37*
G36*
Y018898D02*
G01X00511883D01*
G02X00519883Y018818IJ-00008D01*
G01Y01762069D01*
G02X00511883Y01754069I-00008JD01*
G01X002852D01*
G02X002772Y01762069IJ00008D01*
G01Y018818D01*
G02X002852Y018898I00008JD01*
G37*
G36*
X007452Y007668D02*
G01X00971883D01*
G02X00979883Y007588IJ-00008D01*
G01Y00639069D01*
G02X00971883Y00631069I-00008JD01*
G01X007452D01*
G02X007372Y00639069IJ00008D01*
G01Y007588D01*
G02X007452Y007668I00008JD01*
G37*
G36*
Y018898D02*
G01X00971883D01*
G02X00979883Y018818IJ-00008D01*
G01Y01762069D01*
G02X00971883Y01754069I-00008JD01*
G01X007452D01*
G02X007372Y01762069IJ00008D01*
G01Y018818D01*
G02X007452Y018898I00008JD01*
G37*
G36*
X00115Y-001628D02*
G01X-00111683D01*
G02X-00119683Y-001548IJ00008D01*
G01Y-00035069D01*
G02X-00111683Y-00027069I00008JD01*
G01X00115D01*
G02X00123Y-00035069IJ-00008D01*
G01Y-001548D01*
G02X00115Y-001628I-00008JD01*
G37*
G36*
Y009602D02*
G01X-00111683D01*
G02X-00119683Y009682IJ00008D01*
G01Y01087931D01*
G02X-00111683Y01095931I00008JD01*
G01X00115D01*
G02X00123Y01087931IJ-00008D01*
G01Y009682D01*
G02X00115Y009602I-00008JD01*
G37*
G36*
X00575Y-001628D02*
G01X00348317D01*
G02X00340317Y-001548IJ00008D01*
G01Y-00035069D01*
G02X00348317Y-00027069I00008JD01*
G01X00575D01*
G02X00583Y-00035069IJ-00008D01*
G01Y-001548D01*
G02X00575Y-001628I-00008JD01*
G37*
G36*
Y009602D02*
G01X00348317D01*
G02X00340317Y009682IJ00008D01*
G01Y01087931D01*
G02X00348317Y01095931I00008JD01*
G01X00575D01*
G02X00583Y01087931IJ-00008D01*
G01Y009682D01*
G02X00575Y009602I-00008JD01*
G37*
G36*
X01035Y-001628D02*
G01X00808317D01*
G02X00800317Y-001548IJ00008D01*
G01Y-00035069D01*
G02X00808317Y-00027069I00008JD01*
G01X01035D01*
G02X01043Y-00035069IJ-00008D01*
G01Y-001548D01*
G02X01035Y-001628I-00008JD01*
G37*
G36*
Y009602D02*
G01X00808317D01*
G02X00800317Y009682IJ00008D01*
G01Y01087931D01*
G02X00808317Y01095931I00008JD01*
G01X01035D01*
G02X01043Y01087931IJ-00008D01*
G01Y009682D01*
G02X01035Y009602I-00008JD01*
G37*
G36*
X-002998Y009316D02*
G01X-00073117D01*
G02X-00065117Y009236IJ-00008D01*
G01Y00803869D01*
G02X-00073117Y00795869I-00008JD01*
G01X-002998D01*
G02X-003078Y00803869IJ00008D01*
G01Y009236D01*
G02X-002998Y009316I00008JD01*
G37*
G36*
Y020546D02*
G01X-00073117D01*
G02X-00065117Y020466IJ-00008D01*
G01Y01926869D01*
G02X-00073117Y01918869I-00008JD01*
G01X-002998D01*
G02X-003078Y01926869IJ00008D01*
G01Y020466D01*
G02X-002998Y020546I00008JD01*
G37*
G36*
X001602Y009316D02*
G01X00386883D01*
G02X00394883Y009236IJ-00008D01*
G01Y00803869D01*
G02X00386883Y00795869I-00008JD01*
G01X001602D01*
G02X001522Y00803869IJ00008D01*
G01Y009236D01*
G02X001602Y009316I00008JD01*
G37*
G36*
Y020546D02*
G01X00386883D01*
G02X00394883Y020466IJ-00008D01*
G01Y01926869D01*
G02X00386883Y01918869I-00008JD01*
G01X001602D01*
G02X001522Y01926869IJ00008D01*
G01Y020466D01*
G02X001602Y020546I00008JD01*
G37*
G36*
X006202Y009316D02*
G01X00846883D01*
G02X00854883Y009236IJ-00008D01*
G01Y00803869D01*
G02X00846883Y00795869I-00008JD01*
G01X006202D01*
G02X006122Y00803869IJ00008D01*
G01Y009236D01*
G02X006202Y009316I00008JD01*
G37*
G36*
Y020546D02*
G01X00846883D01*
G02X00854883Y020466IJ-00008D01*
G01Y01926869D01*
G02X00846883Y01918869I-00008JD01*
G01X006202D01*
G02X006122Y01926869IJ00008D01*
G01Y020466D01*
G02X006202Y020546I00008JD01*
G37*
G36*
X0137Y00002D02*
G01X01143317D01*
G02X01135317Y0001IJ00008D01*
G01Y00129731D01*
G02X01143317Y00137731I00008JD01*
G01X0137D01*
G02X01378Y00129731IJ-00008D01*
G01Y0001D01*
G02X0137Y00002I-00008JD01*
G37*
G36*
Y01125D02*
G01X01143317D01*
G02X01135317Y01133IJ00008D01*
G01Y01252731D01*
G02X01143317Y01260731I00008JD01*
G01X0137D01*
G02X01378Y01252731IJ-00008D01*
G01Y01133D01*
G02X0137Y01125I-00008JD01*
G37*
G36*
X0183Y00002D02*
G01X01603317D01*
G02X01595317Y0001IJ00008D01*
G01Y00129731D01*
G02X01603317Y00137731I00008JD01*
G01X0183D01*
G02X01838Y00129731IJ-00008D01*
G01Y0001D01*
G02X0183Y00002I-00008JD01*
G37*
G36*
Y01125D02*
G01X01603317D01*
G02X01595317Y01133IJ00008D01*
G01Y01252731D01*
G02X01603317Y01260731I00008JD01*
G01X0183D01*
G02X01838Y01252731IJ-00008D01*
G01Y01133D01*
G02X0183Y01125I-00008JD01*
G37*
G36*
X0229Y00002D02*
G01X02063317D01*
G02X02055317Y0001IJ00008D01*
G01Y00129731D01*
G02X02063317Y00137731I00008JD01*
G01X0229D01*
G02X02298Y00129731IJ-00008D01*
G01Y0001D01*
G02X0229Y00002I-00008JD01*
G37*
G36*
Y01125D02*
G01X02063317D01*
G02X02055317Y01133IJ00008D01*
G01Y01252731D01*
G02X02063317Y01260731I00008JD01*
G01X0229D01*
G02X02298Y01252731IJ-00008D01*
G01Y01133D01*
G02X0229Y01125I-00008JD01*
G37*
G36*
X012052Y007668D02*
G01X01431883D01*
G02X01439883Y007588IJ-00008D01*
G01Y00639069D01*
G02X01431883Y00631069I-00008JD01*
G01X012052D01*
G02X011972Y00639069IJ00008D01*
G01Y007588D01*
G02X012052Y007668I00008JD01*
G37*
G36*
Y018898D02*
G01X01431883D01*
G02X01439883Y018818IJ-00008D01*
G01Y01762069D01*
G02X01431883Y01754069I-00008JD01*
G01X012052D01*
G02X011972Y01762069IJ00008D01*
G01Y018818D01*
G02X012052Y018898I00008JD01*
G37*
G36*
X016652Y007668D02*
G01X01891883D01*
G02X01899883Y007588IJ-00008D01*
G01Y00639069D01*
G02X01891883Y00631069I-00008JD01*
G01X016652D01*
G02X016572Y00639069IJ00008D01*
G01Y007588D01*
G02X016652Y007668I00008JD01*
G37*
G36*
Y018898D02*
G01X01891883D01*
G02X01899883Y018818IJ-00008D01*
G01Y01762069D01*
G02X01891883Y01754069I-00008JD01*
G01X016652D01*
G02X016572Y01762069IJ00008D01*
G01Y018818D01*
G02X016652Y018898I00008JD01*
G37*
G36*
X021252Y007668D02*
G01X02351883D01*
G02X02359883Y007588IJ-00008D01*
G01Y00639069D01*
G02X02351883Y00631069I-00008JD01*
G01X021252D01*
G02X021172Y00639069IJ00008D01*
G01Y007588D01*
G02X021252Y007668I00008JD01*
G37*
G36*
Y018898D02*
G01X02351883D01*
G02X02359883Y018818IJ-00008D01*
G01Y01762069D01*
G02X02351883Y01754069I-00008JD01*
G01X021252D01*
G02X021172Y01762069IJ00008D01*
G01Y018818D01*
G02X021252Y018898I00008JD01*
G37*
G36*
X01495Y-001628D02*
G01X01268317D01*
G02X01260317Y-001548IJ00008D01*
G01Y-00035069D01*
G02X01268317Y-00027069I00008JD01*
G01X01495D01*
G02X01503Y-00035069IJ-00008D01*
G01Y-001548D01*
G02X01495Y-001628I-00008JD01*
G37*
G36*
Y009602D02*
G01X01268317D01*
G02X01260317Y009682IJ00008D01*
G01Y01087931D01*
G02X01268317Y01095931I00008JD01*
G01X01495D01*
G02X01503Y01087931IJ-00008D01*
G01Y009682D01*
G02X01495Y009602I-00008JD01*
G37*
G36*
X01955Y-001628D02*
G01X01728317D01*
G02X01720317Y-001548IJ00008D01*
G01Y-00035069D01*
G02X01728317Y-00027069I00008JD01*
G01X01955D01*
G02X01963Y-00035069IJ-00008D01*
G01Y-001548D01*
G02X01955Y-001628I-00008JD01*
G37*
G36*
Y009602D02*
G01X01728317D01*
G02X01720317Y009682IJ00008D01*
G01Y01087931D01*
G02X01728317Y01095931I00008JD01*
G01X01955D01*
G02X01963Y01087931IJ-00008D01*
G01Y009682D01*
G02X01955Y009602I-00008JD01*
G37*
G36*
X02415Y-001628D02*
G01X02188317D01*
G02X02180317Y-001548IJ00008D01*
G01Y-00035069D01*
G02X02188317Y-00027069I00008JD01*
G01X02415D01*
G02X02423Y-00035069IJ-00008D01*
G01Y-001548D01*
G02X02415Y-001628I-00008JD01*
G37*
G36*
Y009602D02*
G01X02188317D01*
G02X02180317Y009682IJ00008D01*
G01Y01087931D01*
G02X02188317Y01095931I00008JD01*
G01X02415D01*
G02X02423Y01087931IJ-00008D01*
G01Y009682D01*
G02X02415Y009602I-00008JD01*
G37*
G36*
X010802Y009316D02*
G01X01306883D01*
G02X01314883Y009236IJ-00008D01*
G01Y00803869D01*
G02X01306883Y00795869I-00008JD01*
G01X010802D01*
G02X010722Y00803869IJ00008D01*
G01Y009236D01*
G02X010802Y009316I00008JD01*
G37*
G36*
Y020546D02*
G01X01306883D01*
G02X01314883Y020466IJ-00008D01*
G01Y01926869D01*
G02X01306883Y01918869I-00008JD01*
G01X010802D01*
G02X010722Y01926869IJ00008D01*
G01Y020466D01*
G02X010802Y020546I00008JD01*
G37*
G36*
X015402Y009316D02*
G01X01766883D01*
G02X01774883Y009236IJ-00008D01*
G01Y00803869D01*
G02X01766883Y00795869I-00008JD01*
G01X015402D01*
G02X015322Y00803869IJ00008D01*
G01Y009236D01*
G02X015402Y009316I00008JD01*
G37*
G36*
Y020546D02*
G01X01766883D01*
G02X01774883Y020466IJ-00008D01*
G01Y01926869D01*
G02X01766883Y01918869I-00008JD01*
G01X015402D01*
G02X015322Y01926869IJ00008D01*
G01Y020466D01*
G02X015402Y020546I00008JD01*
G37*
G36*
X020002Y009316D02*
G01X02226883D01*
G02X02234883Y009236IJ-00008D01*
G01Y00803869D01*
G02X02226883Y00795869I-00008JD01*
G01X020002D01*
G02X019922Y00803869IJ00008D01*
G01Y009236D01*
G02X020002Y009316I00008JD01*
G37*
G36*
Y020546D02*
G01X02226883D01*
G02X02234883Y020466IJ-00008D01*
G01Y01926869D01*
G02X02226883Y01918869I-00008JD01*
G01X020002D01*
G02X019922Y01926869IJ00008D01*
G01Y020466D01*
G02X020002Y020546I00008JD01*
G37*
M02*
