*
%FSTAX45Y45*%
%MOMM*%
%ADD10C,0.010000*%
%ADD11C,0.100000*%
%ADD12C,1.500000X1.400000*%
%ADD13C,2.000000X1.900000*%
%IPPOS*%
%LNrout_scpt.gbr*%
%LPD*%
G75*
G54D10*
X-0001YD02*
X-000084233Y000001251D01*
X-00006886Y000004972D01*
X-000054267Y00001107D01*
X-000040817Y000019393D01*
X-000028848Y000029733D01*
X-000018659Y000041831D01*
X-000010505Y000055383D01*
X-00000459Y000070052D01*
X-000001061Y00008547D01*
XY0001D01*
Y00139731D01*
Y00145901D01*
Y00151943D01*
Y00491585D01*
Y00498212D01*
Y00505268D01*
Y00597768D01*
X-000001251Y005993447D01*
X-000004972Y00600882D01*
X-00001107Y006023413D01*
X-000019393Y006036863D01*
X-000029733Y006048832D01*
X-000041831Y006059021D01*
X-000055383Y006067175D01*
X-000070052Y00607309D01*
X-00008547Y006076619D01*
X-0001Y00607768D01*
X-0005D01*
X-000515767Y006076429D01*
X-00053114Y006072708D01*
X-000545733Y006066609D01*
X-000559183Y006058286D01*
X-000571152Y006047947D01*
X-000581341Y006035849D01*
X-000589495Y006022297D01*
X-00059541Y006007628D01*
X-000598939Y00599221D01*
X-0006Y00597768D01*
Y00505268D01*
Y00498212D01*
Y00491585D01*
Y00151943D01*
Y00149928D01*
X-00060066Y00148699D01*
X-00060256Y00147483D01*
X-00060449Y00146686D01*
X-00060689Y00145901D01*
X-000613861Y001445173D01*
X-000622967Y001432639D01*
X-000633973Y001421734D01*
X-00064396Y00141437D01*
X-000658415Y001406577D01*
X-000673887Y00140107D01*
X-000690016Y001397977D01*
X-0007Y00139731D01*
X-00236683D01*
X-002382597Y001396059D01*
X-00239797Y001392338D01*
X-002412563Y001386239D01*
X-002426013Y001377916D01*
X-002437982Y001367577D01*
X-002448171Y001355479D01*
X-002456325Y001341927D01*
X-00246224Y001327258D01*
X-002465769Y00131184D01*
X-00246683Y00129731D01*
Y0001D01*
X-002465579Y000084233D01*
X-002461858Y00006886D01*
X-002455759Y000054267D01*
X-002447436Y000040817D01*
X-002437097Y000028848D01*
X-002424999Y000018659D01*
X-002411447Y000010505D01*
X-002396778Y00000459D01*
X-00238136Y000001061D01*
X-00236683YD01*
X-0001D01*
Y01123D02*
X-000084233Y011231251D01*
X-00006886Y011234972D01*
X-000054267Y01124107D01*
X-000040817Y011249393D01*
X-000028848Y011259733D01*
X-000018659Y011271831D01*
X-000010505Y011285383D01*
X-00000459Y011300052D01*
X-000001061Y01131547D01*
XY01133D01*
Y01262731D01*
Y01268901D01*
Y01274943D01*
Y01614585D01*
Y01621212D01*
Y01628268D01*
Y01720768D01*
X-000001251Y017223447D01*
X-000004972Y01723882D01*
X-00001107Y017253413D01*
X-000019393Y017266863D01*
X-000029733Y017278832D01*
X-000041831Y017289021D01*
X-000055383Y017297175D01*
X-000070052Y01730309D01*
X-00008547Y017306619D01*
X-0001Y01730768D01*
X-0005D01*
X-000515767Y017306429D01*
X-00053114Y017302708D01*
X-000545733Y017296609D01*
X-000559183Y017288286D01*
X-000571152Y017277947D01*
X-000581341Y017265849D01*
X-000589495Y017252297D01*
X-00059541Y017237628D01*
X-000598939Y01722221D01*
X-0006Y01720768D01*
Y01628268D01*
Y01621212D01*
Y01614585D01*
Y01274943D01*
Y01272928D01*
X-00060066Y01271699D01*
X-00060256Y01270483D01*
X-00060449Y01269686D01*
X-00060689Y01268901D01*
X-000613861Y012675173D01*
X-000622967Y012662639D01*
X-000633973Y012651734D01*
X-00064396Y01264437D01*
X-000658415Y012636577D01*
X-000673887Y01263107D01*
X-000690016Y012627977D01*
X-0007Y01262731D01*
X-00236683D01*
X-002382597Y012626059D01*
X-00239797Y012622338D01*
X-002412563Y012616239D01*
X-002426013Y012607916D01*
X-002437982Y012597577D01*
X-002448171Y012585479D01*
X-002456325Y012571927D01*
X-00246224Y012557258D01*
X-002465769Y01254184D01*
X-00246683Y01252731D01*
Y01133D01*
X-002465579Y011314233D01*
X-002461858Y01129886D01*
X-002455759Y011284267D01*
X-002447436Y011270817D01*
X-002437097Y011258848D01*
X-002424999Y011248659D01*
X-002411447Y011240505D01*
X-002396778Y01123459D01*
X-00238136Y011231061D01*
X-00236683Y01123D01*
X-0001D01*
X0045YD02*
X004515767Y000001251D01*
X00453114Y000004972D01*
X004545733Y00001107D01*
X004559183Y000019393D01*
X004571152Y000029733D01*
X004581341Y000041831D01*
X004589495Y000055383D01*
X00459541Y000070052D01*
X004598939Y00008547D01*
X0046Y0001D01*
Y00139731D01*
Y00145901D01*
Y00151943D01*
Y00491585D01*
Y00498212D01*
Y00505268D01*
Y00597768D01*
X004598749Y005993447D01*
X004595028Y00600882D01*
X004588929Y006023413D01*
X004580606Y006036863D01*
X004570267Y006048832D01*
X004558169Y006059021D01*
X004544617Y006067175D01*
X004529948Y00607309D01*
X00451453Y006076619D01*
X0045Y00607768D01*
X0041D01*
X004084233Y006076429D01*
X00406886Y006072708D01*
X004054267Y006066609D01*
X004040817Y006058286D01*
X004028848Y006047947D01*
X004018659Y006035849D01*
X004010505Y006022297D01*
X00400459Y006007628D01*
X004001061Y00599221D01*
X004Y00597768D01*
Y00505268D01*
Y00498212D01*
Y00491585D01*
Y00151943D01*
Y00149928D01*
X00399934Y00148699D01*
X00399744Y00147483D01*
X00399551Y00146686D01*
X00399311Y00145901D01*
X003986139Y001445173D01*
X003977032Y001432639D01*
X003966027Y001421734D01*
X00395604Y00141437D01*
X003941584Y001406577D01*
X003926113Y00140107D01*
X003909984Y001397977D01*
X0039Y00139731D01*
X00223317D01*
X002217403Y001396059D01*
X00220203Y001392338D01*
X002187437Y001386239D01*
X002173987Y001377916D01*
X002162018Y001367577D01*
X002151829Y001355479D01*
X002143675Y001341927D01*
X00213776Y001327258D01*
X002134231Y00131184D01*
X00213317Y00129731D01*
Y0001D01*
X002134421Y000084233D01*
X002138142Y00006886D01*
X00214424Y000054267D01*
X002152563Y000040817D01*
X002162903Y000028848D01*
X002175001Y000018659D01*
X002188553Y000010505D01*
X002203222Y00000459D01*
X00221864Y000001061D01*
X00223317YD01*
X0045D01*
Y01123D02*
X004515767Y011231251D01*
X00453114Y011234972D01*
X004545733Y01124107D01*
X004559183Y011249393D01*
X004571152Y011259733D01*
X004581341Y011271831D01*
X004589495Y011285383D01*
X00459541Y011300052D01*
X004598939Y01131547D01*
X0046Y01133D01*
Y01262731D01*
Y01268901D01*
Y01274943D01*
Y01614585D01*
Y01621212D01*
Y01628268D01*
Y01720768D01*
X004598749Y017223447D01*
X004595028Y01723882D01*
X004588929Y017253413D01*
X004580606Y017266863D01*
X004570267Y017278832D01*
X004558169Y017289021D01*
X004544617Y017297175D01*
X004529948Y01730309D01*
X00451453Y017306619D01*
X0045Y01730768D01*
X0041D01*
X004084233Y017306429D01*
X00406886Y017302708D01*
X004054267Y017296609D01*
X004040817Y017288286D01*
X004028848Y017277947D01*
X004018659Y017265849D01*
X004010505Y017252297D01*
X00400459Y017237628D01*
X004001061Y01722221D01*
X004Y01720768D01*
Y01628268D01*
Y01621212D01*
Y01614585D01*
Y01274943D01*
Y01272928D01*
X00399934Y01271699D01*
X00399744Y01270483D01*
X00399551Y01269686D01*
X00399311Y01268901D01*
X003986139Y012675173D01*
X003977032Y012662639D01*
X003966027Y012651734D01*
X00395604Y01264437D01*
X003941584Y012636577D01*
X003926113Y01263107D01*
X003909984Y012627977D01*
X0039Y01262731D01*
X00223317D01*
X002217403Y012626059D01*
X00220203Y012622338D01*
X002187437Y012616239D01*
X002173987Y012607916D01*
X002162018Y012597577D01*
X002151829Y012585479D01*
X002143675Y012571927D01*
X00213776Y012557258D01*
X002134231Y01254184D01*
X00213317Y01252731D01*
Y01133D01*
X002134421Y011314233D01*
X002138142Y01129886D01*
X00214424Y011284267D01*
X002152563Y011270817D01*
X002162903Y011258848D01*
X002175001Y011248659D01*
X002188553Y011240505D01*
X002203222Y01123459D01*
X00221864Y011231061D01*
X00223317Y01123D01*
X0045D01*
X0091YD02*
X009115767Y000001251D01*
X00913114Y000004972D01*
X009145733Y00001107D01*
X009159183Y000019393D01*
X009171152Y000029733D01*
X009181341Y000041831D01*
X009189495Y000055383D01*
X00919541Y000070052D01*
X009198939Y00008547D01*
X0092Y0001D01*
Y00139731D01*
Y00145901D01*
Y00151943D01*
Y00491585D01*
Y00498212D01*
Y00505268D01*
Y00597768D01*
X009198749Y005993447D01*
X009195028Y00600882D01*
X009188929Y006023413D01*
X009180606Y006036863D01*
X009170267Y006048832D01*
X009158169Y006059021D01*
X009144617Y006067175D01*
X009129948Y00607309D01*
X00911453Y006076619D01*
X0091Y00607768D01*
X0087D01*
X008684233Y006076429D01*
X00866886Y006072708D01*
X008654267Y006066609D01*
X008640817Y006058286D01*
X008628848Y006047947D01*
X008618659Y006035849D01*
X008610505Y006022297D01*
X00860459Y006007628D01*
X008601061Y00599221D01*
X0086Y00597768D01*
Y00505268D01*
Y00498212D01*
Y00491585D01*
Y00151943D01*
Y00149928D01*
X00859934Y00148699D01*
X00859744Y00147483D01*
X00859551Y00146686D01*
X00859311Y00145901D01*
X008586139Y001445173D01*
X008577032Y001432639D01*
X008566027Y001421734D01*
X00855604Y00141437D01*
X008541584Y001406577D01*
X008526113Y00140107D01*
X008509984Y001397977D01*
X0085Y00139731D01*
X00683317D01*
X006817403Y001396059D01*
X00680203Y001392338D01*
X006787437Y001386239D01*
X006773987Y001377916D01*
X006762018Y001367577D01*
X006751829Y001355479D01*
X006743675Y001341927D01*
X00673776Y001327258D01*
X006734231Y00131184D01*
X00673317Y00129731D01*
Y0001D01*
X006734421Y000084233D01*
X006738142Y00006886D01*
X00674424Y000054267D01*
X006752563Y000040817D01*
X006762903Y000028848D01*
X006775001Y000018659D01*
X006788553Y000010505D01*
X006803222Y00000459D01*
X00681864Y000001061D01*
X00683317YD01*
X0091D01*
Y01123D02*
X009115767Y011231251D01*
X00913114Y011234972D01*
X009145733Y01124107D01*
X009159183Y011249393D01*
X009171152Y011259733D01*
X009181341Y011271831D01*
X009189495Y011285383D01*
X00919541Y011300052D01*
X009198939Y01131547D01*
X0092Y01133D01*
Y01262731D01*
Y01268901D01*
Y01274943D01*
Y01614585D01*
Y01621212D01*
Y01628268D01*
Y01720768D01*
X009198749Y017223447D01*
X009195028Y01723882D01*
X009188929Y017253413D01*
X009180606Y017266863D01*
X009170267Y017278832D01*
X009158169Y017289021D01*
X009144617Y017297175D01*
X009129948Y01730309D01*
X00911453Y017306619D01*
X0091Y01730768D01*
X0087D01*
X008684233Y017306429D01*
X00866886Y017302708D01*
X008654267Y017296609D01*
X008640817Y017288286D01*
X008628848Y017277947D01*
X008618659Y017265849D01*
X008610505Y017252297D01*
X00860459Y017237628D01*
X008601061Y01722221D01*
X0086Y01720768D01*
Y01628268D01*
Y01621212D01*
Y01614585D01*
Y01274943D01*
Y01272928D01*
X00859934Y01271699D01*
X00859744Y01270483D01*
X00859551Y01269686D01*
X00859311Y01268901D01*
X008586139Y012675173D01*
X008577032Y012662639D01*
X008566027Y012651734D01*
X00855604Y01264437D01*
X008541584Y012636577D01*
X008526113Y01263107D01*
X008509984Y012627977D01*
X0085Y01262731D01*
X00683317D01*
X006817403Y012626059D01*
X00680203Y012622338D01*
X006787437Y012616239D01*
X006773987Y012607916D01*
X006762018Y012597577D01*
X006751829Y012585479D01*
X006743675Y012571927D01*
X00673776Y012557258D01*
X006734231Y01254184D01*
X00673317Y01252731D01*
Y01133D01*
X006734421Y011314233D01*
X006738142Y01129886D01*
X00674424Y011284267D01*
X006752563Y011270817D01*
X006762903Y011258848D01*
X006775001Y011248659D01*
X006788553Y011240505D01*
X006803222Y01123459D01*
X00681864Y011231061D01*
X00683317Y01123D01*
X0091D01*
X-001748Y007688D02*
X-001763767Y007686749D01*
X-00177914Y007683028D01*
X-001793733Y007676929D01*
X-001807183Y007668606D01*
X-001819152Y007658267D01*
X-001829341Y007646169D01*
X-001837495Y007632617D01*
X-00184341Y007617948D01*
X-001846939Y00760253D01*
X-001848Y007588D01*
Y00629069D01*
Y00622899D01*
Y00616857D01*
Y00277215D01*
Y00270588D01*
Y00263532D01*
Y00171032D01*
X-001846749Y001694553D01*
X-001843028Y00167918D01*
X-001836929Y001664587D01*
X-001828606Y001651137D01*
X-001818267Y001639168D01*
X-001806169Y001628979D01*
X-001792617Y001620825D01*
X-001777948Y00161491D01*
X-00176253Y001611381D01*
X-001748Y00161032D01*
X-001348D01*
X-001332233Y001611571D01*
X-00131686Y001615292D01*
X-001302267Y00162139D01*
X-001288817Y001629713D01*
X-001276848Y001640053D01*
X-001266659Y001652151D01*
X-001258505Y001665703D01*
X-00125259Y001680372D01*
X-001249061Y00169579D01*
X-001248Y00171032D01*
Y00263532D01*
Y00270588D01*
Y00277215D01*
Y00616857D01*
Y00618872D01*
X-00124734Y00620101D01*
X-00124544Y00621317D01*
X-00124351Y00622114D01*
X-00124111Y00622899D01*
X-001234139Y006242826D01*
X-001225032Y006255361D01*
X-001214027Y006266266D01*
X-00120404Y00627363D01*
X-001189584Y006281423D01*
X-001174113Y00628693D01*
X-001157984Y006290022D01*
X-001148Y00629069D01*
X00051883D01*
X000534597Y006291941D01*
X00054997Y006295662D01*
X000564563Y00630176D01*
X000578013Y006310083D01*
X000589982Y006320423D01*
X000600171Y006332521D01*
X000608325Y006346073D01*
X00061424Y006360742D01*
X000617769Y00637616D01*
X00061883Y00639069D01*
Y007588D01*
X000617579Y007603767D01*
X000613858Y00761914D01*
X000607759Y007633733D01*
X000599436Y007647183D01*
X000589097Y007659152D01*
X000576999Y007669341D01*
X000563447Y007677495D01*
X000548778Y00768341D01*
X00053336Y007686939D01*
X00051883Y007688D01*
X-001748D01*
Y018918D02*
X-001763767Y018916749D01*
X-00177914Y018913028D01*
X-001793733Y018906929D01*
X-001807183Y018898606D01*
X-001819152Y018888267D01*
X-001829341Y018876169D01*
X-001837495Y018862617D01*
X-00184341Y018847948D01*
X-001846939Y01883253D01*
X-001848Y018818D01*
Y01752069D01*
Y01745899D01*
Y01739857D01*
Y01400215D01*
Y01393588D01*
Y01386532D01*
Y01294032D01*
X-001846749Y012924553D01*
X-001843028Y01290918D01*
X-001836929Y012894587D01*
X-001828606Y012881137D01*
X-001818267Y012869168D01*
X-001806169Y012858979D01*
X-001792617Y012850825D01*
X-001777948Y01284491D01*
X-00176253Y012841381D01*
X-001748Y01284032D01*
X-001348D01*
X-001332233Y012841571D01*
X-00131686Y012845292D01*
X-001302267Y01285139D01*
X-001288817Y012859713D01*
X-001276848Y012870053D01*
X-001266659Y012882151D01*
X-001258505Y012895703D01*
X-00125259Y012910372D01*
X-001249061Y01292579D01*
X-001248Y01294032D01*
Y01386532D01*
Y01393588D01*
Y01400215D01*
Y01739857D01*
Y01741872D01*
X-00124734Y01743101D01*
X-00124544Y01744317D01*
X-00124351Y01745114D01*
X-00124111Y01745899D01*
X-001234139Y017472826D01*
X-001225032Y017485361D01*
X-001214027Y017496266D01*
X-00120404Y01750363D01*
X-001189584Y017511423D01*
X-001174113Y01751693D01*
X-001157984Y017520022D01*
X-001148Y01752069D01*
X00051883D01*
X000534597Y017521941D01*
X00054997Y017525662D01*
X000564563Y01753176D01*
X000578013Y017540083D01*
X000589982Y017550423D01*
X000600171Y017562521D01*
X000608325Y017576073D01*
X00061424Y017590742D01*
X000617769Y01760616D01*
X00061883Y01762069D01*
Y018818D01*
X000617579Y018833767D01*
X000613858Y01884914D01*
X000607759Y018863733D01*
X000599436Y018877183D01*
X000589097Y018889152D01*
X000576999Y018899341D01*
X000563447Y018907495D01*
X000548778Y01891341D01*
X00053336Y018916939D01*
X00051883Y018918D01*
X-001748D01*
X002852Y007688D02*
X002836233Y007686749D01*
X00282086Y007683028D01*
X002806267Y007676929D01*
X002792817Y007668606D01*
X002780848Y007658267D01*
X002770659Y007646169D01*
X002762505Y007632617D01*
X00275659Y007617948D01*
X002753061Y00760253D01*
X002752Y007588D01*
Y00629069D01*
Y00622899D01*
Y00616857D01*
Y00277215D01*
Y00270588D01*
Y00263532D01*
Y00171032D01*
X002753251Y001694553D01*
X002756972Y00167918D01*
X00276307Y001664587D01*
X002771393Y001651137D01*
X002781733Y001639168D01*
X002793831Y001628979D01*
X002807383Y001620825D01*
X002822052Y00161491D01*
X00283747Y001611381D01*
X002852Y00161032D01*
X003252D01*
X003267767Y001611571D01*
X00328314Y001615292D01*
X003297733Y00162139D01*
X003311183Y001629713D01*
X003323152Y001640053D01*
X003333341Y001652151D01*
X003341495Y001665703D01*
X00334741Y001680372D01*
X003350939Y00169579D01*
X003352Y00171032D01*
Y00263532D01*
Y00270588D01*
Y00277215D01*
Y00616857D01*
Y00618872D01*
X00335266Y00620101D01*
X00335456Y00621317D01*
X00335649Y00622114D01*
X00335889Y00622899D01*
X003365861Y006242826D01*
X003374967Y006255361D01*
X003385973Y006266266D01*
X00339596Y00627363D01*
X003410415Y006281423D01*
X003425887Y00628693D01*
X003442016Y006290022D01*
X003452Y00629069D01*
X00511883D01*
X005134597Y006291941D01*
X00514997Y006295662D01*
X005164563Y00630176D01*
X005178013Y006310083D01*
X005189982Y006320423D01*
X005200171Y006332521D01*
X005208325Y006346073D01*
X00521424Y006360742D01*
X005217769Y00637616D01*
X00521883Y00639069D01*
Y007588D01*
X005217579Y007603767D01*
X005213858Y00761914D01*
X005207759Y007633733D01*
X005199436Y007647183D01*
X005189097Y007659152D01*
X005176999Y007669341D01*
X005163447Y007677495D01*
X005148778Y00768341D01*
X00513336Y007686939D01*
X00511883Y007688D01*
X002852D01*
Y018918D02*
X002836233Y018916749D01*
X00282086Y018913028D01*
X002806267Y018906929D01*
X002792817Y018898606D01*
X002780848Y018888267D01*
X002770659Y018876169D01*
X002762505Y018862617D01*
X00275659Y018847948D01*
X002753061Y01883253D01*
X002752Y018818D01*
Y01752069D01*
Y01745899D01*
Y01739857D01*
Y01400215D01*
Y01393588D01*
Y01386532D01*
Y01294032D01*
X002753251Y012924553D01*
X002756972Y01290918D01*
X00276307Y012894587D01*
X002771393Y012881137D01*
X002781733Y012869168D01*
X002793831Y012858979D01*
X002807383Y012850825D01*
X002822052Y01284491D01*
X00283747Y012841381D01*
X002852Y01284032D01*
X003252D01*
X003267767Y012841571D01*
X00328314Y012845292D01*
X003297733Y01285139D01*
X003311183Y012859713D01*
X003323152Y012870053D01*
X003333341Y012882151D01*
X003341495Y012895703D01*
X00334741Y012910372D01*
X003350939Y01292579D01*
X003352Y01294032D01*
Y01386532D01*
Y01393588D01*
Y01400215D01*
Y01739857D01*
Y01741872D01*
X00335266Y01743101D01*
X00335456Y01744317D01*
X00335649Y01745114D01*
X00335889Y01745899D01*
X003365861Y017472826D01*
X003374967Y017485361D01*
X003385973Y017496266D01*
X00339596Y01750363D01*
X003410415Y017511423D01*
X003425887Y01751693D01*
X003442016Y017520022D01*
X003452Y01752069D01*
X00511883D01*
X005134597Y017521941D01*
X00514997Y017525662D01*
X005164563Y01753176D01*
X005178013Y017540083D01*
X005189982Y017550423D01*
X005200171Y017562521D01*
X005208325Y017576073D01*
X00521424Y017590742D01*
X005217769Y01760616D01*
X00521883Y01762069D01*
Y018818D01*
X005217579Y018833767D01*
X005213858Y01884914D01*
X005207759Y018863733D01*
X005199436Y018877183D01*
X005189097Y018889152D01*
X005176999Y018899341D01*
X005163447Y018907495D01*
X005148778Y01891341D01*
X00513336Y018916939D01*
X00511883Y018918D01*
X002852D01*
X007452Y007688D02*
X007436233Y007686749D01*
X00742086Y007683028D01*
X007406267Y007676929D01*
X007392817Y007668606D01*
X007380848Y007658267D01*
X007370659Y007646169D01*
X007362505Y007632617D01*
X00735659Y007617948D01*
X007353061Y00760253D01*
X007352Y007588D01*
Y00629069D01*
Y00622899D01*
Y00616857D01*
Y00277215D01*
Y00270588D01*
Y00263532D01*
Y00171032D01*
X007353251Y001694553D01*
X007356972Y00167918D01*
X00736307Y001664587D01*
X007371393Y001651137D01*
X007381733Y001639168D01*
X007393831Y001628979D01*
X007407383Y001620825D01*
X007422052Y00161491D01*
X00743747Y001611381D01*
X007452Y00161032D01*
X007852D01*
X007867767Y001611571D01*
X00788314Y001615292D01*
X007897733Y00162139D01*
X007911183Y001629713D01*
X007923152Y001640053D01*
X007933341Y001652151D01*
X007941495Y001665703D01*
X00794741Y001680372D01*
X007950939Y00169579D01*
X007952Y00171032D01*
Y00263532D01*
Y00270588D01*
Y00277215D01*
Y00616857D01*
Y00618872D01*
X00795266Y00620101D01*
X00795456Y00621317D01*
X00795649Y00622114D01*
X00795889Y00622899D01*
X007965861Y006242826D01*
X007974967Y006255361D01*
X007985973Y006266266D01*
X00799596Y00627363D01*
X008010415Y006281423D01*
X008025887Y00628693D01*
X008042016Y006290022D01*
X008052Y00629069D01*
X00971883D01*
X009734597Y006291941D01*
X00974997Y006295662D01*
X009764563Y00630176D01*
X009778013Y006310083D01*
X009789982Y006320423D01*
X009800171Y006332521D01*
X009808325Y006346073D01*
X00981424Y006360742D01*
X009817769Y00637616D01*
X00981883Y00639069D01*
Y007588D01*
X009817579Y007603767D01*
X009813858Y00761914D01*
X009807759Y007633733D01*
X009799436Y007647183D01*
X009789097Y007659152D01*
X009776999Y007669341D01*
X009763447Y007677495D01*
X009748778Y00768341D01*
X00973336Y007686939D01*
X00971883Y007688D01*
X007452D01*
Y018918D02*
X007436233Y018916749D01*
X00742086Y018913028D01*
X007406267Y018906929D01*
X007392817Y018898606D01*
X007380848Y018888267D01*
X007370659Y018876169D01*
X007362505Y018862617D01*
X00735659Y018847948D01*
X007353061Y01883253D01*
X007352Y018818D01*
Y01752069D01*
Y01745899D01*
Y01739857D01*
Y01400215D01*
Y01393588D01*
Y01386532D01*
Y01294032D01*
X007353251Y012924553D01*
X007356972Y01290918D01*
X00736307Y012894587D01*
X007371393Y012881137D01*
X007381733Y012869168D01*
X007393831Y012858979D01*
X007407383Y012850825D01*
X007422052Y01284491D01*
X00743747Y012841381D01*
X007452Y01284032D01*
X007852D01*
X007867767Y012841571D01*
X00788314Y012845292D01*
X007897733Y01285139D01*
X007911183Y012859713D01*
X007923152Y012870053D01*
X007933341Y012882151D01*
X007941495Y012895703D01*
X00794741Y012910372D01*
X007950939Y01292579D01*
X007952Y01294032D01*
Y01386532D01*
Y01393588D01*
Y01400215D01*
Y01739857D01*
Y01741872D01*
X00795266Y01743101D01*
X00795456Y01744317D01*
X00795649Y01745114D01*
X00795889Y01745899D01*
X007965861Y017472826D01*
X007974967Y017485361D01*
X007985973Y017496266D01*
X00799596Y01750363D01*
X008010415Y017511423D01*
X008025887Y01751693D01*
X008042016Y017520022D01*
X008052Y01752069D01*
X00971883D01*
X009734597Y017521941D01*
X00974997Y017525662D01*
X009764563Y01753176D01*
X009778013Y017540083D01*
X009789982Y017550423D01*
X009800171Y017562521D01*
X009808325Y017576073D01*
X00981424Y017590742D01*
X009817769Y01760616D01*
X00981883Y01762069D01*
Y018818D01*
X009817579Y018833767D01*
X009813858Y01884914D01*
X009807759Y018863733D01*
X009799436Y018877183D01*
X009789097Y018889152D01*
X009776999Y018899341D01*
X009763447Y018907495D01*
X009748778Y01891341D01*
X00973336Y018916939D01*
X00971883Y018918D01*
X007452D01*
X00115Y-001648D02*
X001165767Y-001646749D01*
X00118114Y-001643028D01*
X001195733Y-001636929D01*
X001209183Y-001628606D01*
X001221152Y-001618267D01*
X001231341Y-001606169D01*
X001239495Y-001592617D01*
X00124541Y-001577948D01*
X001248939Y-00156253D01*
X00125Y-001548D01*
Y-00025069D01*
Y-00018899D01*
Y-00012857D01*
Y00326785D01*
Y00333412D01*
Y00340468D01*
Y00432968D01*
X001248749Y004345447D01*
X001245028Y00436082D01*
X001238929Y004375413D01*
X001230606Y004388863D01*
X001220267Y004400832D01*
X001208169Y004411021D01*
X001194617Y004419175D01*
X001179948Y00442509D01*
X00116453Y004428619D01*
X00115Y00442968D01*
X00075D01*
X000734233Y004428429D01*
X00071886Y004424708D01*
X000704267Y004418609D01*
X000690817Y004410286D01*
X000678848Y004399947D01*
X000668659Y004387849D01*
X000660505Y004374297D01*
X00065459Y004359628D01*
X000651061Y00434421D01*
X00065Y00432968D01*
Y00340468D01*
Y00333412D01*
Y00326785D01*
Y-00012857D01*
Y-00014872D01*
X00064934Y-00016101D01*
X00064744Y-00017317D01*
X00064551Y-00018114D01*
X00064311Y-00018899D01*
X000636139Y-000202826D01*
X000627032Y-000215361D01*
X000616027Y-000226266D01*
X00060604Y-00023363D01*
X000591584Y-000241423D01*
X000576113Y-00024693D01*
X000559984Y-000250022D01*
X00055Y-00025069D01*
X-00111683D01*
X-001132597Y-000251941D01*
X-00114797Y-000255662D01*
X-001162563Y-00026176D01*
X-001176013Y-000270083D01*
X-001187982Y-000280423D01*
X-001198171Y-000292521D01*
X-001206325Y-000306073D01*
X-00121224Y-000320742D01*
X-001215769Y-00033616D01*
X-00121683Y-00035069D01*
Y-001548D01*
X-001215579Y-001563767D01*
X-001211858Y-00157914D01*
X-001205759Y-001593733D01*
X-001197436Y-001607183D01*
X-001187097Y-001619152D01*
X-001174999Y-001629341D01*
X-001161447Y-001637495D01*
X-001146778Y-00164341D01*
X-00113136Y-001646939D01*
X-00111683Y-001648D01*
X00115D01*
Y009582D02*
X001165767Y009583251D01*
X00118114Y009586972D01*
X001195733Y00959307D01*
X001209183Y009601393D01*
X001221152Y009611733D01*
X001231341Y009623831D01*
X001239495Y009637383D01*
X00124541Y009652052D01*
X001248939Y00966747D01*
X00125Y009682D01*
Y01097931D01*
Y01104101D01*
Y01110143D01*
Y01449785D01*
Y01456412D01*
Y01463468D01*
Y01555968D01*
X001248749Y015575447D01*
X001245028Y01559082D01*
X001238929Y015605413D01*
X001230606Y015618863D01*
X001220267Y015630832D01*
X001208169Y015641021D01*
X001194617Y015649175D01*
X001179948Y01565509D01*
X00116453Y015658619D01*
X00115Y01565968D01*
X00075D01*
X000734233Y015658429D01*
X00071886Y015654708D01*
X000704267Y015648609D01*
X000690817Y015640286D01*
X000678848Y015629947D01*
X000668659Y015617849D01*
X000660505Y015604297D01*
X00065459Y015589628D01*
X000651061Y01557421D01*
X00065Y01555968D01*
Y01463468D01*
Y01456412D01*
Y01449785D01*
Y01110143D01*
Y01108128D01*
X00064934Y01106899D01*
X00064744Y01105683D01*
X00064551Y01104886D01*
X00064311Y01104101D01*
X000636139Y011027173D01*
X000627032Y011014639D01*
X000616027Y011003734D01*
X00060604Y01099637D01*
X000591584Y010988577D01*
X000576113Y01098307D01*
X000559984Y010979977D01*
X00055Y01097931D01*
X-00111683D01*
X-001132597Y010978059D01*
X-00114797Y010974338D01*
X-001162563Y010968239D01*
X-001176013Y010959916D01*
X-001187982Y010949577D01*
X-001198171Y010937479D01*
X-001206325Y010923927D01*
X-00121224Y010909258D01*
X-001215769Y01089384D01*
X-00121683Y01087931D01*
Y009682D01*
X-001215579Y009666233D01*
X-001211858Y00965086D01*
X-001205759Y009636267D01*
X-001197436Y009622817D01*
X-001187097Y009610848D01*
X-001174999Y009600659D01*
X-001161447Y009592505D01*
X-001146778Y00958659D01*
X-00113136Y009583061D01*
X-00111683Y009582D01*
X00115D01*
X00575Y-001648D02*
X005765767Y-001646749D01*
X00578114Y-001643028D01*
X005795733Y-001636929D01*
X005809183Y-001628606D01*
X005821152Y-001618267D01*
X005831341Y-001606169D01*
X005839495Y-001592617D01*
X00584541Y-001577948D01*
X005848939Y-00156253D01*
X00585Y-001548D01*
Y-00025069D01*
Y-00018899D01*
Y-00012857D01*
Y00326785D01*
Y00333412D01*
Y00340468D01*
Y00432968D01*
X005848749Y004345447D01*
X005845028Y00436082D01*
X005838929Y004375413D01*
X005830606Y004388863D01*
X005820267Y004400832D01*
X005808169Y004411021D01*
X005794617Y004419175D01*
X005779948Y00442509D01*
X00576453Y004428619D01*
X00575Y00442968D01*
X00535D01*
X005334233Y004428429D01*
X00531886Y004424708D01*
X005304267Y004418609D01*
X005290817Y004410286D01*
X005278848Y004399947D01*
X005268659Y004387849D01*
X005260505Y004374297D01*
X00525459Y004359628D01*
X005251061Y00434421D01*
X00525Y00432968D01*
Y00340468D01*
Y00333412D01*
Y00326785D01*
Y-00012857D01*
Y-00014872D01*
X00524934Y-00016101D01*
X00524744Y-00017317D01*
X00524551Y-00018114D01*
X00524311Y-00018899D01*
X005236139Y-000202826D01*
X005227032Y-000215361D01*
X005216027Y-000226266D01*
X00520604Y-00023363D01*
X005191584Y-000241423D01*
X005176113Y-00024693D01*
X005159984Y-000250022D01*
X00515Y-00025069D01*
X00348317D01*
X003467403Y-000251941D01*
X00345203Y-000255662D01*
X003437437Y-00026176D01*
X003423987Y-000270083D01*
X003412018Y-000280423D01*
X003401829Y-000292521D01*
X003393675Y-000306073D01*
X00338776Y-000320742D01*
X003384231Y-00033616D01*
X00338317Y-00035069D01*
Y-001548D01*
X003384421Y-001563767D01*
X003388142Y-00157914D01*
X00339424Y-001593733D01*
X003402563Y-001607183D01*
X003412903Y-001619152D01*
X003425001Y-001629341D01*
X003438553Y-001637495D01*
X003453222Y-00164341D01*
X00346864Y-001646939D01*
X00348317Y-001648D01*
X00575D01*
Y009582D02*
X005765767Y009583251D01*
X00578114Y009586972D01*
X005795733Y00959307D01*
X005809183Y009601393D01*
X005821152Y009611733D01*
X005831341Y009623831D01*
X005839495Y009637383D01*
X00584541Y009652052D01*
X005848939Y00966747D01*
X00585Y009682D01*
Y01097931D01*
Y01104101D01*
Y01110143D01*
Y01449785D01*
Y01456412D01*
Y01463468D01*
Y01555968D01*
X005848749Y015575447D01*
X005845028Y01559082D01*
X005838929Y015605413D01*
X005830606Y015618863D01*
X005820267Y015630832D01*
X005808169Y015641021D01*
X005794617Y015649175D01*
X005779948Y01565509D01*
X00576453Y015658619D01*
X00575Y01565968D01*
X00535D01*
X005334233Y015658429D01*
X00531886Y015654708D01*
X005304267Y015648609D01*
X005290817Y015640286D01*
X005278848Y015629947D01*
X005268659Y015617849D01*
X005260505Y015604297D01*
X00525459Y015589628D01*
X005251061Y01557421D01*
X00525Y01555968D01*
Y01463468D01*
Y01456412D01*
Y01449785D01*
Y01110143D01*
Y01108128D01*
X00524934Y01106899D01*
X00524744Y01105683D01*
X00524551Y01104886D01*
X00524311Y01104101D01*
X005236139Y011027173D01*
X005227032Y011014639D01*
X005216027Y011003734D01*
X00520604Y01099637D01*
X005191584Y010988577D01*
X005176113Y01098307D01*
X005159984Y010979977D01*
X00515Y01097931D01*
X00348317D01*
X003467403Y010978059D01*
X00345203Y010974338D01*
X003437437Y010968239D01*
X003423987Y010959916D01*
X003412018Y010949577D01*
X003401829Y010937479D01*
X003393675Y010923927D01*
X00338776Y010909258D01*
X003384231Y01089384D01*
X00338317Y01087931D01*
Y009682D01*
X003384421Y009666233D01*
X003388142Y00965086D01*
X00339424Y009636267D01*
X003402563Y009622817D01*
X003412903Y009610848D01*
X003425001Y009600659D01*
X003438553Y009592505D01*
X003453222Y00958659D01*
X00346864Y009583061D01*
X00348317Y009582D01*
X00575D01*
X01035Y-001648D02*
X010365767Y-001646749D01*
X01038114Y-001643028D01*
X010395733Y-001636929D01*
X010409183Y-001628606D01*
X010421152Y-001618267D01*
X010431341Y-001606169D01*
X010439495Y-001592617D01*
X01044541Y-001577948D01*
X010448939Y-00156253D01*
X01045Y-001548D01*
Y-00025069D01*
Y-00018899D01*
Y-00012857D01*
Y00326785D01*
Y00333412D01*
Y00340468D01*
Y00432968D01*
X010448749Y004345447D01*
X010445028Y00436082D01*
X010438929Y004375413D01*
X010430606Y004388863D01*
X010420267Y004400832D01*
X010408169Y004411021D01*
X010394617Y004419175D01*
X010379948Y00442509D01*
X01036453Y004428619D01*
X01035Y00442968D01*
X00995D01*
X009934233Y004428429D01*
X00991886Y004424708D01*
X009904267Y004418609D01*
X009890817Y004410286D01*
X009878848Y004399947D01*
X009868659Y004387849D01*
X009860505Y004374297D01*
X00985459Y004359628D01*
X009851061Y00434421D01*
X00985Y00432968D01*
Y00340468D01*
Y00333412D01*
Y00326785D01*
Y-00012857D01*
Y-00014872D01*
X00984934Y-00016101D01*
X00984744Y-00017317D01*
X00984551Y-00018114D01*
X00984311Y-00018899D01*
X009836139Y-000202826D01*
X009827032Y-000215361D01*
X009816027Y-000226266D01*
X00980604Y-00023363D01*
X009791584Y-000241423D01*
X009776113Y-00024693D01*
X009759984Y-000250022D01*
X00975Y-00025069D01*
X00808317D01*
X008067403Y-000251941D01*
X00805203Y-000255662D01*
X008037437Y-00026176D01*
X008023987Y-000270083D01*
X008012018Y-000280423D01*
X008001829Y-000292521D01*
X007993675Y-000306073D01*
X00798776Y-000320742D01*
X007984231Y-00033616D01*
X00798317Y-00035069D01*
Y-001548D01*
X007984421Y-001563767D01*
X007988142Y-00157914D01*
X00799424Y-001593733D01*
X008002563Y-001607183D01*
X008012903Y-001619152D01*
X008025001Y-001629341D01*
X008038553Y-001637495D01*
X008053222Y-00164341D01*
X00806864Y-001646939D01*
X00808317Y-001648D01*
X01035D01*
Y009582D02*
X010365767Y009583251D01*
X01038114Y009586972D01*
X010395733Y00959307D01*
X010409183Y009601393D01*
X010421152Y009611733D01*
X010431341Y009623831D01*
X010439495Y009637383D01*
X01044541Y009652052D01*
X010448939Y00966747D01*
X01045Y009682D01*
Y01097931D01*
Y01104101D01*
Y01110143D01*
Y01449785D01*
Y01456412D01*
Y01463468D01*
Y01555968D01*
X010448749Y015575447D01*
X010445028Y01559082D01*
X010438929Y015605413D01*
X010430606Y015618863D01*
X010420267Y015630832D01*
X010408169Y015641021D01*
X010394617Y015649175D01*
X010379948Y01565509D01*
X01036453Y015658619D01*
X01035Y01565968D01*
X00995D01*
X009934233Y015658429D01*
X00991886Y015654708D01*
X009904267Y015648609D01*
X009890817Y015640286D01*
X009878848Y015629947D01*
X009868659Y015617849D01*
X009860505Y015604297D01*
X00985459Y015589628D01*
X009851061Y01557421D01*
X00985Y01555968D01*
Y01463468D01*
Y01456412D01*
Y01449785D01*
Y01110143D01*
Y01108128D01*
X00984934Y01106899D01*
X00984744Y01105683D01*
X00984551Y01104886D01*
X00984311Y01104101D01*
X009836139Y011027173D01*
X009827032Y011014639D01*
X009816027Y011003734D01*
X00980604Y01099637D01*
X009791584Y010988577D01*
X009776113Y01098307D01*
X009759984Y010979977D01*
X00975Y01097931D01*
X00808317D01*
X008067403Y010978059D01*
X00805203Y010974338D01*
X008037437Y010968239D01*
X008023987Y010959916D01*
X008012018Y010949577D01*
X008001829Y010937479D01*
X007993675Y010923927D01*
X00798776Y010909258D01*
X007984231Y01089384D01*
X00798317Y01087931D01*
Y009682D01*
X007984421Y009666233D01*
X007988142Y00965086D01*
X00799424Y009636267D01*
X008002563Y009622817D01*
X008012903Y009610848D01*
X008025001Y009600659D01*
X008038553Y009592505D01*
X008053222Y00958659D01*
X00806864Y009583061D01*
X00808317Y009582D01*
X01035D01*
X-002998Y009336D02*
X-003013767Y009334749D01*
X-00302914Y009331028D01*
X-003043733Y009324929D01*
X-003057183Y009316606D01*
X-003069152Y009306267D01*
X-003079341Y009294169D01*
X-003087495Y009280617D01*
X-00309341Y009265948D01*
X-003096939Y00925053D01*
X-003098Y009236D01*
Y00793869D01*
Y00787699D01*
Y00781657D01*
Y00442015D01*
Y00435388D01*
Y00428332D01*
Y00335832D01*
X-003096749Y003342553D01*
X-003093028Y00332718D01*
X-003086929Y003312587D01*
X-003078606Y003299137D01*
X-003068267Y003287168D01*
X-003056169Y003276979D01*
X-003042617Y003268825D01*
X-003027948Y00326291D01*
X-00301253Y003259381D01*
X-002998Y00325832D01*
X-002598D01*
X-002582233Y003259571D01*
X-00256686Y003263292D01*
X-002552267Y00326939D01*
X-002538817Y003277713D01*
X-002526848Y003288053D01*
X-002516659Y003300151D01*
X-002508505Y003313703D01*
X-00250259Y003328372D01*
X-002499061Y00334379D01*
X-002498Y00335832D01*
Y00428332D01*
Y00435388D01*
Y00442015D01*
Y00781657D01*
Y00783672D01*
X-00249734Y00784901D01*
X-00249544Y00786117D01*
X-00249351Y00786914D01*
X-00249111Y00787699D01*
X-002484139Y007890826D01*
X-002475032Y007903361D01*
X-002464027Y007914266D01*
X-00245404Y00792163D01*
X-002439584Y007929423D01*
X-002424113Y00793493D01*
X-002407984Y007938022D01*
X-002398Y00793869D01*
X-00073117D01*
X-000715403Y007939941D01*
X-00070003Y007943662D01*
X-000685437Y00794976D01*
X-000671987Y007958083D01*
X-000660018Y007968423D01*
X-000649829Y007980521D01*
X-000641675Y007994073D01*
X-00063576Y008008742D01*
X-000632231Y00802416D01*
X-00063117Y00803869D01*
Y009236D01*
X-000632421Y009251767D01*
X-000636142Y00926714D01*
X-00064224Y009281733D01*
X-000650563Y009295183D01*
X-000660903Y009307152D01*
X-000673001Y009317341D01*
X-000686553Y009325495D01*
X-000701222Y00933141D01*
X-00071664Y009334939D01*
X-00073117Y009336D01*
X-002998D01*
Y020566D02*
X-003013767Y020564749D01*
X-00302914Y020561028D01*
X-003043733Y020554929D01*
X-003057183Y020546606D01*
X-003069152Y020536267D01*
X-003079341Y020524169D01*
X-003087495Y020510617D01*
X-00309341Y020495948D01*
X-003096939Y02048053D01*
X-003098Y020466D01*
Y01916869D01*
Y01910699D01*
Y01904657D01*
Y01565015D01*
Y01558388D01*
Y01551332D01*
Y01458832D01*
X-003096749Y014572553D01*
X-003093028Y01455718D01*
X-003086929Y014542587D01*
X-003078606Y014529137D01*
X-003068267Y014517168D01*
X-003056169Y014506979D01*
X-003042617Y014498825D01*
X-003027948Y01449291D01*
X-00301253Y014489381D01*
X-002998Y01448832D01*
X-002598D01*
X-002582233Y014489571D01*
X-00256686Y014493292D01*
X-002552267Y01449939D01*
X-002538817Y014507713D01*
X-002526848Y014518053D01*
X-002516659Y014530151D01*
X-002508505Y014543703D01*
X-00250259Y014558372D01*
X-002499061Y01457379D01*
X-002498Y01458832D01*
Y01551332D01*
Y01558388D01*
Y01565015D01*
Y01904657D01*
Y01906672D01*
X-00249734Y01907901D01*
X-00249544Y01909117D01*
X-00249351Y01909914D01*
X-00249111Y01910699D01*
X-002484139Y019120826D01*
X-002475032Y019133361D01*
X-002464027Y019144266D01*
X-00245404Y01915163D01*
X-002439584Y019159423D01*
X-002424113Y01916493D01*
X-002407984Y019168022D01*
X-002398Y01916869D01*
X-00073117D01*
X-000715403Y019169941D01*
X-00070003Y019173662D01*
X-000685437Y01917976D01*
X-000671987Y019188083D01*
X-000660018Y019198423D01*
X-000649829Y019210521D01*
X-000641675Y019224073D01*
X-00063576Y019238742D01*
X-000632231Y01925416D01*
X-00063117Y01926869D01*
Y020466D01*
X-000632421Y020481767D01*
X-000636142Y02049714D01*
X-00064224Y020511733D01*
X-000650563Y020525183D01*
X-000660903Y020537152D01*
X-000673001Y020547341D01*
X-000686553Y020555495D01*
X-000701222Y02056141D01*
X-00071664Y020564939D01*
X-00073117Y020566D01*
X-002998D01*
X001602Y009336D02*
X001586233Y009334749D01*
X00157086Y009331028D01*
X001556267Y009324929D01*
X001542817Y009316606D01*
X001530848Y009306267D01*
X001520659Y009294169D01*
X001512505Y009280617D01*
X00150659Y009265948D01*
X001503061Y00925053D01*
X001502Y009236D01*
Y00793869D01*
Y00787699D01*
Y00781657D01*
Y00442015D01*
Y00435388D01*
Y00428332D01*
Y00335832D01*
X001503251Y003342553D01*
X001506972Y00332718D01*
X00151307Y003312587D01*
X001521393Y003299137D01*
X001531733Y003287168D01*
X001543831Y003276979D01*
X001557383Y003268825D01*
X001572052Y00326291D01*
X00158747Y003259381D01*
X001602Y00325832D01*
X002002D01*
X002017767Y003259571D01*
X00203314Y003263292D01*
X002047733Y00326939D01*
X002061183Y003277713D01*
X002073152Y003288053D01*
X002083341Y003300151D01*
X002091495Y003313703D01*
X00209741Y003328372D01*
X002100939Y00334379D01*
X002102Y00335832D01*
Y00428332D01*
Y00435388D01*
Y00442015D01*
Y00781657D01*
Y00783672D01*
X00210266Y00784901D01*
X00210456Y00786117D01*
X00210649Y00786914D01*
X00210889Y00787699D01*
X002115861Y007890826D01*
X002124967Y007903361D01*
X002135973Y007914266D01*
X00214596Y00792163D01*
X002160415Y007929423D01*
X002175887Y00793493D01*
X002192016Y007938022D01*
X002202Y00793869D01*
X00386883D01*
X003884597Y007939941D01*
X00389997Y007943662D01*
X003914563Y00794976D01*
X003928013Y007958083D01*
X003939982Y007968423D01*
X003950171Y007980521D01*
X003958325Y007994073D01*
X00396424Y008008742D01*
X003967769Y00802416D01*
X00396883Y00803869D01*
Y009236D01*
X003967579Y009251767D01*
X003963858Y00926714D01*
X003957759Y009281733D01*
X003949436Y009295183D01*
X003939097Y009307152D01*
X003926999Y009317341D01*
X003913447Y009325495D01*
X003898778Y00933141D01*
X00388336Y009334939D01*
X00386883Y009336D01*
X001602D01*
Y020566D02*
X001586233Y020564749D01*
X00157086Y020561028D01*
X001556267Y020554929D01*
X001542817Y020546606D01*
X001530848Y020536267D01*
X001520659Y020524169D01*
X001512505Y020510617D01*
X00150659Y020495948D01*
X001503061Y02048053D01*
X001502Y020466D01*
Y01916869D01*
Y01910699D01*
Y01904657D01*
Y01565015D01*
Y01558388D01*
Y01551332D01*
Y01458832D01*
X001503251Y014572553D01*
X001506972Y01455718D01*
X00151307Y014542587D01*
X001521393Y014529137D01*
X001531733Y014517168D01*
X001543831Y014506979D01*
X001557383Y014498825D01*
X001572052Y01449291D01*
X00158747Y014489381D01*
X001602Y01448832D01*
X002002D01*
X002017767Y014489571D01*
X00203314Y014493292D01*
X002047733Y01449939D01*
X002061183Y014507713D01*
X002073152Y014518053D01*
X002083341Y014530151D01*
X002091495Y014543703D01*
X00209741Y014558372D01*
X002100939Y01457379D01*
X002102Y01458832D01*
Y01551332D01*
Y01558388D01*
Y01565015D01*
Y01904657D01*
Y01906672D01*
X00210266Y01907901D01*
X00210456Y01909117D01*
X00210649Y01909914D01*
X00210889Y01910699D01*
X002115861Y019120826D01*
X002124967Y019133361D01*
X002135973Y019144266D01*
X00214596Y01915163D01*
X002160415Y019159423D01*
X002175887Y01916493D01*
X002192016Y019168022D01*
X002202Y01916869D01*
X00386883D01*
X003884597Y019169941D01*
X00389997Y019173662D01*
X003914563Y01917976D01*
X003928013Y019188083D01*
X003939982Y019198423D01*
X003950171Y019210521D01*
X003958325Y019224073D01*
X00396424Y019238742D01*
X003967769Y01925416D01*
X00396883Y01926869D01*
Y020466D01*
X003967579Y020481767D01*
X003963858Y02049714D01*
X003957759Y020511733D01*
X003949436Y020525183D01*
X003939097Y020537152D01*
X003926999Y020547341D01*
X003913447Y020555495D01*
X003898778Y02056141D01*
X00388336Y020564939D01*
X00386883Y020566D01*
X001602D01*
X006202Y009336D02*
X006186233Y009334749D01*
X00617086Y009331028D01*
X006156267Y009324929D01*
X006142817Y009316606D01*
X006130848Y009306267D01*
X006120659Y009294169D01*
X006112505Y009280617D01*
X00610659Y009265948D01*
X006103061Y00925053D01*
X006102Y009236D01*
Y00793869D01*
Y00787699D01*
Y00781657D01*
Y00442015D01*
Y00435388D01*
Y00428332D01*
Y00335832D01*
X006103251Y003342553D01*
X006106972Y00332718D01*
X00611307Y003312587D01*
X006121393Y003299137D01*
X006131733Y003287168D01*
X006143831Y003276979D01*
X006157383Y003268825D01*
X006172052Y00326291D01*
X00618747Y003259381D01*
X006202Y00325832D01*
X006602D01*
X006617767Y003259571D01*
X00663314Y003263292D01*
X006647733Y00326939D01*
X006661183Y003277713D01*
X006673152Y003288053D01*
X006683341Y003300151D01*
X006691495Y003313703D01*
X00669741Y003328372D01*
X006700939Y00334379D01*
X006702Y00335832D01*
Y00428332D01*
Y00435388D01*
Y00442015D01*
Y00781657D01*
Y00783672D01*
X00670266Y00784901D01*
X00670456Y00786117D01*
X00670649Y00786914D01*
X00670889Y00787699D01*
X006715861Y007890826D01*
X006724967Y007903361D01*
X006735973Y007914266D01*
X00674596Y00792163D01*
X006760415Y007929423D01*
X006775887Y00793493D01*
X006792016Y007938022D01*
X006802Y00793869D01*
X00846883D01*
X008484597Y007939941D01*
X00849997Y007943662D01*
X008514563Y00794976D01*
X008528013Y007958083D01*
X008539982Y007968423D01*
X008550171Y007980521D01*
X008558325Y007994073D01*
X00856424Y008008742D01*
X008567769Y00802416D01*
X00856883Y00803869D01*
Y009236D01*
X008567579Y009251767D01*
X008563858Y00926714D01*
X008557759Y009281733D01*
X008549436Y009295183D01*
X008539097Y009307152D01*
X008526999Y009317341D01*
X008513447Y009325495D01*
X008498778Y00933141D01*
X00848336Y009334939D01*
X00846883Y009336D01*
X006202D01*
Y020566D02*
X006186233Y020564749D01*
X00617086Y020561028D01*
X006156267Y020554929D01*
X006142817Y020546606D01*
X006130848Y020536267D01*
X006120659Y020524169D01*
X006112505Y020510617D01*
X00610659Y020495948D01*
X006103061Y02048053D01*
X006102Y020466D01*
Y01916869D01*
Y01910699D01*
Y01904657D01*
Y01565015D01*
Y01558388D01*
Y01551332D01*
Y01458832D01*
X006103251Y014572553D01*
X006106972Y01455718D01*
X00611307Y014542587D01*
X006121393Y014529137D01*
X006131733Y014517168D01*
X006143831Y014506979D01*
X006157383Y014498825D01*
X006172052Y01449291D01*
X00618747Y014489381D01*
X006202Y01448832D01*
X006602D01*
X006617767Y014489571D01*
X00663314Y014493292D01*
X006647733Y01449939D01*
X006661183Y014507713D01*
X006673152Y014518053D01*
X006683341Y014530151D01*
X006691495Y014543703D01*
X00669741Y014558372D01*
X006700939Y01457379D01*
X006702Y01458832D01*
Y01551332D01*
Y01558388D01*
Y01565015D01*
Y01904657D01*
Y01906672D01*
X00670266Y01907901D01*
X00670456Y01909117D01*
X00670649Y01909914D01*
X00670889Y01910699D01*
X006715861Y019120826D01*
X006724967Y019133361D01*
X006735973Y019144266D01*
X00674596Y01915163D01*
X006760415Y019159423D01*
X006775887Y01916493D01*
X006792016Y019168022D01*
X006802Y01916869D01*
X00846883D01*
X008484597Y019169941D01*
X00849997Y019173662D01*
X008514563Y01917976D01*
X008528013Y019188083D01*
X008539982Y019198423D01*
X008550171Y019210521D01*
X008558325Y019224073D01*
X00856424Y019238742D01*
X008567769Y01925416D01*
X00856883Y01926869D01*
Y020466D01*
X008567579Y020481767D01*
X008563858Y02049714D01*
X008557759Y020511733D01*
X008549436Y020525183D01*
X008539097Y020537152D01*
X008526999Y020547341D01*
X008513447Y020555495D01*
X008498778Y02056141D01*
X00848336Y020564939D01*
X00846883Y020566D01*
X006202D01*
G54D11*
X-003224Y021209D02*
X010576D01*
X-003224Y-002291D02*
X010576D01*
Y021209D01*
X-003224D02*
Y-002291D01*
G54D10*
X0137YD02*
X013715767Y000001251D01*
X01373114Y000004972D01*
X013745733Y00001107D01*
X013759183Y000019393D01*
X013771152Y000029733D01*
X013781341Y000041831D01*
X013789495Y000055383D01*
X01379541Y000070052D01*
X013798939Y00008547D01*
X0138Y0001D01*
Y00139731D01*
Y00145901D01*
Y00151943D01*
Y00491585D01*
Y00498212D01*
Y00505268D01*
Y00597768D01*
X013798749Y005993447D01*
X013795028Y00600882D01*
X013788929Y006023413D01*
X013780606Y006036863D01*
X013770267Y006048832D01*
X013758169Y006059021D01*
X013744617Y006067175D01*
X013729948Y00607309D01*
X01371453Y006076619D01*
X0137Y00607768D01*
X0133D01*
X013284233Y006076429D01*
X01326886Y006072708D01*
X013254267Y006066609D01*
X013240817Y006058286D01*
X013228848Y006047947D01*
X013218659Y006035849D01*
X013210505Y006022297D01*
X01320459Y006007628D01*
X013201061Y00599221D01*
X0132Y00597768D01*
Y00505268D01*
Y00498212D01*
Y00491585D01*
Y00151943D01*
Y00149928D01*
X01319934Y00148699D01*
X01319744Y00147483D01*
X01319551Y00146686D01*
X01319311Y00145901D01*
X013186139Y001445173D01*
X013177032Y001432639D01*
X013166027Y001421734D01*
X01315604Y00141437D01*
X013141584Y001406577D01*
X013126113Y00140107D01*
X013109984Y001397977D01*
X0131Y00139731D01*
X01143317D01*
X011417403Y001396059D01*
X01140203Y001392338D01*
X011387437Y001386239D01*
X011373987Y001377916D01*
X011362018Y001367577D01*
X011351829Y001355479D01*
X011343675Y001341927D01*
X01133776Y001327258D01*
X011334231Y00131184D01*
X01133317Y00129731D01*
Y0001D01*
X011334421Y000084233D01*
X011338142Y00006886D01*
X01134424Y000054267D01*
X011352563Y000040817D01*
X011362903Y000028848D01*
X011375001Y000018659D01*
X011388553Y000010505D01*
X011403222Y00000459D01*
X01141864Y000001061D01*
X01143317YD01*
X0137D01*
Y01123D02*
X013715767Y011231251D01*
X01373114Y011234972D01*
X013745733Y01124107D01*
X013759183Y011249393D01*
X013771152Y011259733D01*
X013781341Y011271831D01*
X013789495Y011285383D01*
X01379541Y011300052D01*
X013798939Y01131547D01*
X0138Y01133D01*
Y01262731D01*
Y01268901D01*
Y01274943D01*
Y01614585D01*
Y01621212D01*
Y01628268D01*
Y01720768D01*
X013798749Y017223447D01*
X013795028Y01723882D01*
X013788929Y017253413D01*
X013780606Y017266863D01*
X013770267Y017278832D01*
X013758169Y017289021D01*
X013744617Y017297175D01*
X013729948Y01730309D01*
X01371453Y017306619D01*
X0137Y01730768D01*
X0133D01*
X013284233Y017306429D01*
X01326886Y017302708D01*
X013254267Y017296609D01*
X013240817Y017288286D01*
X013228848Y017277947D01*
X013218659Y017265849D01*
X013210505Y017252297D01*
X01320459Y017237628D01*
X013201061Y01722221D01*
X0132Y01720768D01*
Y01628268D01*
Y01621212D01*
Y01614585D01*
Y01274943D01*
Y01272928D01*
X01319934Y01271699D01*
X01319744Y01270483D01*
X01319551Y01269686D01*
X01319311Y01268901D01*
X013186139Y012675173D01*
X013177032Y012662639D01*
X013166027Y012651734D01*
X01315604Y01264437D01*
X013141584Y012636577D01*
X013126113Y01263107D01*
X013109984Y012627977D01*
X0131Y01262731D01*
X01143317D01*
X011417403Y012626059D01*
X01140203Y012622338D01*
X011387437Y012616239D01*
X011373987Y012607916D01*
X011362018Y012597577D01*
X011351829Y012585479D01*
X011343675Y012571927D01*
X01133776Y012557258D01*
X011334231Y01254184D01*
X01133317Y01252731D01*
Y01133D01*
X011334421Y011314233D01*
X011338142Y01129886D01*
X01134424Y011284267D01*
X011352563Y011270817D01*
X011362903Y011258848D01*
X011375001Y011248659D01*
X011388553Y011240505D01*
X011403222Y01123459D01*
X01141864Y011231061D01*
X01143317Y01123D01*
X0137D01*
X0183YD02*
X018315767Y000001251D01*
X01833114Y000004972D01*
X018345733Y00001107D01*
X018359183Y000019393D01*
X018371152Y000029733D01*
X018381341Y000041831D01*
X018389495Y000055383D01*
X01839541Y000070052D01*
X018398939Y00008547D01*
X0184Y0001D01*
Y00139731D01*
Y00145901D01*
Y00151943D01*
Y00491585D01*
Y00498212D01*
Y00505268D01*
Y00597768D01*
X018398749Y005993447D01*
X018395028Y00600882D01*
X018388929Y006023413D01*
X018380606Y006036863D01*
X018370267Y006048832D01*
X018358169Y006059021D01*
X018344617Y006067175D01*
X018329948Y00607309D01*
X01831453Y006076619D01*
X0183Y00607768D01*
X0179D01*
X017884233Y006076429D01*
X01786886Y006072708D01*
X017854267Y006066609D01*
X017840817Y006058286D01*
X017828848Y006047947D01*
X017818659Y006035849D01*
X017810505Y006022297D01*
X01780459Y006007628D01*
X017801061Y00599221D01*
X0178Y00597768D01*
Y00505268D01*
Y00498212D01*
Y00491585D01*
Y00151943D01*
Y00149928D01*
X01779934Y00148699D01*
X01779744Y00147483D01*
X01779551Y00146686D01*
X01779311Y00145901D01*
X017786139Y001445173D01*
X017777032Y001432639D01*
X017766027Y001421734D01*
X01775604Y00141437D01*
X017741584Y001406577D01*
X017726113Y00140107D01*
X017709984Y001397977D01*
X0177Y00139731D01*
X01603317D01*
X016017403Y001396059D01*
X01600203Y001392338D01*
X015987437Y001386239D01*
X015973987Y001377916D01*
X015962018Y001367577D01*
X015951829Y001355479D01*
X015943675Y001341927D01*
X01593776Y001327258D01*
X015934231Y00131184D01*
X01593317Y00129731D01*
Y0001D01*
X015934421Y000084233D01*
X015938142Y00006886D01*
X01594424Y000054267D01*
X015952563Y000040817D01*
X015962903Y000028848D01*
X015975001Y000018659D01*
X015988553Y000010505D01*
X016003222Y00000459D01*
X01601864Y000001061D01*
X01603317YD01*
X0183D01*
Y01123D02*
X018315767Y011231251D01*
X01833114Y011234972D01*
X018345733Y01124107D01*
X018359183Y011249393D01*
X018371152Y011259733D01*
X018381341Y011271831D01*
X018389495Y011285383D01*
X01839541Y011300052D01*
X018398939Y01131547D01*
X0184Y01133D01*
Y01262731D01*
Y01268901D01*
Y01274943D01*
Y01614585D01*
Y01621212D01*
Y01628268D01*
Y01720768D01*
X018398749Y017223447D01*
X018395028Y01723882D01*
X018388929Y017253413D01*
X018380606Y017266863D01*
X018370267Y017278832D01*
X018358169Y017289021D01*
X018344617Y017297175D01*
X018329948Y01730309D01*
X01831453Y017306619D01*
X0183Y01730768D01*
X0179D01*
X017884233Y017306429D01*
X01786886Y017302708D01*
X017854267Y017296609D01*
X017840817Y017288286D01*
X017828848Y017277947D01*
X017818659Y017265849D01*
X017810505Y017252297D01*
X01780459Y017237628D01*
X017801061Y01722221D01*
X0178Y01720768D01*
Y01628268D01*
Y01621212D01*
Y01614585D01*
Y01274943D01*
Y01272928D01*
X01779934Y01271699D01*
X01779744Y01270483D01*
X01779551Y01269686D01*
X01779311Y01268901D01*
X017786139Y012675173D01*
X017777032Y012662639D01*
X017766027Y012651734D01*
X01775604Y01264437D01*
X017741584Y012636577D01*
X017726113Y01263107D01*
X017709984Y012627977D01*
X0177Y01262731D01*
X01603317D01*
X016017403Y012626059D01*
X01600203Y012622338D01*
X015987437Y012616239D01*
X015973987Y012607916D01*
X015962018Y012597577D01*
X015951829Y012585479D01*
X015943675Y012571927D01*
X01593776Y012557258D01*
X015934231Y01254184D01*
X01593317Y01252731D01*
Y01133D01*
X015934421Y011314233D01*
X015938142Y01129886D01*
X01594424Y011284267D01*
X015952563Y011270817D01*
X015962903Y011258848D01*
X015975001Y011248659D01*
X015988553Y011240505D01*
X016003222Y01123459D01*
X01601864Y011231061D01*
X01603317Y01123D01*
X0183D01*
X0229YD02*
X022915767Y000001251D01*
X02293114Y000004972D01*
X022945733Y00001107D01*
X022959183Y000019393D01*
X022971152Y000029733D01*
X022981341Y000041831D01*
X022989495Y000055383D01*
X02299541Y000070052D01*
X022998939Y00008547D01*
X023Y0001D01*
Y00139731D01*
Y00145901D01*
Y00151943D01*
Y00491585D01*
Y00498212D01*
Y00505268D01*
Y00597768D01*
X022998749Y005993447D01*
X022995028Y00600882D01*
X022988929Y006023413D01*
X022980606Y006036863D01*
X022970267Y006048832D01*
X022958169Y006059021D01*
X022944617Y006067175D01*
X022929948Y00607309D01*
X02291453Y006076619D01*
X0229Y00607768D01*
X0225D01*
X022484233Y006076429D01*
X02246886Y006072708D01*
X022454267Y006066609D01*
X022440817Y006058286D01*
X022428848Y006047947D01*
X022418659Y006035849D01*
X022410505Y006022297D01*
X02240459Y006007628D01*
X022401061Y00599221D01*
X0224Y00597768D01*
Y00505268D01*
Y00498212D01*
Y00491585D01*
Y00151943D01*
Y00149928D01*
X02239934Y00148699D01*
X02239744Y00147483D01*
X02239551Y00146686D01*
X02239311Y00145901D01*
X022386139Y001445173D01*
X022377032Y001432639D01*
X022366027Y001421734D01*
X02235604Y00141437D01*
X022341584Y001406577D01*
X022326113Y00140107D01*
X022309984Y001397977D01*
X0223Y00139731D01*
X02063317D01*
X020617403Y001396059D01*
X02060203Y001392338D01*
X020587437Y001386239D01*
X020573987Y001377916D01*
X020562018Y001367577D01*
X020551829Y001355479D01*
X020543675Y001341927D01*
X02053776Y001327258D01*
X020534231Y00131184D01*
X02053317Y00129731D01*
Y0001D01*
X020534421Y000084233D01*
X020538142Y00006886D01*
X02054424Y000054267D01*
X020552563Y000040817D01*
X020562903Y000028848D01*
X020575001Y000018659D01*
X020588553Y000010505D01*
X020603222Y00000459D01*
X02061864Y000001061D01*
X02063317YD01*
X0229D01*
Y01123D02*
X022915767Y011231251D01*
X02293114Y011234972D01*
X022945733Y01124107D01*
X022959183Y011249393D01*
X022971152Y011259733D01*
X022981341Y011271831D01*
X022989495Y011285383D01*
X02299541Y011300052D01*
X022998939Y01131547D01*
X023Y01133D01*
Y01262731D01*
Y01268901D01*
Y01274943D01*
Y01614585D01*
Y01621212D01*
Y01628268D01*
Y01720768D01*
X022998749Y017223447D01*
X022995028Y01723882D01*
X022988929Y017253413D01*
X022980606Y017266863D01*
X022970267Y017278832D01*
X022958169Y017289021D01*
X022944617Y017297175D01*
X022929948Y01730309D01*
X02291453Y017306619D01*
X0229Y01730768D01*
X0225D01*
X022484233Y017306429D01*
X02246886Y017302708D01*
X022454267Y017296609D01*
X022440817Y017288286D01*
X022428848Y017277947D01*
X022418659Y017265849D01*
X022410505Y017252297D01*
X02240459Y017237628D01*
X022401061Y01722221D01*
X0224Y01720768D01*
Y01628268D01*
Y01621212D01*
Y01614585D01*
Y01274943D01*
Y01272928D01*
X02239934Y01271699D01*
X02239744Y01270483D01*
X02239551Y01269686D01*
X02239311Y01268901D01*
X022386139Y012675173D01*
X022377032Y012662639D01*
X022366027Y012651734D01*
X02235604Y01264437D01*
X022341584Y012636577D01*
X022326113Y01263107D01*
X022309984Y012627977D01*
X0223Y01262731D01*
X02063317D01*
X020617403Y012626059D01*
X02060203Y012622338D01*
X020587437Y012616239D01*
X020573987Y012607916D01*
X020562018Y012597577D01*
X020551829Y012585479D01*
X020543675Y012571927D01*
X02053776Y012557258D01*
X020534231Y01254184D01*
X02053317Y01252731D01*
Y01133D01*
X020534421Y011314233D01*
X020538142Y01129886D01*
X02054424Y011284267D01*
X020552563Y011270817D01*
X020562903Y011258848D01*
X020575001Y011248659D01*
X020588553Y011240505D01*
X020603222Y01123459D01*
X02061864Y011231061D01*
X02063317Y01123D01*
X0229D01*
X012052Y007688D02*
X012036233Y007686749D01*
X01202086Y007683028D01*
X012006267Y007676929D01*
X011992817Y007668606D01*
X011980848Y007658267D01*
X011970659Y007646169D01*
X011962505Y007632617D01*
X01195659Y007617948D01*
X011953061Y00760253D01*
X011952Y007588D01*
Y00629069D01*
Y00622899D01*
Y00616857D01*
Y00277215D01*
Y00270588D01*
Y00263532D01*
Y00171032D01*
X011953251Y001694553D01*
X011956972Y00167918D01*
X01196307Y001664587D01*
X011971393Y001651137D01*
X011981733Y001639168D01*
X011993831Y001628979D01*
X012007383Y001620825D01*
X012022052Y00161491D01*
X01203747Y001611381D01*
X012052Y00161032D01*
X012452D01*
X012467767Y001611571D01*
X01248314Y001615292D01*
X012497733Y00162139D01*
X012511183Y001629713D01*
X012523152Y001640053D01*
X012533341Y001652151D01*
X012541495Y001665703D01*
X01254741Y001680372D01*
X012550939Y00169579D01*
X012552Y00171032D01*
Y00263532D01*
Y00270588D01*
Y00277215D01*
Y00616857D01*
Y00618872D01*
X01255266Y00620101D01*
X01255456Y00621317D01*
X01255649Y00622114D01*
X01255889Y00622899D01*
X012565861Y006242826D01*
X012574967Y006255361D01*
X012585973Y006266266D01*
X01259596Y00627363D01*
X012610415Y006281423D01*
X012625887Y00628693D01*
X012642016Y006290022D01*
X012652Y00629069D01*
X01431883D01*
X014334597Y006291941D01*
X01434997Y006295662D01*
X014364563Y00630176D01*
X014378013Y006310083D01*
X014389982Y006320423D01*
X014400171Y006332521D01*
X014408325Y006346073D01*
X01441424Y006360742D01*
X014417769Y00637616D01*
X01441883Y00639069D01*
Y007588D01*
X014417579Y007603767D01*
X014413858Y00761914D01*
X014407759Y007633733D01*
X014399436Y007647183D01*
X014389097Y007659152D01*
X014376999Y007669341D01*
X014363447Y007677495D01*
X014348778Y00768341D01*
X01433336Y007686939D01*
X01431883Y007688D01*
X012052D01*
Y018918D02*
X012036233Y018916749D01*
X01202086Y018913028D01*
X012006267Y018906929D01*
X011992817Y018898606D01*
X011980848Y018888267D01*
X011970659Y018876169D01*
X011962505Y018862617D01*
X01195659Y018847948D01*
X011953061Y01883253D01*
X011952Y018818D01*
Y01752069D01*
Y01745899D01*
Y01739857D01*
Y01400215D01*
Y01393588D01*
Y01386532D01*
Y01294032D01*
X011953251Y012924553D01*
X011956972Y01290918D01*
X01196307Y012894587D01*
X011971393Y012881137D01*
X011981733Y012869168D01*
X011993831Y012858979D01*
X012007383Y012850825D01*
X012022052Y01284491D01*
X01203747Y012841381D01*
X012052Y01284032D01*
X012452D01*
X012467767Y012841571D01*
X01248314Y012845292D01*
X012497733Y01285139D01*
X012511183Y012859713D01*
X012523152Y012870053D01*
X012533341Y012882151D01*
X012541495Y012895703D01*
X01254741Y012910372D01*
X012550939Y01292579D01*
X012552Y01294032D01*
Y01386532D01*
Y01393588D01*
Y01400215D01*
Y01739857D01*
Y01741872D01*
X01255266Y01743101D01*
X01255456Y01744317D01*
X01255649Y01745114D01*
X01255889Y01745899D01*
X012565861Y017472826D01*
X012574967Y017485361D01*
X012585973Y017496266D01*
X01259596Y01750363D01*
X012610415Y017511423D01*
X012625887Y01751693D01*
X012642016Y017520022D01*
X012652Y01752069D01*
X01431883D01*
X014334597Y017521941D01*
X01434997Y017525662D01*
X014364563Y01753176D01*
X014378013Y017540083D01*
X014389982Y017550423D01*
X014400171Y017562521D01*
X014408325Y017576073D01*
X01441424Y017590742D01*
X014417769Y01760616D01*
X01441883Y01762069D01*
Y018818D01*
X014417579Y018833767D01*
X014413858Y01884914D01*
X014407759Y018863733D01*
X014399436Y018877183D01*
X014389097Y018889152D01*
X014376999Y018899341D01*
X014363447Y018907495D01*
X014348778Y01891341D01*
X01433336Y018916939D01*
X01431883Y018918D01*
X012052D01*
X016652Y007688D02*
X016636233Y007686749D01*
X01662086Y007683028D01*
X016606267Y007676929D01*
X016592817Y007668606D01*
X016580848Y007658267D01*
X016570659Y007646169D01*
X016562505Y007632617D01*
X01655659Y007617948D01*
X016553061Y00760253D01*
X016552Y007588D01*
Y00629069D01*
Y00622899D01*
Y00616857D01*
Y00277215D01*
Y00270588D01*
Y00263532D01*
Y00171032D01*
X016553251Y001694553D01*
X016556972Y00167918D01*
X01656307Y001664587D01*
X016571393Y001651137D01*
X016581733Y001639168D01*
X016593831Y001628979D01*
X016607383Y001620825D01*
X016622052Y00161491D01*
X01663747Y001611381D01*
X016652Y00161032D01*
X017052D01*
X017067767Y001611571D01*
X01708314Y001615292D01*
X017097733Y00162139D01*
X017111183Y001629713D01*
X017123152Y001640053D01*
X017133341Y001652151D01*
X017141495Y001665703D01*
X01714741Y001680372D01*
X017150939Y00169579D01*
X017152Y00171032D01*
Y00263532D01*
Y00270588D01*
Y00277215D01*
Y00616857D01*
Y00618872D01*
X01715266Y00620101D01*
X01715456Y00621317D01*
X01715649Y00622114D01*
X01715889Y00622899D01*
X017165861Y006242826D01*
X017174967Y006255361D01*
X017185973Y006266266D01*
X01719596Y00627363D01*
X017210415Y006281423D01*
X017225887Y00628693D01*
X017242016Y006290022D01*
X017252Y00629069D01*
X01891883D01*
X018934597Y006291941D01*
X01894997Y006295662D01*
X018964563Y00630176D01*
X018978013Y006310083D01*
X018989982Y006320423D01*
X019000171Y006332521D01*
X019008325Y006346073D01*
X01901424Y006360742D01*
X019017769Y00637616D01*
X01901883Y00639069D01*
Y007588D01*
X019017579Y007603767D01*
X019013858Y00761914D01*
X019007759Y007633733D01*
X018999436Y007647183D01*
X018989097Y007659152D01*
X018976999Y007669341D01*
X018963447Y007677495D01*
X018948778Y00768341D01*
X01893336Y007686939D01*
X01891883Y007688D01*
X016652D01*
Y018918D02*
X016636233Y018916749D01*
X01662086Y018913028D01*
X016606267Y018906929D01*
X016592817Y018898606D01*
X016580848Y018888267D01*
X016570659Y018876169D01*
X016562505Y018862617D01*
X01655659Y018847948D01*
X016553061Y01883253D01*
X016552Y018818D01*
Y01752069D01*
Y01745899D01*
Y01739857D01*
Y01400215D01*
Y01393588D01*
Y01386532D01*
Y01294032D01*
X016553251Y012924553D01*
X016556972Y01290918D01*
X01656307Y012894587D01*
X016571393Y012881137D01*
X016581733Y012869168D01*
X016593831Y012858979D01*
X016607383Y012850825D01*
X016622052Y01284491D01*
X01663747Y012841381D01*
X016652Y01284032D01*
X017052D01*
X017067767Y012841571D01*
X01708314Y012845292D01*
X017097733Y01285139D01*
X017111183Y012859713D01*
X017123152Y012870053D01*
X017133341Y012882151D01*
X017141495Y012895703D01*
X01714741Y012910372D01*
X017150939Y01292579D01*
X017152Y01294032D01*
Y01386532D01*
Y01393588D01*
Y01400215D01*
Y01739857D01*
Y01741872D01*
X01715266Y01743101D01*
X01715456Y01744317D01*
X01715649Y01745114D01*
X01715889Y01745899D01*
X017165861Y017472826D01*
X017174967Y017485361D01*
X017185973Y017496266D01*
X01719596Y01750363D01*
X017210415Y017511423D01*
X017225887Y01751693D01*
X017242016Y017520022D01*
X017252Y01752069D01*
X01891883D01*
X018934597Y017521941D01*
X01894997Y017525662D01*
X018964563Y01753176D01*
X018978013Y017540083D01*
X018989982Y017550423D01*
X019000171Y017562521D01*
X019008325Y017576073D01*
X01901424Y017590742D01*
X019017769Y01760616D01*
X01901883Y01762069D01*
Y018818D01*
X019017579Y018833767D01*
X019013858Y01884914D01*
X019007759Y018863733D01*
X018999436Y018877183D01*
X018989097Y018889152D01*
X018976999Y018899341D01*
X018963447Y018907495D01*
X018948778Y01891341D01*
X01893336Y018916939D01*
X01891883Y018918D01*
X016652D01*
X021252Y007688D02*
X021236233Y007686749D01*
X02122086Y007683028D01*
X021206267Y007676929D01*
X021192817Y007668606D01*
X021180848Y007658267D01*
X021170659Y007646169D01*
X021162505Y007632617D01*
X02115659Y007617948D01*
X021153061Y00760253D01*
X021152Y007588D01*
Y00629069D01*
Y00622899D01*
Y00616857D01*
Y00277215D01*
Y00270588D01*
Y00263532D01*
Y00171032D01*
X021153251Y001694553D01*
X021156972Y00167918D01*
X02116307Y001664587D01*
X021171393Y001651137D01*
X021181733Y001639168D01*
X021193831Y001628979D01*
X021207383Y001620825D01*
X021222052Y00161491D01*
X02123747Y001611381D01*
X021252Y00161032D01*
X021652D01*
X021667767Y001611571D01*
X02168314Y001615292D01*
X021697733Y00162139D01*
X021711183Y001629713D01*
X021723152Y001640053D01*
X021733341Y001652151D01*
X021741495Y001665703D01*
X02174741Y001680372D01*
X021750939Y00169579D01*
X021752Y00171032D01*
Y00263532D01*
Y00270588D01*
Y00277215D01*
Y00616857D01*
Y00618872D01*
X02175266Y00620101D01*
X02175456Y00621317D01*
X02175649Y00622114D01*
X02175889Y00622899D01*
X021765861Y006242826D01*
X021774967Y006255361D01*
X021785973Y006266266D01*
X02179596Y00627363D01*
X021810415Y006281423D01*
X021825887Y00628693D01*
X021842016Y006290022D01*
X021852Y00629069D01*
X02351883D01*
X023534597Y006291941D01*
X02354997Y006295662D01*
X023564563Y00630176D01*
X023578013Y006310083D01*
X023589982Y006320423D01*
X023600171Y006332521D01*
X023608325Y006346073D01*
X02361424Y006360742D01*
X023617769Y00637616D01*
X02361883Y00639069D01*
Y007588D01*
X023617579Y007603767D01*
X023613858Y00761914D01*
X023607759Y007633733D01*
X023599436Y007647183D01*
X023589097Y007659152D01*
X023576999Y007669341D01*
X023563447Y007677495D01*
X023548778Y00768341D01*
X02353336Y007686939D01*
X02351883Y007688D01*
X021252D01*
Y018918D02*
X021236233Y018916749D01*
X02122086Y018913028D01*
X021206267Y018906929D01*
X021192817Y018898606D01*
X021180848Y018888267D01*
X021170659Y018876169D01*
X021162505Y018862617D01*
X02115659Y018847948D01*
X021153061Y01883253D01*
X021152Y018818D01*
Y01752069D01*
Y01745899D01*
Y01739857D01*
Y01400215D01*
Y01393588D01*
Y01386532D01*
Y01294032D01*
X021153251Y012924553D01*
X021156972Y01290918D01*
X02116307Y012894587D01*
X021171393Y012881137D01*
X021181733Y012869168D01*
X021193831Y012858979D01*
X021207383Y012850825D01*
X021222052Y01284491D01*
X02123747Y012841381D01*
X021252Y01284032D01*
X021652D01*
X021667767Y012841571D01*
X02168314Y012845292D01*
X021697733Y01285139D01*
X021711183Y012859713D01*
X021723152Y012870053D01*
X021733341Y012882151D01*
X021741495Y012895703D01*
X02174741Y012910372D01*
X021750939Y01292579D01*
X021752Y01294032D01*
Y01386532D01*
Y01393588D01*
Y01400215D01*
Y01739857D01*
Y01741872D01*
X02175266Y01743101D01*
X02175456Y01744317D01*
X02175649Y01745114D01*
X02175889Y01745899D01*
X021765861Y017472826D01*
X021774967Y017485361D01*
X021785973Y017496266D01*
X02179596Y01750363D01*
X021810415Y017511423D01*
X021825887Y01751693D01*
X021842016Y017520022D01*
X021852Y01752069D01*
X02351883D01*
X023534597Y017521941D01*
X02354997Y017525662D01*
X023564563Y01753176D01*
X023578013Y017540083D01*
X023589982Y017550423D01*
X023600171Y017562521D01*
X023608325Y017576073D01*
X02361424Y017590742D01*
X023617769Y01760616D01*
X02361883Y01762069D01*
Y018818D01*
X023617579Y018833767D01*
X023613858Y01884914D01*
X023607759Y018863733D01*
X023599436Y018877183D01*
X023589097Y018889152D01*
X023576999Y018899341D01*
X023563447Y018907495D01*
X023548778Y01891341D01*
X02353336Y018916939D01*
X02351883Y018918D01*
X021252D01*
X01495Y-001648D02*
X014965767Y-001646749D01*
X01498114Y-001643028D01*
X014995733Y-001636929D01*
X015009183Y-001628606D01*
X015021152Y-001618267D01*
X015031341Y-001606169D01*
X015039495Y-001592617D01*
X01504541Y-001577948D01*
X015048939Y-00156253D01*
X01505Y-001548D01*
Y-00025069D01*
Y-00018899D01*
Y-00012857D01*
Y00326785D01*
Y00333412D01*
Y00340468D01*
Y00432968D01*
X015048749Y004345447D01*
X015045028Y00436082D01*
X015038929Y004375413D01*
X015030606Y004388863D01*
X015020267Y004400832D01*
X015008169Y004411021D01*
X014994617Y004419175D01*
X014979948Y00442509D01*
X01496453Y004428619D01*
X01495Y00442968D01*
X01455D01*
X014534233Y004428429D01*
X01451886Y004424708D01*
X014504267Y004418609D01*
X014490817Y004410286D01*
X014478848Y004399947D01*
X014468659Y004387849D01*
X014460505Y004374297D01*
X01445459Y004359628D01*
X014451061Y00434421D01*
X01445Y00432968D01*
Y00340468D01*
Y00333412D01*
Y00326785D01*
Y-00012857D01*
Y-00014872D01*
X01444934Y-00016101D01*
X01444744Y-00017317D01*
X01444551Y-00018114D01*
X01444311Y-00018899D01*
X014436139Y-000202826D01*
X014427032Y-000215361D01*
X014416027Y-000226266D01*
X01440604Y-00023363D01*
X014391584Y-000241423D01*
X014376113Y-00024693D01*
X014359984Y-000250022D01*
X01435Y-00025069D01*
X01268317D01*
X012667403Y-000251941D01*
X01265203Y-000255662D01*
X012637437Y-00026176D01*
X012623987Y-000270083D01*
X012612018Y-000280423D01*
X012601829Y-000292521D01*
X012593675Y-000306073D01*
X01258776Y-000320742D01*
X012584231Y-00033616D01*
X01258317Y-00035069D01*
Y-001548D01*
X012584421Y-001563767D01*
X012588142Y-00157914D01*
X01259424Y-001593733D01*
X012602563Y-001607183D01*
X012612903Y-001619152D01*
X012625001Y-001629341D01*
X012638553Y-001637495D01*
X012653222Y-00164341D01*
X01266864Y-001646939D01*
X01268317Y-001648D01*
X01495D01*
Y009582D02*
X014965767Y009583251D01*
X01498114Y009586972D01*
X014995733Y00959307D01*
X015009183Y009601393D01*
X015021152Y009611733D01*
X015031341Y009623831D01*
X015039495Y009637383D01*
X01504541Y009652052D01*
X015048939Y00966747D01*
X01505Y009682D01*
Y01097931D01*
Y01104101D01*
Y01110143D01*
Y01449785D01*
Y01456412D01*
Y01463468D01*
Y01555968D01*
X015048749Y015575447D01*
X015045028Y01559082D01*
X015038929Y015605413D01*
X015030606Y015618863D01*
X015020267Y015630832D01*
X015008169Y015641021D01*
X014994617Y015649175D01*
X014979948Y01565509D01*
X01496453Y015658619D01*
X01495Y01565968D01*
X01455D01*
X014534233Y015658429D01*
X01451886Y015654708D01*
X014504267Y015648609D01*
X014490817Y015640286D01*
X014478848Y015629947D01*
X014468659Y015617849D01*
X014460505Y015604297D01*
X01445459Y015589628D01*
X014451061Y01557421D01*
X01445Y01555968D01*
Y01463468D01*
Y01456412D01*
Y01449785D01*
Y01110143D01*
Y01108128D01*
X01444934Y01106899D01*
X01444744Y01105683D01*
X01444551Y01104886D01*
X01444311Y01104101D01*
X014436139Y011027173D01*
X014427032Y011014639D01*
X014416027Y011003734D01*
X01440604Y01099637D01*
X014391584Y010988577D01*
X014376113Y01098307D01*
X014359984Y010979977D01*
X01435Y01097931D01*
X01268317D01*
X012667403Y010978059D01*
X01265203Y010974338D01*
X012637437Y010968239D01*
X012623987Y010959916D01*
X012612018Y010949577D01*
X012601829Y010937479D01*
X012593675Y010923927D01*
X01258776Y010909258D01*
X012584231Y01089384D01*
X01258317Y01087931D01*
Y009682D01*
X012584421Y009666233D01*
X012588142Y00965086D01*
X01259424Y009636267D01*
X012602563Y009622817D01*
X012612903Y009610848D01*
X012625001Y009600659D01*
X012638553Y009592505D01*
X012653222Y00958659D01*
X01266864Y009583061D01*
X01268317Y009582D01*
X01495D01*
X01955Y-001648D02*
X019565767Y-001646749D01*
X01958114Y-001643028D01*
X019595733Y-001636929D01*
X019609183Y-001628606D01*
X019621152Y-001618267D01*
X019631341Y-001606169D01*
X019639495Y-001592617D01*
X01964541Y-001577948D01*
X019648939Y-00156253D01*
X01965Y-001548D01*
Y-00025069D01*
Y-00018899D01*
Y-00012857D01*
Y00326785D01*
Y00333412D01*
Y00340468D01*
Y00432968D01*
X019648749Y004345447D01*
X019645028Y00436082D01*
X019638929Y004375413D01*
X019630606Y004388863D01*
X019620267Y004400832D01*
X019608169Y004411021D01*
X019594617Y004419175D01*
X019579948Y00442509D01*
X01956453Y004428619D01*
X01955Y00442968D01*
X01915D01*
X019134233Y004428429D01*
X01911886Y004424708D01*
X019104267Y004418609D01*
X019090817Y004410286D01*
X019078848Y004399947D01*
X019068659Y004387849D01*
X019060505Y004374297D01*
X01905459Y004359628D01*
X019051061Y00434421D01*
X01905Y00432968D01*
Y00340468D01*
Y00333412D01*
Y00326785D01*
Y-00012857D01*
Y-00014872D01*
X01904934Y-00016101D01*
X01904744Y-00017317D01*
X01904551Y-00018114D01*
X01904311Y-00018899D01*
X019036139Y-000202826D01*
X019027032Y-000215361D01*
X019016027Y-000226266D01*
X01900604Y-00023363D01*
X018991584Y-000241423D01*
X018976113Y-00024693D01*
X018959984Y-000250022D01*
X01895Y-00025069D01*
X01728317D01*
X017267403Y-000251941D01*
X01725203Y-000255662D01*
X017237437Y-00026176D01*
X017223987Y-000270083D01*
X017212018Y-000280423D01*
X017201829Y-000292521D01*
X017193675Y-000306073D01*
X01718776Y-000320742D01*
X017184231Y-00033616D01*
X01718317Y-00035069D01*
Y-001548D01*
X017184421Y-001563767D01*
X017188142Y-00157914D01*
X01719424Y-001593733D01*
X017202563Y-001607183D01*
X017212903Y-001619152D01*
X017225001Y-001629341D01*
X017238553Y-001637495D01*
X017253222Y-00164341D01*
X01726864Y-001646939D01*
X01728317Y-001648D01*
X01955D01*
Y009582D02*
X019565767Y009583251D01*
X01958114Y009586972D01*
X019595733Y00959307D01*
X019609183Y009601393D01*
X019621152Y009611733D01*
X019631341Y009623831D01*
X019639495Y009637383D01*
X01964541Y009652052D01*
X019648939Y00966747D01*
X01965Y009682D01*
Y01097931D01*
Y01104101D01*
Y01110143D01*
Y01449785D01*
Y01456412D01*
Y01463468D01*
Y01555968D01*
X019648749Y015575447D01*
X019645028Y01559082D01*
X019638929Y015605413D01*
X019630606Y015618863D01*
X019620267Y015630832D01*
X019608169Y015641021D01*
X019594617Y015649175D01*
X019579948Y01565509D01*
X01956453Y015658619D01*
X01955Y01565968D01*
X01915D01*
X019134233Y015658429D01*
X01911886Y015654708D01*
X019104267Y015648609D01*
X019090817Y015640286D01*
X019078848Y015629947D01*
X019068659Y015617849D01*
X019060505Y015604297D01*
X01905459Y015589628D01*
X019051061Y01557421D01*
X01905Y01555968D01*
Y01463468D01*
Y01456412D01*
Y01449785D01*
Y01110143D01*
Y01108128D01*
X01904934Y01106899D01*
X01904744Y01105683D01*
X01904551Y01104886D01*
X01904311Y01104101D01*
X019036139Y011027173D01*
X019027032Y011014639D01*
X019016027Y011003734D01*
X01900604Y01099637D01*
X018991584Y010988577D01*
X018976113Y01098307D01*
X018959984Y010979977D01*
X01895Y01097931D01*
X01728317D01*
X017267403Y010978059D01*
X01725203Y010974338D01*
X017237437Y010968239D01*
X017223987Y010959916D01*
X017212018Y010949577D01*
X017201829Y010937479D01*
X017193675Y010923927D01*
X01718776Y010909258D01*
X017184231Y01089384D01*
X01718317Y01087931D01*
Y009682D01*
X017184421Y009666233D01*
X017188142Y00965086D01*
X01719424Y009636267D01*
X017202563Y009622817D01*
X017212903Y009610848D01*
X017225001Y009600659D01*
X017238553Y009592505D01*
X017253222Y00958659D01*
X01726864Y009583061D01*
X01728317Y009582D01*
X01955D01*
X02415Y-001648D02*
X024165767Y-001646749D01*
X02418114Y-001643028D01*
X024195733Y-001636929D01*
X024209183Y-001628606D01*
X024221152Y-001618267D01*
X024231341Y-001606169D01*
X024239495Y-001592617D01*
X02424541Y-001577948D01*
X024248939Y-00156253D01*
X02425Y-001548D01*
Y-00025069D01*
Y-00018899D01*
Y-00012857D01*
Y00326785D01*
Y00333412D01*
Y00340468D01*
Y00432968D01*
X024248749Y004345447D01*
X024245028Y00436082D01*
X024238929Y004375413D01*
X024230606Y004388863D01*
X024220267Y004400832D01*
X024208169Y004411021D01*
X024194617Y004419175D01*
X024179948Y00442509D01*
X02416453Y004428619D01*
X02415Y00442968D01*
X02375D01*
X023734233Y004428429D01*
X02371886Y004424708D01*
X023704267Y004418609D01*
X023690817Y004410286D01*
X023678848Y004399947D01*
X023668659Y004387849D01*
X023660505Y004374297D01*
X02365459Y004359628D01*
X023651061Y00434421D01*
X02365Y00432968D01*
Y00340468D01*
Y00333412D01*
Y00326785D01*
Y-00012857D01*
Y-00014872D01*
X02364934Y-00016101D01*
X02364744Y-00017317D01*
X02364551Y-00018114D01*
X02364311Y-00018899D01*
X023636139Y-000202826D01*
X023627032Y-000215361D01*
X023616027Y-000226266D01*
X02360604Y-00023363D01*
X023591584Y-000241423D01*
X023576113Y-00024693D01*
X023559984Y-000250022D01*
X02355Y-00025069D01*
X02188317D01*
X021867403Y-000251941D01*
X02185203Y-000255662D01*
X021837437Y-00026176D01*
X021823987Y-000270083D01*
X021812018Y-000280423D01*
X021801829Y-000292521D01*
X021793675Y-000306073D01*
X02178776Y-000320742D01*
X021784231Y-00033616D01*
X02178317Y-00035069D01*
Y-001548D01*
X021784421Y-001563767D01*
X021788142Y-00157914D01*
X02179424Y-001593733D01*
X021802563Y-001607183D01*
X021812903Y-001619152D01*
X021825001Y-001629341D01*
X021838553Y-001637495D01*
X021853222Y-00164341D01*
X02186864Y-001646939D01*
X02188317Y-001648D01*
X02415D01*
Y009582D02*
X024165767Y009583251D01*
X02418114Y009586972D01*
X024195733Y00959307D01*
X024209183Y009601393D01*
X024221152Y009611733D01*
X024231341Y009623831D01*
X024239495Y009637383D01*
X02424541Y009652052D01*
X024248939Y00966747D01*
X02425Y009682D01*
Y01097931D01*
Y01104101D01*
Y01110143D01*
Y01449785D01*
Y01456412D01*
Y01463468D01*
Y01555968D01*
X024248749Y015575447D01*
X024245028Y01559082D01*
X024238929Y015605413D01*
X024230606Y015618863D01*
X024220267Y015630832D01*
X024208169Y015641021D01*
X024194617Y015649175D01*
X024179948Y01565509D01*
X02416453Y015658619D01*
X02415Y01565968D01*
X02375D01*
X023734233Y015658429D01*
X02371886Y015654708D01*
X023704267Y015648609D01*
X023690817Y015640286D01*
X023678848Y015629947D01*
X023668659Y015617849D01*
X023660505Y015604297D01*
X02365459Y015589628D01*
X023651061Y01557421D01*
X02365Y01555968D01*
Y01463468D01*
Y01456412D01*
Y01449785D01*
Y01110143D01*
Y01108128D01*
X02364934Y01106899D01*
X02364744Y01105683D01*
X02364551Y01104886D01*
X02364311Y01104101D01*
X023636139Y011027173D01*
X023627032Y011014639D01*
X023616027Y011003734D01*
X02360604Y01099637D01*
X023591584Y010988577D01*
X023576113Y01098307D01*
X023559984Y010979977D01*
X02355Y01097931D01*
X02188317D01*
X021867403Y010978059D01*
X02185203Y010974338D01*
X021837437Y010968239D01*
X021823987Y010959916D01*
X021812018Y010949577D01*
X021801829Y010937479D01*
X021793675Y010923927D01*
X02178776Y010909258D01*
X021784231Y01089384D01*
X02178317Y01087931D01*
Y009682D01*
X021784421Y009666233D01*
X021788142Y00965086D01*
X02179424Y009636267D01*
X021802563Y009622817D01*
X021812903Y009610848D01*
X021825001Y009600659D01*
X021838553Y009592505D01*
X021853222Y00958659D01*
X02186864Y009583061D01*
X02188317Y009582D01*
X02415D01*
X010802Y009336D02*
X010786233Y009334749D01*
X01077086Y009331028D01*
X010756267Y009324929D01*
X010742817Y009316606D01*
X010730848Y009306267D01*
X010720659Y009294169D01*
X010712505Y009280617D01*
X01070659Y009265948D01*
X010703061Y00925053D01*
X010702Y009236D01*
Y00793869D01*
Y00787699D01*
Y00781657D01*
Y00442015D01*
Y00435388D01*
Y00428332D01*
Y00335832D01*
X010703251Y003342553D01*
X010706972Y00332718D01*
X01071307Y003312587D01*
X010721393Y003299137D01*
X010731733Y003287168D01*
X010743831Y003276979D01*
X010757383Y003268825D01*
X010772052Y00326291D01*
X01078747Y003259381D01*
X010802Y00325832D01*
X011202D01*
X011217767Y003259571D01*
X01123314Y003263292D01*
X011247733Y00326939D01*
X011261183Y003277713D01*
X011273152Y003288053D01*
X011283341Y003300151D01*
X011291495Y003313703D01*
X01129741Y003328372D01*
X011300939Y00334379D01*
X011302Y00335832D01*
Y00428332D01*
Y00435388D01*
Y00442015D01*
Y00781657D01*
Y00783672D01*
X01130266Y00784901D01*
X01130456Y00786117D01*
X01130649Y00786914D01*
X01130889Y00787699D01*
X011315861Y007890826D01*
X011324967Y007903361D01*
X011335973Y007914266D01*
X01134596Y00792163D01*
X011360415Y007929423D01*
X011375887Y00793493D01*
X011392016Y007938022D01*
X011402Y00793869D01*
X01306883D01*
X013084597Y007939941D01*
X01309997Y007943662D01*
X013114563Y00794976D01*
X013128013Y007958083D01*
X013139982Y007968423D01*
X013150171Y007980521D01*
X013158325Y007994073D01*
X01316424Y008008742D01*
X013167769Y00802416D01*
X01316883Y00803869D01*
Y009236D01*
X013167579Y009251767D01*
X013163858Y00926714D01*
X013157759Y009281733D01*
X013149436Y009295183D01*
X013139097Y009307152D01*
X013126999Y009317341D01*
X013113447Y009325495D01*
X013098778Y00933141D01*
X01308336Y009334939D01*
X01306883Y009336D01*
X010802D01*
Y020566D02*
X010786233Y020564749D01*
X01077086Y020561028D01*
X010756267Y020554929D01*
X010742817Y020546606D01*
X010730848Y020536267D01*
X010720659Y020524169D01*
X010712505Y020510617D01*
X01070659Y020495948D01*
X010703061Y02048053D01*
X010702Y020466D01*
Y01916869D01*
Y01910699D01*
Y01904657D01*
Y01565015D01*
Y01558388D01*
Y01551332D01*
Y01458832D01*
X010703251Y014572553D01*
X010706972Y01455718D01*
X01071307Y014542587D01*
X010721393Y014529137D01*
X010731733Y014517168D01*
X010743831Y014506979D01*
X010757383Y014498825D01*
X010772052Y01449291D01*
X01078747Y014489381D01*
X010802Y01448832D01*
X011202D01*
X011217767Y014489571D01*
X01123314Y014493292D01*
X011247733Y01449939D01*
X011261183Y014507713D01*
X011273152Y014518053D01*
X011283341Y014530151D01*
X011291495Y014543703D01*
X01129741Y014558372D01*
X011300939Y01457379D01*
X011302Y01458832D01*
Y01551332D01*
Y01558388D01*
Y01565015D01*
Y01904657D01*
Y01906672D01*
X01130266Y01907901D01*
X01130456Y01909117D01*
X01130649Y01909914D01*
X01130889Y01910699D01*
X011315861Y019120826D01*
X011324967Y019133361D01*
X011335973Y019144266D01*
X01134596Y01915163D01*
X011360415Y019159423D01*
X011375887Y01916493D01*
X011392016Y019168022D01*
X011402Y01916869D01*
X01306883D01*
X013084597Y019169941D01*
X01309997Y019173662D01*
X013114563Y01917976D01*
X013128013Y019188083D01*
X013139982Y019198423D01*
X013150171Y019210521D01*
X013158325Y019224073D01*
X01316424Y019238742D01*
X013167769Y01925416D01*
X01316883Y01926869D01*
Y020466D01*
X013167579Y020481767D01*
X013163858Y02049714D01*
X013157759Y020511733D01*
X013149436Y020525183D01*
X013139097Y020537152D01*
X013126999Y020547341D01*
X013113447Y020555495D01*
X013098778Y02056141D01*
X01308336Y020564939D01*
X01306883Y020566D01*
X010802D01*
X015402Y009336D02*
X015386233Y009334749D01*
X01537086Y009331028D01*
X015356267Y009324929D01*
X015342817Y009316606D01*
X015330848Y009306267D01*
X015320659Y009294169D01*
X015312505Y009280617D01*
X01530659Y009265948D01*
X015303061Y00925053D01*
X015302Y009236D01*
Y00793869D01*
Y00787699D01*
Y00781657D01*
Y00442015D01*
Y00435388D01*
Y00428332D01*
Y00335832D01*
X015303251Y003342553D01*
X015306972Y00332718D01*
X01531307Y003312587D01*
X015321393Y003299137D01*
X015331733Y003287168D01*
X015343831Y003276979D01*
X015357383Y003268825D01*
X015372052Y00326291D01*
X01538747Y003259381D01*
X015402Y00325832D01*
X015802D01*
X015817767Y003259571D01*
X01583314Y003263292D01*
X015847733Y00326939D01*
X015861183Y003277713D01*
X015873152Y003288053D01*
X015883341Y003300151D01*
X015891495Y003313703D01*
X01589741Y003328372D01*
X015900939Y00334379D01*
X015902Y00335832D01*
Y00428332D01*
Y00435388D01*
Y00442015D01*
Y00781657D01*
Y00783672D01*
X01590266Y00784901D01*
X01590456Y00786117D01*
X01590649Y00786914D01*
X01590889Y00787699D01*
X015915861Y007890826D01*
X015924967Y007903361D01*
X015935973Y007914266D01*
X01594596Y00792163D01*
X015960415Y007929423D01*
X015975887Y00793493D01*
X015992016Y007938022D01*
X016002Y00793869D01*
X01766883D01*
X017684597Y007939941D01*
X01769997Y007943662D01*
X017714563Y00794976D01*
X017728013Y007958083D01*
X017739982Y007968423D01*
X017750171Y007980521D01*
X017758325Y007994073D01*
X01776424Y008008742D01*
X017767769Y00802416D01*
X01776883Y00803869D01*
Y009236D01*
X017767579Y009251767D01*
X017763858Y00926714D01*
X017757759Y009281733D01*
X017749436Y009295183D01*
X017739097Y009307152D01*
X017726999Y009317341D01*
X017713447Y009325495D01*
X017698778Y00933141D01*
X01768336Y009334939D01*
X01766883Y009336D01*
X015402D01*
Y020566D02*
X015386233Y020564749D01*
X01537086Y020561028D01*
X015356267Y020554929D01*
X015342817Y020546606D01*
X015330848Y020536267D01*
X015320659Y020524169D01*
X015312505Y020510617D01*
X01530659Y020495948D01*
X015303061Y02048053D01*
X015302Y020466D01*
Y01916869D01*
Y01910699D01*
Y01904657D01*
Y01565015D01*
Y01558388D01*
Y01551332D01*
Y01458832D01*
X015303251Y014572553D01*
X015306972Y01455718D01*
X01531307Y014542587D01*
X015321393Y014529137D01*
X015331733Y014517168D01*
X015343831Y014506979D01*
X015357383Y014498825D01*
X015372052Y01449291D01*
X01538747Y014489381D01*
X015402Y01448832D01*
X015802D01*
X015817767Y014489571D01*
X01583314Y014493292D01*
X015847733Y01449939D01*
X015861183Y014507713D01*
X015873152Y014518053D01*
X015883341Y014530151D01*
X015891495Y014543703D01*
X01589741Y014558372D01*
X015900939Y01457379D01*
X015902Y01458832D01*
Y01551332D01*
Y01558388D01*
Y01565015D01*
Y01904657D01*
Y01906672D01*
X01590266Y01907901D01*
X01590456Y01909117D01*
X01590649Y01909914D01*
X01590889Y01910699D01*
X015915861Y019120826D01*
X015924967Y019133361D01*
X015935973Y019144266D01*
X01594596Y01915163D01*
X015960415Y019159423D01*
X015975887Y01916493D01*
X015992016Y019168022D01*
X016002Y01916869D01*
X01766883D01*
X017684597Y019169941D01*
X01769997Y019173662D01*
X017714563Y01917976D01*
X017728013Y019188083D01*
X017739982Y019198423D01*
X017750171Y019210521D01*
X017758325Y019224073D01*
X01776424Y019238742D01*
X017767769Y01925416D01*
X01776883Y01926869D01*
Y020466D01*
X017767579Y020481767D01*
X017763858Y02049714D01*
X017757759Y020511733D01*
X017749436Y020525183D01*
X017739097Y020537152D01*
X017726999Y020547341D01*
X017713447Y020555495D01*
X017698778Y02056141D01*
X01768336Y020564939D01*
X01766883Y020566D01*
X015402D01*
X020002Y009336D02*
X019986233Y009334749D01*
X01997086Y009331028D01*
X019956267Y009324929D01*
X019942817Y009316606D01*
X019930848Y009306267D01*
X019920659Y009294169D01*
X019912505Y009280617D01*
X01990659Y009265948D01*
X019903061Y00925053D01*
X019902Y009236D01*
Y00793869D01*
Y00787699D01*
Y00781657D01*
Y00442015D01*
Y00435388D01*
Y00428332D01*
Y00335832D01*
X019903251Y003342553D01*
X019906972Y00332718D01*
X01991307Y003312587D01*
X019921393Y003299137D01*
X019931733Y003287168D01*
X019943831Y003276979D01*
X019957383Y003268825D01*
X019972052Y00326291D01*
X01998747Y003259381D01*
X020002Y00325832D01*
X020402D01*
X020417767Y003259571D01*
X02043314Y003263292D01*
X020447733Y00326939D01*
X020461183Y003277713D01*
X020473152Y003288053D01*
X020483341Y003300151D01*
X020491495Y003313703D01*
X02049741Y003328372D01*
X020500939Y00334379D01*
X020502Y00335832D01*
Y00428332D01*
Y00435388D01*
Y00442015D01*
Y00781657D01*
Y00783672D01*
X02050266Y00784901D01*
X02050456Y00786117D01*
X02050649Y00786914D01*
X02050889Y00787699D01*
X020515861Y007890826D01*
X020524967Y007903361D01*
X020535973Y007914266D01*
X02054596Y00792163D01*
X020560415Y007929423D01*
X020575887Y00793493D01*
X020592016Y007938022D01*
X020602Y00793869D01*
X02226883D01*
X022284597Y007939941D01*
X02229997Y007943662D01*
X022314563Y00794976D01*
X022328013Y007958083D01*
X022339982Y007968423D01*
X022350171Y007980521D01*
X022358325Y007994073D01*
X02236424Y008008742D01*
X022367769Y00802416D01*
X02236883Y00803869D01*
Y009236D01*
X022367579Y009251767D01*
X022363858Y00926714D01*
X022357759Y009281733D01*
X022349436Y009295183D01*
X022339097Y009307152D01*
X022326999Y009317341D01*
X022313447Y009325495D01*
X022298778Y00933141D01*
X02228336Y009334939D01*
X02226883Y009336D01*
X020002D01*
Y020566D02*
X019986233Y020564749D01*
X01997086Y020561028D01*
X019956267Y020554929D01*
X019942817Y020546606D01*
X019930848Y020536267D01*
X019920659Y020524169D01*
X019912505Y020510617D01*
X01990659Y020495948D01*
X019903061Y02048053D01*
X019902Y020466D01*
Y01916869D01*
Y01910699D01*
Y01904657D01*
Y01565015D01*
Y01558388D01*
Y01551332D01*
Y01458832D01*
X019903251Y014572553D01*
X019906972Y01455718D01*
X01991307Y014542587D01*
X019921393Y014529137D01*
X019931733Y014517168D01*
X019943831Y014506979D01*
X019957383Y014498825D01*
X019972052Y01449291D01*
X01998747Y014489381D01*
X020002Y01448832D01*
X020402D01*
X020417767Y014489571D01*
X02043314Y014493292D01*
X020447733Y01449939D01*
X020461183Y014507713D01*
X020473152Y014518053D01*
X020483341Y014530151D01*
X020491495Y014543703D01*
X02049741Y014558372D01*
X020500939Y01457379D01*
X020502Y01458832D01*
Y01551332D01*
Y01558388D01*
Y01565015D01*
Y01904657D01*
Y01906672D01*
X02050266Y01907901D01*
X02050456Y01909117D01*
X02050649Y01909914D01*
X02050889Y01910699D01*
X020515861Y019120826D01*
X020524967Y019133361D01*
X020535973Y019144266D01*
X02054596Y01915163D01*
X020560415Y019159423D01*
X020575887Y01916493D01*
X020592016Y019168022D01*
X020602Y01916869D01*
X02226883D01*
X022284597Y019169941D01*
X02229997Y019173662D01*
X022314563Y01917976D01*
X022328013Y019188083D01*
X022339982Y019198423D01*
X022350171Y019210521D01*
X022358325Y019224073D01*
X02236424Y019238742D01*
X022367769Y01925416D01*
X02236883Y01926869D01*
Y020466D01*
X022367579Y020481767D01*
X022363858Y02049714D01*
X022357759Y020511733D01*
X022349436Y020525183D01*
X022339097Y020537152D01*
X022326999Y020547341D01*
X022313447Y020555495D01*
X022298778Y02056141D01*
X02228336Y020564939D01*
X02226883Y020566D01*
X020002D01*
G54D11*
X010576Y021209D02*
X024376D01*
X010576Y-002291D02*
X024376D01*
Y021209D01*
X010576D02*
Y-002291D01*
X-003324Y021209D02*
X024476D01*
X-003324Y-002291D02*
X024476D01*
X-003324D02*
Y021209D01*
X024476Y-002291D02*
Y021209D01*
G54D12*
X-002831995Y000657845D03*
Y011887845D03*
X-001581995Y-000990155D03*
Y010239845D03*
X-000266005Y008678155D03*
Y019908155D03*
X000983995Y007030155D03*
Y018260155D03*
X001768005Y000657845D03*
Y011887845D03*
X003018005Y-000990155D03*
Y010239845D03*
X004333995Y008678155D03*
Y019908155D03*
X005583995Y007030155D03*
Y018260155D03*
X006368005Y000657845D03*
Y011887845D03*
X007618005Y-000990155D03*
Y010239845D03*
X008933995Y008678155D03*
Y019908155D03*
X010183995Y007030155D03*
Y018260155D03*
X010968005Y000657845D03*
Y011887845D03*
X012218005Y-000990155D03*
Y010239845D03*
X013533995Y008678155D03*
Y019908155D03*
X014783995Y007030155D03*
Y018260155D03*
X015568005Y000657845D03*
Y011887845D03*
X016818005Y-000990155D03*
Y010239845D03*
X018133995Y008678155D03*
Y019908155D03*
X019383995Y007030155D03*
Y018260155D03*
X020168005Y000657845D03*
Y011887845D03*
X021418005Y-000990155D03*
Y010239845D03*
X022733995Y008678155D03*
Y019908155D03*
X023983995Y007030155D03*
Y018260155D03*
G54D13*
X-00271163Y001283598D03*
Y012513598D03*
X-00146163Y-000364402D03*
Y010865598D03*
X-00038637Y008052402D03*
Y019282402D03*
X00086363Y006404402D03*
Y017634402D03*
X00188837Y001283598D03*
Y012513598D03*
X00313837Y-000364402D03*
Y010865598D03*
X00421363Y008052402D03*
Y019282402D03*
X00546363Y006404402D03*
Y017634402D03*
X00648837Y001283598D03*
Y012513598D03*
X00773837Y-000364402D03*
Y010865598D03*
X00881363Y008052402D03*
Y019282402D03*
X01006363Y006404402D03*
Y017634402D03*
G54D12*
X-002136844Y007131502D03*
Y018361502D03*
X-000886844Y005483502D03*
Y016713502D03*
X-000961156Y002204497D03*
Y013434497D03*
X000288844Y000556497D03*
Y011786497D03*
X002463156Y007131502D03*
Y018361502D03*
X003713156Y005483502D03*
Y016713502D03*
X003638844Y002204497D03*
Y013434497D03*
X004888844Y000556497D03*
Y011786497D03*
X007063156Y007131502D03*
Y018361502D03*
X008313156Y005483502D03*
Y016713502D03*
X008238844Y002204497D03*
Y013434497D03*
X009488844Y000556497D03*
Y011786497D03*
G54D13*
X01108837Y001283598D03*
Y012513598D03*
X01233837Y-000364402D03*
Y010865598D03*
X01341363Y008052402D03*
Y019282402D03*
X01466363Y006404402D03*
Y017634402D03*
X01568837Y001283598D03*
Y012513598D03*
X01693837Y-000364402D03*
Y010865598D03*
X01801363Y008052402D03*
Y019282402D03*
X01926363Y006404402D03*
Y017634402D03*
X02028837Y001283598D03*
Y012513598D03*
X02153837Y-000364402D03*
Y010865598D03*
X02261363Y008052402D03*
Y019282402D03*
X02386363Y006404402D03*
Y017634402D03*
G54D12*
X011663156Y007131502D03*
Y018361502D03*
X012913156Y005483502D03*
Y016713502D03*
X012838844Y002204497D03*
Y013434497D03*
X014088844Y000556497D03*
Y011786497D03*
X016263156Y007131502D03*
Y018361502D03*
X017513156Y005483502D03*
Y016713502D03*
X017438844Y002204497D03*
Y013434497D03*
X018688844Y000556497D03*
Y011786497D03*
X020863156Y007131502D03*
Y018361502D03*
X022113156Y005483502D03*
Y016713502D03*
X022038844Y002204497D03*
Y013434497D03*
X023288844Y000556497D03*
Y011786497D03*
M02*
